<svg version="1.1" xmlns="http://www.w3.org/2000/svg" viewBox="0 0 1256 1526.0030337904675" width="2512" height="3052.006067580935">
  <!-- svg-source:excalidraw -->
  
  <defs>
    <style class="style-fonts">
      @font-face {
        font-family: "Virgil";
        src: url("https://excalidraw.com/Virgil.woff2");
      }
      @font-face {
        font-family: "Cascadia";
        src: url("https://excalidraw.com/Cascadia.woff2");
      }
    </style>
    
  </defs>
  <g stroke-linecap="round" transform="translate(385 596.5030337904675) rotate(0 219 85)"><path d="M0 0 C0 0, 0 0, 0 0 M0 0 C0 0, 0 0, 0 0 M-0.66 6.91 C1.73 4.88, 2.12 3.19, 4.2 0.24 M-0.63 6.04 C1.84 4.49, 3.52 2.29, 5.07 0.49 M1.71 13.08 C4.01 10.3, 5.96 5.51, 12.17 0.91 M0.1 11.29 C3.13 8.94, 6.77 6.09, 10.33 0.37 M0.63 17.08 C7.74 9.73, 10.9 3.07, 15.41 0.93 M-0.12 18.09 C4.69 11.28, 10.73 5.79, 16.06 0.41 M-0.57 25.73 C6.58 17.01, 11.4 9.73, 19.62 1.81 M-0.54 24.29 C4.48 17.4, 10.87 13.4, 22.21 0.75 M-0.33 28.95 C7.47 23.22, 12.34 16.61, 26.25 0.05 M-0.07 30.86 C8.17 20.32, 18.27 9.91, 25.61 -0.4 M0.15 37.02 C8.23 27.8, 11.64 18.96, 31.65 -1.24 M0.3 37.5 C9.26 25.83, 17.33 15.77, 31.19 -0.64 M0.28 42.03 C13.37 29, 27.54 11.62, 35.19 0.9 M0.97 43.25 C11.41 31.43, 21.3 18.36, 36.21 -0.7 M-0.79 47.19 C11.04 32.59, 27.4 18.74, 41.53 -1.75 M-0.7 49.26 C10.32 37.07, 20.75 25.29, 42.95 -0.01 M1.33 56.54 C14.94 36.87, 29.69 20.03, 48.35 0.47 M-0.28 53.96 C11.83 40.79, 24.02 28.17, 46.99 -0.16 M0.09 59.98 C12.3 44.82, 29.87 26.13, 52.63 0.02 M-0.06 61.65 C15.32 41.9, 30.99 23.64, 53.97 -0.42 M-0.46 67 C18.76 46.75, 38.9 22.76, 58.37 1.25 M-0.96 67.69 C15.95 48.32, 31.53 30.28, 57.82 0.79 M1.42 71.9 C19.42 49.04, 38.82 28.04, 62.85 1.31 M1.07 73.25 C21.12 49.1, 40.06 25.16, 63.51 0.33 M0.12 79.13 C23.73 50.02, 51.84 21.72, 68.39 -0.76 M0.49 80.11 C20.06 54.74, 41.85 32.07, 69.31 0.95 M0.34 84.93 C21.82 58.01, 44.3 33.62, 72.57 0.87 M0.32 85.86 C22.68 59.33, 44.35 33.21, 73.55 -0.33 M0.79 90.43 C17.91 71.16, 38.29 45.76, 80.03 -0.08 M0.39 92.42 C15.81 73.53, 30.53 54.63, 78.84 0.4 M-0.18 99.32 C33.39 60.95, 63.1 27.55, 84.66 -1.07 M-0.59 97.31 C33.59 59.47, 66.01 22.56, 84.85 0.3 M-1.57 103.14 C22.16 77.3, 43.46 50.57, 89.42 -1.7 M0.5 104.32 C32.74 66.28, 66.54 29.41, 90.53 0.44 M-0.69 110.55 C33.79 69.91, 68.41 30.47, 96.52 1.24 M0.76 110.4 C21.29 84.12, 42.49 60.29, 94.9 0.16 M0.43 117.01 C31.86 77.91, 66.53 37.83, 99.21 -1.15 M-0.68 114.75 C31.2 80.65, 60.4 45.95, 101.25 -0.34 M-1.22 121.86 C40.39 77.95, 77.59 30.24, 108.02 -0.96 M-0.4 121.45 C20.6 95.86, 43.86 70.77, 105.95 0.44 M0 130.03 C35.49 82.36, 76.54 42.63, 110.52 -0.41 M-0.57 128.64 C29.13 93.47, 60.57 57.44, 110.63 -0.14 M1.37 133.26 C42 84.33, 84.52 33.41, 116.89 1.83 M0.55 133.29 C26.96 102.08, 53.01 70.93, 116.33 0.33 M-1.14 139.43 C47.27 86.74, 90.13 33.01, 122.98 -0.02 M0.15 139.94 C29.09 106.97, 58.44 73.81, 121.02 0.11 M0.71 146.23 C28.04 114.02, 55.63 82.8, 125.33 -1.66 M0.97 145.97 C42.48 95.97, 83.88 47.31, 127.11 0.03 M-0.7 154.03 C32.04 119.04, 61.22 80.5, 130.92 0.93 M-0.4 152.12 C39.11 107.29, 78.65 62.61, 131.66 0.65 M0.22 160.32 C31.89 121.45, 63.47 83.88, 136.23 0.98 M0.26 159.48 C37.86 115.84, 74.48 73.5, 138.06 1.11 M-1.32 164.16 C53.38 101, 108.62 40.47, 142.51 1.07 M1.02 164.95 C37.55 122.45, 73.08 80.22, 143.99 -0.64 M0.65 170.32 C31.92 136.81, 61.56 99.43, 147.13 -0.6 M1.34 170.35 C48.89 113.19, 96.34 59.72, 148.56 0.11 M5.69 170.37 C55.71 112.3, 105.86 52.38, 153.24 0.49 M6.3 169.98 C45.11 123.32, 87.32 75.16, 153.38 0.48 M11.5 171.66 C44.31 130.27, 78.1 92.99, 158.48 -0.27 M10.63 170.39 C55.09 118.83, 99.6 68.95, 158.63 0.1 M15.49 169.77 C64.66 116.52, 114.58 60.27, 164.54 0.48 M16.35 171.07 C47.91 134.5, 78.37 97.01, 164.49 0.57 M22.59 168.31 C56.6 130.38, 91.79 89.01, 169.34 -1.28 M22.04 170.09 C68.77 113.72, 117.08 58.35, 168.89 -0.06 M27.04 170.33 C62.84 129, 95.55 86.37, 176.55 0.14 M27.42 170.53 C69.03 123.85, 108.16 77.15, 175.72 -0.93 M32.31 171.43 C72.29 122.5, 109.55 79.21, 180.92 1.3 M33.08 169.73 C71.29 124.35, 110.8 78.63, 180.62 -0.43 M36.37 171.82 C70.39 130.03, 106.45 90.4, 184.66 -0.1 M38.2 170.91 C92.35 107.88, 145.26 45.78, 186.09 -0.12 M44.65 169.42 C72.82 134.76, 104.64 102.1, 189.66 -0.04 M43.65 170.66 C85.21 119.78, 130.24 67.91, 190.62 0.02 M48.53 171.88 C99.49 112.27, 151.04 55.47, 196.7 -1.95 M48.06 170.63 C98.43 112, 148.93 54.79, 196.99 -0.59 M51.34 169.9 C89.82 130.85, 124.12 88.33, 201.06 -1.23 M53.63 170.9 C103.76 115.78, 151.76 59.16, 201.43 -0.06 M56.99 169.45 C100.27 121.5, 139.96 73.24, 205.5 1 M58.7 170.95 C109.72 109.88, 163.39 48.87, 207.02 0.3 M65.39 169.21 C95.02 134.09, 123.84 101.08, 212.43 -0.35 M63.8 170.7 C121.02 105.61, 178.95 38.91, 211.14 0.8 M67.65 171.56 C106.28 128.77, 141.16 89.93, 216.31 -0.68 M69.05 170.74 C116.2 114.75, 164.73 59.22, 217.15 -0.6 M75.96 170.65 C108.92 128.31, 146.11 89.24, 223.25 -1.06 M73.58 170.25 C109.94 131.34, 145.56 90.39, 221.88 -0.04 M78.26 169.45 C120.15 124.24, 162.84 75.03, 229.68 -1.43 M80.39 169.95 C115.46 125.65, 153.5 83.22, 228.99 -0.26 M85.31 171.24 C134.82 114.04, 187.12 53.66, 231.71 1.15 M85.46 170.01 C137.05 110.32, 189.63 50.41, 233.01 -0.69 M92.17 169.31 C138.79 113.13, 185.28 58.66, 237.36 -0.5 M91.22 169.59 C131.76 121.71, 173.53 73.8, 238.97 1.08 M94.41 169.25 C150.44 105.76, 205.78 44.1, 244.97 -1.67 M95.67 169.85 C145.76 111.15, 198.08 51.14, 244.52 0.07 M101.1 171.78 C133.74 133.4, 162.77 100.18, 248.9 1.89 M100.68 170.06 C144.02 120.13, 186.53 69.95, 249.58 0.25 M106.38 171.09 C147.38 122.58, 192.85 71.37, 255.25 0.98 M106.25 170.66 C157.37 112.34, 208.4 53.66, 253.62 -0.57 M112.7 168.49 C140.57 133.96, 172.84 100.16, 260.35 -1.25 M111.98 169.36 C151.66 122.77, 191 78.04, 260.28 0.85 M116.18 170.76 C165.15 113.99, 214.08 57.11, 263.71 0.31 M116.45 171.02 C148.52 134.57, 179.51 99.57, 265.03 0.74 M122.99 169.52 C162.98 121.54, 203.1 75.41, 270.51 0.81 M122.11 170.03 C172.27 113, 222.21 55.96, 270.09 -0.07 M127.8 170.41 C182.71 107.41, 236.76 42.68, 277.12 -0.9 M127.86 170.54 C173.23 115.2, 220.42 61.03, 275.52 -0.1 M133.6 169.07 C170.44 127.01, 209.05 81.24, 280.38 -0.52 M133.86 170.51 C183.57 111.88, 233.29 54.56, 280.41 0.76 M137.04 170.02 C168.55 134.81, 199.17 98.71, 287.22 1.4 M137.6 169.92 C193.78 106.2, 248.29 41.65, 285.96 -1 M144.84 169.48 C184.96 122.9, 225.62 74.8, 289.63 1.19 M143.8 170.32 C178.38 129.66, 214.31 89.22, 291.55 0.84 M148.76 170.86 C192.57 122.75, 230.81 75.26, 298.22 -1.13 M148.54 170.94 C181.23 131.75, 214.48 94.22, 297.83 -0.52 M155.76 170.97 C201.2 117.8, 245.33 63.65, 303.53 -0.08 M154.28 170.05 C205.81 113.33, 256.18 55.16, 302.76 0.42 M159.62 168.66 C203.79 115.8, 249.92 64.11, 306.14 -1.88 M159.09 169.59 C190.4 137, 219.93 101.24, 308.14 0.43 M163.47 172.36 C198.06 135.6, 226.68 98.56, 312.32 1.25 M164.21 170.41 C203.89 126.17, 241.01 83.46, 312.22 0.86 M168.46 170.68 C214.77 120.49, 258.53 68.63, 319.47 0.24 M169.98 169.77 C198.85 135.66, 229.91 99.94, 317.95 0.31 M176.03 171.49 C222.58 112.89, 272.87 55.92, 322.12 1.74 M175.12 170.91 C222.88 114.58, 271.38 58.89, 323.88 -0.58 M179.67 171.78 C229.47 115.51, 278.29 58.44, 328.24 0.7 M180.9 169.62 C215.66 128.13, 251.15 87.75, 328.97 0.36 M184.54 169.74 C229.38 125.41, 267.33 77.59, 334.33 -0.76 M185.48 170.97 C220.54 133.33, 254.61 93.98, 333.78 -0.41 M192.95 171.52 C240.49 113.14, 290.69 54.61, 338.35 -0.27 M190.44 170.04 C226.11 130.44, 260.63 90.54, 340.13 -0.56 M196.61 169.04 C244.64 112.22, 295.7 57.32, 345.63 -0.26 M196.8 170.33 C248.19 109.99, 300.57 48.98, 343.74 0.79 M203.26 170.76 C253.52 109.16, 304.62 49.21, 350.33 -0.44 M201.29 169.61 C239.27 128.47, 275.75 88.04, 348.63 -0.02 M208.29 169.18 C245.3 127.06, 285.74 82.76, 354.86 0.23 M206.07 169.79 C238.66 133.53, 272.61 94.77, 354.49 0.07 M211.15 171.63 C250.96 123.55, 294.75 75.55, 358.53 1.47 M213.32 169.65 C251.89 126.61, 289.25 83.88, 359.41 -0.21 M217.77 171.2 C262.93 117.29, 310.8 64.5, 366.41 -1 M217.79 171.23 C259.04 123.61, 300.37 76.85, 365.73 0.7 M222.72 170.69 C264.21 118.8, 307.53 70.37, 371.21 -0.01 M223.66 170.87 C277.76 106.34, 332.34 43.19, 370.97 -0.02 M228.8 170.61 C284.65 107.4, 337.93 42.21, 376.55 -0.97 M228.53 170.74 C270.76 120.44, 312.85 73.01, 376.05 0.17 M232.53 169.22 C267.44 129.66, 301.58 90.72, 382.26 0.47 M233.46 169.89 C266.08 133.26, 298.24 94.03, 381.36 0.29 M240.41 171.05 C274.44 128.16, 313.01 83.2, 387.09 1.19 M238.92 170.64 C287.63 110.79, 337.93 53.84, 386.41 0.46 M244.11 169.79 C278.68 129.14, 313.11 88.67, 391.14 -0.74 M244.55 169.57 C299.25 107.79, 353.33 45.63, 392.74 -0.17 M250.38 170.57 C277.78 134.74, 306.48 101.57, 398.58 0.74 M248.54 170.86 C289.26 125.27, 328.52 80.68, 398.42 -0.5 M256.3 169.39 C297.28 117.79, 341.2 68.5, 402.91 0.85 M254.24 170.38 C297.59 121.71, 339.8 74.25, 402.73 0.46 M258.6 171.97 C314.09 110.8, 368.14 47.53, 406.85 1.11 M259.31 170.72 C289.6 135.98, 320.05 100.97, 407.47 -0.32 M266.63 169.73 C307.93 120.26, 348.37 72.92, 414.47 0.75 M265.65 170.45 C321.66 103.25, 380.06 37.23, 413.05 -0.01 M270.53 169 C322.84 110.23, 372.89 51.62, 420.16 0.15 M270.36 170.59 C303.25 131.52, 337.45 93.09, 418.15 -0.65 M274.79 170.37 C328.83 111.4, 381.56 51.6, 424.84 -0.86 M275.66 170.7 C305.29 134.58, 335.49 101.33, 424.34 0.74 M280.09 170.47 C316.15 128.43, 352.4 91.18, 428.33 0.42 M281.49 170.21 C330.96 115.29, 379.03 59.63, 428.86 -0.35 M285.38 169.5 C336.44 116.13, 384.51 59.2, 435.23 0.97 M286.28 170.44 C342.91 105.99, 399.52 39.79, 434.45 0.93 M293.6 169.27 C350.14 103.67, 408.9 36.65, 439.16 0.43 M291.4 170.4 C324.97 134.04, 356.91 97.19, 439.04 0.85 M296.82 171.16 C341.26 118.71, 386.72 65.91, 439.62 5.48 M297.02 171.23 C343.64 119.45, 389.36 65.69, 439.4 6.66 M302.36 169.91 C338.98 129.44, 378.2 86.46, 438.9 14.41 M302.88 169.56 C351.52 114.53, 398.3 60.41, 438.76 13.59 M307.74 169.18 C342.55 126.61, 381.39 85.88, 437.87 18.73 M307.74 171.08 C350.56 122.78, 390.83 75.52, 439.66 18.51 M313.68 171.52 C358.93 117.66, 405.21 65.59, 439.97 24.23 M312.36 170.82 C349.28 127.7, 384.83 86.03, 439.3 24.64 M319.71 172.11 C350.83 134.05, 383.04 93.36, 438.22 31.13 M317.84 169.92 C343.18 142.97, 366.4 116.46, 438.92 31.73 M322.77 170.31 C351.12 137.42, 383.25 102.56, 440.59 38.31 M324.37 171.13 C360.98 127.42, 397.65 83.58, 439.88 38.14 M328.8 171.52 C354.23 141.19, 378.02 114.32, 437.94 44.76 M329.4 171 C366.47 128.11, 402.85 86.42, 438.92 43.86 M335 171.96 C358.39 142.58, 384.81 112.75, 441.38 51.29 M334.43 170.37 C364.91 134.88, 394.87 99.73, 440.34 49.69 M337.64 171.73 C372.95 132.2, 403.67 97.01, 438.08 57.59 M339.29 170.93 C378.89 126.12, 416.84 80.96, 438.27 55.8 M346.25 171.74 C362.83 147.18, 383.46 127.98, 440.82 63.92 M344.81 169.71 C374.89 135.56, 406.29 101.58, 438.67 62.88 M351.39 170.75 C373.32 145.44, 396.18 119.01, 439.04 68.38 M349.15 169.54 C383.69 131.1, 418.63 92.77, 438.97 66.99 M354.9 170.37 C370.86 150.81, 390.45 130.85, 437.86 76.18 M356.49 169.59 C380.31 142.01, 404.84 114.05, 439.53 74.26 M361.66 172.05 C387.95 137.26, 416.85 107.06, 439.68 81.36 M361.34 169.88 C379.76 148.9, 397.91 125.4, 439.77 80.12 M365.84 170.1 C387.91 144.39, 412.53 118.1, 439.96 87.82 M367.23 169.72 C393.74 139.08, 421.19 105.47, 438.4 85.89 M370.6 168.64 C389.79 150.41, 406.96 128.29, 440.75 91.03 M370.99 170.28 C386.76 153.73, 402.02 136.13, 439.51 91.9 M378.44 170.67 C394.93 148.75, 412.25 131.7, 437.77 99.32 M377.51 169.03 C397.48 147.8, 418.2 123.58, 440.14 98.34 M382.84 171.01 C396.68 151.31, 415.96 133.92, 439.42 103.12 M381.97 170.3 C400.51 149.61, 418.22 130.25, 439.75 104 M386.59 169.32 C403.97 148.83, 421.83 125.96, 440.41 108.69 M386.59 169.71 C405.81 149.36, 423.71 127.37, 440.37 109.44 M393.51 171.14 C410.08 149.73, 428.41 131.32, 437.44 115.14 M392.89 170.75 C401.76 159.86, 412.26 148.66, 438.82 117.61 M398.02 169.56 C405.94 159.49, 416.73 145.47, 438.86 124.17 M397.8 169.96 C407.21 159.27, 417.86 146.55, 438.82 123 M404.23 170.54 C418.35 152.28, 432.56 136.39, 439.68 129.32 M403.14 169.71 C416.77 155.73, 428.05 141.71, 438.48 128.43 M408.92 170.11 C418.22 158.34, 427.75 147.77, 440.57 133.24 M407.2 170.97 C416.75 159.74, 427.31 149.77, 439.9 135.82 M415.16 172.18 C418.83 162.73, 425.89 156.7, 437.52 141.4 M412.82 170.49 C421.02 161.08, 428.2 153, 439.22 141.4 M420.02 169.48 C426.72 163.93, 431.23 154.95, 437.52 147.14 M419.64 171.42 C426.43 163.1, 431.57 155.07, 438.85 146.24 M424.91 168.57 C430.3 164.88, 433.4 156.27, 440.2 153.38 M424.82 169.66 C428.3 165.41, 432.96 160, 439.62 153.47 M430.76 170.81 C432.8 168.64, 434.27 165.34, 440.44 158.22 M429.37 170.52 C431.65 167.79, 434.4 164.56, 438.53 159.11 M434.94 170.03 C435.78 168.89, 436.51 168.11, 438.53 165.9 M434.98 170.43 C435.73 169.44, 436.62 167.91, 439.01 165.92" stroke="#e9ecef" stroke-width="0.5" fill="none"></path><path d="M-0.04 0.34 C108.6 -1.23, 215.17 -0.64, 437.53 0.48 M0.32 -0.42 C146.32 1.94, 292.49 2.53, 437.78 -0.31 M436.03 -1.56 C437.93 36.5, 439.81 74.49, 437.88 168.1 M437.9 -0.93 C438.99 62.23, 438.65 125.67, 438.04 169.13 M438.87 170.28 C280.27 170.04, 121.1 171.26, 0.46 169.6 M438.09 170.24 C285.13 169.33, 131.79 169.49, 0.4 170.18 M0.57 171.12 C0.76 108.07, 1.56 48.18, 1.61 -0.98 M-0.14 170.57 C-1.79 127.17, -0.88 85.26, -0.98 0.19" stroke="#000000" stroke-width="1" fill="none"></path></g><g stroke-linecap="round" transform="translate(383 874.5030337904675) rotate(0 219 45)"><path d="M-1.87 -1.77 L439.99 0.34 L439.61 89.47 L0.4 90.64" stroke="none" stroke-width="0" fill="#4c6ef5"></path><path d="M-0.54 0.58 C126.96 -1.98, 252.79 -1.4, 437.13 0.31 M-0.32 -0.07 C169.7 -1.19, 338.62 -1.17, 437.65 -0.2 M438.79 1.95 C439.84 30.2, 439.14 58.48, 436.7 91.74 M437.93 0.23 C439.4 30.36, 438.01 58.57, 438.53 90.21 M437.19 90.01 C311.97 87.04, 187.54 87.76, 0.73 89.43 M438.11 90.06 C269.48 88.07, 100.25 88.12, -0.37 90.13 M-0.3 88.08 C-1.54 61.4, -0.14 30.1, -1.62 1.23 M-0.13 89.92 C-1.09 66.45, -0.73 45.23, 0.97 -0.87" stroke="#ffff" stroke-width="1" fill="none"></path></g><g transform="translate(555.5 618.0030337904675) rotate(0 52.5 22.5)"><text x="0" y="0" font-family="Virgil, Segoe UI Emoji" font-size="36px" fill="#000000" text-anchor="start" style="white-space: pre;" direction="ltr" dominant-baseline="text-before-edge">Engine</text></g><g stroke-linecap="round"><g transform="translate(314.9401382624119 463.9685510318468) rotate(0 142.47574593348338 61.408849436154355)"><path d="M0.99 -0.74 C48.46 19.85, 237.53 101.99, 284.9 122.61 M0.05 1.48 C47.41 22.26, 236.82 103.15, 284.31 123.56" stroke="#16262f" stroke-width="1" fill="none"></path></g><g transform="translate(314.9401382624119 463.9685510318468) rotate(0 142.47574593348338 61.408849436154355)"><path d="M253.12 123.03 C261.71 123.86, 271.59 121.22, 285.57 121.61 M254.49 122.86 C264.93 122.33, 277.21 123.26, 284.93 123.24" stroke="#16262f" stroke-width="1" fill="none"></path></g><g transform="translate(314.9401382624119 463.9685510318468) rotate(0 142.47574593348338 61.408849436154355)"><path d="M261.2 104.17 C267.15 110.89, 274.54 114.07, 285.57 121.61 M262.57 103.99 C270.03 110.59, 279.26 118.63, 284.93 123.24" stroke="#16262f" stroke-width="1" fill="none"></path></g></g><mask></mask><g stroke-linecap="round"><g transform="translate(860.2743262778758 464.8995855146055) rotate(0 -119.19063920955625 60.04704202453473)"><path d="M-0.1 -0.32 C-39.81 19.85, -198.56 100.07, -238.28 120.01 M-1.61 -1.53 C-40.95 18.94, -197.02 101.3, -236.11 121.62" stroke="#16262f" stroke-width="1" fill="none"></path></g><g transform="translate(860.2743262778758 464.8995855146055) rotate(0 -119.19063920955625 60.04704202453473)"><path d="M-216.44 97.71 C-221.84 104.02, -228.91 110.63, -235.11 122.18 M-216.42 99.95 C-218.82 104.31, -224.18 107.45, -237.01 122.04" stroke="#16262f" stroke-width="1" fill="none"></path></g><g transform="translate(860.2743262778758 464.8995855146055) rotate(0 -119.19063920955625 60.04704202453473)"><path d="M-206.91 115.89 C-214.98 116.81, -224.87 118.05, -235.11 122.18 M-206.89 118.13 C-211.37 118.76, -218.66 118.22, -237.01 122.04" stroke="#16262f" stroke-width="1" fill="none"></path></g></g><mask></mask><g transform="translate(388 902.0030337904675) rotate(0 214 17.5)"><text x="214" y="0" font-family="Virgil, Segoe UI Emoji" font-size="28px" fill="#ffff" text-anchor="middle" style="white-space: pre;" direction="ltr" dominant-baseline="text-before-edge">YAML Parser</text></g><g transform="translate(470 802.0030337904675) rotate(0 57.5 17.5)"><text x="0" y="0" font-family="Virgil, Segoe UI Emoji" font-size="28px" fill="#4c061d" text-anchor="start" style="white-space: pre;" direction="ltr" dominant-baseline="text-before-edge">(output)</text></g><g stroke-linecap="round"><g transform="translate(608.7381293494886 769.4340682732262) rotate(0 0.46592350948264993 51.15485382753036)"><path d="M-0.26 0.42 C-0.27 17.41, -0.08 84.56, -0.42 101.51 M1.8 -0.41 C1.74 16.76, -0.58 85.41, -0.87 102.72" stroke="#4c061d" stroke-width="1" fill="none"></path></g><g transform="translate(608.7381293494886 769.4340682732262) rotate(0 0.46592350948264993 51.15485382753036)"><path d="M-9.7 75.86 C-8.95 80.43, -5.34 89.82, -1.87 103.51 M-10.86 75.08 C-6.08 84.5, -2.83 96.63, -0.46 103.63" stroke="#4c061d" stroke-width="1" fill="none"></path></g><g transform="translate(608.7381293494886 769.4340682732262) rotate(0 0.46592350948264993 51.15485382753036)"><path d="M10.81 76.39 C5.99 80.77, 4.02 90.02, -1.87 103.51 M9.66 75.61 C6.63 84.9, 2.08 96.83, -0.46 103.63" stroke="#4c061d" stroke-width="1" fill="none"></path></g></g><mask></mask><g transform="translate(568 685.0030337904675) rotate(0 41.670013427734375 22.5)"><text x="0" y="0" font-family="Virgil, Segoe UI Emoji" font-size="36px" fill="#15aabf" text-anchor="start" style="white-space: pre;" direction="ltr" dominant-baseline="text-before-edge">Jinja</text></g><g stroke-linecap="round" transform="translate(401 1193.5030337904675) rotate(0 219 85)"><path d="M0 0 C0 0, 0 0, 0 0 M0 0 C0 0, 0 0, 0 0 M-0.86 6.06 C0.92 4.34, 3.56 2.15, 5.69 -0.29 M-0.43 6.55 C0.91 5.2, 2.13 3.68, 5.06 0.1 M-1.33 11.86 C2.21 7.98, 5.38 5.15, 9.29 -0.73 M0.49 12.52 C3.16 7.45, 7.39 3.67, 10.01 0.14 M0.96 17.75 C5.18 10.02, 11.03 3.76, 15.58 -1.42 M0.33 17.79 C4.22 12.84, 9.62 7.42, 15.22 -0.51 M0.75 23.26 C7.01 15.72, 14.94 6.58, 21.05 -0.33 M0.92 23.72 C5.61 17.79, 9.9 13.04, 21.38 0.1 M1.21 30.12 C9.85 19.96, 19.12 8.19, 25.85 1.75 M-0.01 29.78 C8.24 21.06, 16.63 11.71, 25.31 0.82 M0.56 35.68 C5.95 29.79, 14.46 21.01, 30.71 -1.99 M0.58 36.4 C9.12 26.68, 20.15 15.16, 31.48 -0.73 M-1.38 42.15 C8.98 34.77, 14.18 25.56, 36.43 0.5 M0.67 41.83 C8.64 33.32, 17.49 21.69, 36.18 0.42 M-0.06 49.83 C10.17 37.85, 21.32 24.49, 42.06 1.1 M0.65 48.89 C14.84 34.1, 27.86 16.29, 42.26 -0.98 M-0.68 54.85 C14.33 39.4, 30.94 19.53, 48.71 0.56 M-0.51 54.24 C15.28 37.5, 31.08 18.88, 47.34 0.2 M1.61 62.2 C18.53 35.89, 41.87 12.93, 53.74 1.44 M0.95 60.87 C10.95 47.2, 23.91 31.68, 52.6 -0.1 M-0.72 67.45 C22.64 42.01, 45.38 16.32, 58.57 1.17 M-0.33 67.34 C19.61 43.45, 39.47 21.65, 59.03 -0.62 M-0.55 74.02 C18.64 48.69, 40.72 24.98, 62.88 1.01 M0.73 72.53 C16.38 53.22, 33.11 34.93, 64.13 -0.27 M-1.05 78.43 C16.36 60.53, 30.79 45.6, 68.4 -0.92 M-0.85 78.43 C12.96 62.17, 27.16 47.17, 68.24 0.39 M1.85 84.04 C26.82 56.48, 49.94 30.68, 73.12 -0.69 M-0.01 85.33 C30 52.1, 58.05 18.01, 75.21 -0.41 M-0.7 90.06 C16.96 71.78, 36.27 48.31, 79.07 0.52 M0.63 92.34 C25.44 60.67, 53.93 30.34, 78.72 0.92 M-0.96 97.27 C18.72 76.45, 33.78 56.9, 86.58 1.33 M-1.18 98.69 C24.75 68.94, 51.05 40.08, 84.97 -0.22 M0.48 105.31 C33.7 63.65, 66.2 25.33, 89.98 1.24 M0.24 104.39 C26.35 73.1, 53.98 41.11, 90.97 -0.09 M1.71 109.92 C22.16 82.05, 44.49 57.56, 95.9 1.57 M0.02 109.06 C21.46 86.34, 40.72 61.86, 95.27 -0.13 M1.11 116.68 C22.96 87.76, 44.32 62.41, 98.99 -1.51 M0.85 115.13 C39.02 72.72, 77.71 28.21, 100.23 -0.44 M1.09 122.01 C33.85 82.67, 68.32 44.85, 108.21 0.01 M-0.81 122.38 C31.79 88.33, 60.64 53.14, 106.74 -1.32 M1.67 126.91 C32.48 92.04, 62.08 57.15, 110.51 -1 M-0.58 129.14 C43.54 78.02, 85.68 30.32, 110.5 -0.7 M-0.45 134.26 C35.1 93.94, 70.49 57.45, 116.49 -1.1 M-0.68 133.09 C44.94 85.15, 87.31 34.45, 116.09 1.03 M-0.89 142 C31.72 101.37, 68.06 63.01, 123.4 -0.99 M-0.36 139.98 C27.28 108.72, 55.96 76.19, 122.53 -0.17 M1.99 144.92 C31.07 109.99, 59.77 72.7, 126.18 -0.27 M0.16 146.89 C33.99 105.37, 68.93 67.03, 126.76 0.73 M-0.99 151.76 C31.4 115.46, 66.12 78.07, 131.21 0.24 M-0.02 152.69 C50.88 94.51, 101.43 34.97, 131.88 -0.83 M-0.8 158.53 C44.52 105.95, 88.21 57.03, 139.06 -0.19 M-0.43 159.39 C43.04 112.15, 83.73 64.3, 137.03 1 M1.47 162.71 C40.44 116.68, 79.1 73.33, 141.59 -1.72 M0.27 164.86 C31.31 126.08, 65.98 89.38, 142.66 0.21 M-0.94 169.98 C56.36 105.03, 115.04 38.89, 148.77 0.83 M0.68 170.65 C45.83 117.13, 91.77 64.2, 148.29 -0.01 M4.05 172 C60.76 109.41, 112.01 50.45, 152.84 0.86 M6.33 171.24 C45 124.45, 85.63 78.51, 153.84 -0.19 M10.13 168.5 C55.03 116.62, 104.34 62.18, 158.66 -1.02 M12 170.32 C50.9 124.7, 90.25 78.13, 159.13 0.32 M15.11 170.58 C62.39 117.19, 111.67 62.95, 165.7 -0.47 M15.9 170.17 C67.15 112.66, 116.67 54.73, 165.22 -0.55 M21.64 169.06 C70.18 117.92, 116.41 61.91, 170.51 -1.44 M22.63 170.29 C59.35 125.33, 99 80.47, 168.8 0.55 M26.07 170.5 C72.35 117.31, 118.02 65.39, 176.24 0.97 M27.26 170.52 C85.8 103.61, 143.73 36.8, 175.52 -0.05 M31.33 169.73 C68.02 126.25, 107.2 82.46, 181.43 1.7 M32.14 170.51 C78.7 115.52, 126.77 60.94, 180.63 0.28 M35.75 168.76 C83.68 117.18, 130.65 65.44, 186.07 -0.63 M37.75 171.08 C83.15 116.17, 128.14 63.68, 185.8 -0.26 M42.54 169.86 C81.6 121.96, 122.92 77.67, 190.68 1.52 M42.44 170.29 C99.66 106.54, 154.4 43.61, 190.01 0.24 M48.57 170.48 C78.03 137.22, 109 101.72, 195.53 0.51 M48.74 169.95 C93.29 119.97, 136.45 69.63, 196.06 0.08 M53.23 170.83 C105.31 109.98, 159.77 46.93, 199.67 -0.68 M53.75 170.75 C98.71 119.88, 144.53 68.43, 201.53 0.46 M57.34 171.81 C109.22 112.99, 158.49 57.19, 207.08 1.18 M58.83 169.79 C101.51 119.17, 145.63 70.4, 206.95 -0.17 M62.03 169.63 C96.37 133.17, 128.01 93.96, 211.93 1.08 M63.72 170.13 C109.29 117.94, 153.79 66.9, 211.88 0.37 M70.75 170.17 C118.54 111.65, 167.98 56.43, 218.47 -0.56 M69 170.84 C120.45 110.52, 173.41 51.21, 218.02 -1.06 M74.61 170.23 C104.59 134.06, 134.52 99.53, 222.87 0.38 M73.84 169.99 C115.56 121.13, 158.15 72.83, 221.8 0.44 M79.06 171.13 C123.35 119.67, 169.39 69.12, 229.62 -1.94 M79.12 171.04 C118.12 127.74, 153.8 86.38, 227.78 0.16 M85.74 170.25 C138.23 110.4, 192.85 48.43, 233.45 -1.08 M85.18 170.49 C129.45 119.03, 172.75 68.18, 232.68 0.54 M91.8 171.24 C122.69 135.94, 150.77 102.27, 238.47 1.87 M89.74 169.36 C133.34 121.57, 174.44 72.73, 238.13 1.18 M95.74 172.06 C124.6 136.11, 154.34 101.42, 243.36 -0.32 M96.01 171.15 C140.84 119.42, 186.44 67.57, 243.12 -0.16 M100.1 171.79 C146.72 120.89, 189.59 70.3, 250.53 0.99 M102.03 169.29 C149.74 117.49, 196.19 63.93, 248.46 0.23 M107.08 168.99 C150.22 117.44, 195.76 64.84, 254.43 0.1 M106.98 170.85 C137.98 134.71, 170.17 97.96, 254.09 0.34 M110.92 168.48 C157.64 119.13, 200.11 68.45, 257.74 -0.62 M112.65 170.25 C152.23 122.15, 192.34 75.8, 260.26 0.6 M117.52 169.41 C164.77 112.78, 216.47 54.92, 263.77 -1.11 M117.66 171.25 C149.85 133.2, 183.8 93.58, 265.47 -0.04 M123.1 168.6 C154.82 133.74, 188.31 96.64, 268.59 1.55 M122.36 169.29 C159.66 124.63, 197.35 81.72, 269.43 0.71 M126.96 169.23 C161.42 129.63, 196.71 90.11, 274.07 -0.55 M128.26 169.96 C171.22 118.57, 215.64 67.53, 276.09 -0.61 M134.17 170.43 C181.47 112.95, 230.84 56.69, 279.97 -0.45 M132.56 169.68 C172.31 126.15, 210.87 81.69, 281.14 0.11 M137.44 169.09 C168.62 132.36, 199.55 95.38, 286.72 -0.35 M137.91 170.76 C181.87 119.49, 226.17 68.98, 287.11 0.4 M143.82 170.09 C197.79 108.02, 254.16 42.6, 290.93 0.45 M143.55 170.62 C177.27 130.83, 209.99 91.31, 290.86 -0.63 M149.72 170.9 C201.41 106.97, 256.18 45.52, 298.42 -1.38 M148.12 169.98 C180.16 132.57, 213 95.43, 296.93 -1.02 M153.88 168.44 C209.15 103.44, 267.07 41.75, 302.65 -1.12 M154.58 170.68 C184.89 134.54, 215.26 100.16, 301.61 0.18 M159.84 171.03 C191.46 131.02, 226.28 92.98, 307.99 0.21 M159.31 170.13 C216.34 105.26, 272.07 41.51, 308.01 -0.96 M164.24 171.8 C200.46 129.7, 239.59 84.55, 311.59 1.05 M164.88 170.22 C219.03 105.18, 275.99 41.49, 311.87 0.11 M169.41 170.54 C209.79 124.62, 248.87 80.12, 319.82 -0.73 M170.82 169.66 C202.88 134.56, 233.57 97.2, 318.31 0.43 M175.45 171.79 C227.56 109.51, 282.4 47.76, 323.24 0.75 M174.6 170.16 C213.88 128.45, 251.35 85.31, 322.5 -0.46 M182.19 171.77 C239.57 106.3, 293.9 40.65, 330.18 -1.21 M180.96 169.81 C225.66 118.28, 271.28 66.57, 328.15 -1.08 M184.85 170.45 C237.9 109.77, 287.6 51.11, 334.92 -0.11 M185.95 171.31 C222.59 125.93, 262.17 81.06, 333.28 -0.07 M190.37 171.51 C245.79 109.35, 298 47.83, 340.9 -0.37 M192.06 169.46 C242.61 110.58, 292.76 52.4, 340.19 -0.08 M195.96 170.35 C249.06 110.27, 301.33 49.93, 346.1 1.67 M195.62 171.37 C249.93 110.14, 303.46 48.52, 344.64 0.37 M201.99 171.25 C240.18 126.69, 278.29 80.97, 348.43 1.25 M201.98 170.27 C251.79 110.76, 303.91 50.88, 350.26 0.38 M207.63 171.91 C260.93 107.25, 316.32 44.16, 354.97 0.32 M206.07 170.82 C240.4 132.33, 274.35 93.15, 355.93 -0.69 M213.52 170.33 C245.94 132.17, 281.89 93.76, 360.2 -1.31 M212.65 169.82 C250.72 127, 289.45 82.45, 360.19 -0.5 M217.38 169.97 C254.66 126.32, 294.95 81.02, 365.27 1.6 M216.96 171.22 C259.45 122.94, 300.67 75.93, 365.43 -0.3 M223.57 169.4 C261.62 124.54, 301.81 76.52, 370.1 0.87 M223.21 170.23 C276.35 111.68, 327.67 50.52, 370.49 -0.2 M228.35 170.96 C287.49 102.16, 346.06 35.77, 376.07 -1.13 M228.63 170.06 C264.43 129.6, 300.11 88.42, 377.21 0.41 M232.9 170.38 C273.18 125.5, 314.01 77.18, 381.66 0.04 M233.44 169.5 C265.1 133.6, 296.89 96.12, 381.29 0.7 M238.91 168.87 C294.36 104.47, 352.14 38.92, 388.53 0.48 M238.6 171.04 C293 108.12, 346.76 45.99, 387.42 -0.32 M244.41 169.61 C274.56 136.72, 303.18 100.64, 393.71 0.06 M243.76 170.16 C299.43 105.65, 354.6 40.47, 391.6 0.96 M249.62 169.26 C298.99 114.64, 348.06 58.51, 399.13 -1.08 M250.19 170.35 C285.93 129.78, 321.18 89.46, 397.97 0.25 M256.28 171.6 C300.09 121.12, 341.87 69.77, 403.81 -0.78 M255.25 170.65 C293.4 123.53, 334.63 78.66, 402.82 0.43 M259.74 168.71 C294.19 133.94, 326.06 96.94, 409.92 -1.74 M260.5 170.41 C315.82 105.84, 369.5 43.56, 408 -0.93 M265.42 168.4 C304.01 127.68, 341.61 82.65, 411.62 0.5 M266.18 170.51 C305.22 124.59, 344.63 78.42, 413.54 0.03 M270.66 171.92 C313.36 123.05, 352.91 72.53, 418.22 0.41 M270.71 169.56 C328.22 103.1, 386.18 37.82, 419.02 -0.7 M277.72 170.51 C319.74 122.52, 359.79 73.84, 422.42 1.33 M275.48 170.31 C315.68 123.65, 355.03 77.57, 424.74 0.02 M282.5 171.16 C321.12 126.54, 359.05 83.88, 430.36 -1.7 M280.92 170.65 C317.44 128.96, 354.06 88.64, 429.73 0.03 M286.86 169.89 C319.85 132.04, 352.01 93.2, 433.31 0.41 M285.49 170.77 C329.43 123.72, 371.87 75.55, 434.59 0.04 M290.65 170.3 C343.63 113.91, 392.71 56.89, 439.79 1.37 M291.88 170.73 C327.09 130.16, 360.03 91.52, 438.17 1.23 M297.48 171.25 C329.6 131.91, 365.32 95.29, 437.61 7.98 M296.01 171.41 C333.14 128.26, 370.04 85.72, 439.42 7.58 M302.96 171.05 C327.99 136.74, 354.9 106.97, 438.95 14.18 M303.3 169.62 C349.62 116.56, 397.94 63.93, 438.16 13.18 M307.52 169.03 C349.77 124.96, 390.84 74.99, 438.07 20.39 M307.26 169.87 C342.25 129.66, 379.18 88.14, 440.05 19.47 M312.06 169.37 C361.14 113.44, 410.86 55.32, 439.58 26.47 M313.77 169.99 C354.08 123.72, 396.15 77.15, 439.69 26.01 M317.69 172.51 C361.92 122.73, 401.32 71.95, 438.83 32.17 M317.17 171.25 C353.57 128.56, 392.17 85.85, 438.68 32.37 M323.71 169.92 C364.11 124.68, 404.6 78.62, 439.23 35.63 M324.14 170.46 C349.33 141.78, 375.89 112.16, 438.44 37.71 M327.47 170.08 C364.33 129.96, 400.83 90.97, 440.03 41.95 M328.19 170.87 C360.79 133.27, 393.09 95.92, 439.29 43.24 M334.59 171.31 C370.35 127.52, 408.37 85.42, 437.77 49.04 M334.37 170.52 C357.52 143.21, 381.18 116.67, 438.57 49.46 M338.73 170.8 C361.9 142.55, 383.96 117.09, 438 56.66 M339.53 170.82 C365.04 141.02, 391.24 110.58, 438.93 56.72 M343.83 169.54 C380.26 129.17, 417.93 88.21, 436.93 60.18 M345.07 170.99 C367 143.95, 388.34 118.48, 438.41 62.45 M351.87 169.4 C370.77 147.48, 389.9 124.51, 440.38 67.79 M349.19 170.57 C384.71 131.51, 418.57 91.65, 439.96 67.88 M357.08 170.09 C379.56 139.73, 405.74 112.34, 438.9 73.79 M355.63 169.93 C378.34 144.47, 402.71 116.87, 439.02 74.86 M361.76 170.14 C382.3 145.03, 402.51 121.51, 441.3 80.32 M359.92 170.78 C390.73 136.13, 419.08 103.84, 439.52 79.03 M366.46 171.95 C382.28 150.71, 398.19 135.04, 438.42 86.37 M366.15 170.65 C389.26 143.91, 413.61 116.1, 438.24 86.38 M369.78 170.75 C387.42 151.22, 405.11 133.45, 440.73 93.51 M371.21 169.41 C387.26 153.85, 402.84 135.33, 438.81 92.49 M378.6 171.62 C399.94 144.89, 418.86 121.17, 437.36 99.16 M377.53 169.73 C392.46 150.96, 408.57 133.07, 439.31 99.22 M383.83 170.48 C396.91 152, 410.95 134.18, 439.12 105.84 M381.32 169.65 C398.69 151.09, 416.54 130.61, 439.77 105.57 M386.65 171.08 C407.48 149.18, 423.16 128.7, 440.11 110.9 M387.36 168.99 C399.74 155.18, 414.08 140.51, 440.24 110.81 M394.28 170.06 C409.38 150.95, 424.99 133.14, 437.45 115.55 M393.23 169.93 C404.2 156.97, 417.03 142.49, 439.11 117.09 M397.56 170.6 C413.76 154.37, 429.69 133.16, 436.9 122.59 M397.37 170.23 C408.09 158.53, 419.76 144.55, 439.11 122.6 M402.01 171.74 C410.43 160.57, 419.11 154.57, 439.85 129.64 M402.69 169.96 C414.31 158.74, 423.58 145.89, 438.95 128.37 M406.8 169.64 C416.03 160.37, 425.17 153.94, 438.42 134.46 M408 170.28 C420.44 156.38, 431.89 143.05, 438.74 135.02 M414.41 171.27 C422.29 160.59, 433.35 149.07, 440.96 140.6 M414.2 170.67 C420.98 160.5, 429.7 152.02, 440.16 139.98 M418.33 171.46 C424.42 162.03, 430.19 157.8, 439.89 146.5 M418.45 171.45 C425.31 163.55, 432.39 154.42, 438.7 148.01 M425.36 169.88 C427.32 165.78, 435.11 161.19, 437.24 155.18 M425 170.25 C429.34 164.64, 435.15 156.62, 439.72 154.48 M430.83 171.68 C431.11 168, 433.67 165.54, 439.59 159.42 M429.37 170.56 C432.39 167.81, 434.7 165.67, 439.82 159.83 M435.12 170.22 C435.93 168.69, 437.97 167.8, 438.6 166.16 M435.08 170.17 C435.96 169.14, 436.97 167.81, 439.1 165.58" stroke="#e9ecef" stroke-width="0.5" fill="none"></path><path d="M0.04 -0.48 C162.69 1.15, 326.72 1.16, 437.74 0.22 M-0.2 0.26 C155.34 -1.11, 311.66 -1.82, 438 -0.27 M437.85 0.9 C435.37 63.07, 436.9 129.83, 436.62 169.1 M438.06 -0.62 C437.54 48.96, 437.13 97.46, 438.23 169.92 M438.31 170.11 C335.49 170.77, 235.71 170.87, 0.03 169.35 M438.4 170.31 C317.92 167.98, 198.37 167.98, 0.21 169.52 M0.3 171.18 C-2.79 132.14, -2.22 91.6, 0.61 -0.94 M-0.26 170.58 C-0.9 117.84, -1.11 64.4, 0.81 -0.33" stroke="#000000" stroke-width="1" fill="none"></path></g><g transform="translate(567.5 1230.5030337904675) rotate(0 52.5 22.5)"><text x="0" y="0" font-family="Virgil, Segoe UI Emoji" font-size="36px" fill="#000000" text-anchor="start" style="white-space: pre;" direction="ltr" dominant-baseline="text-before-edge">Engine</text></g><g transform="translate(580 1297.5030337904675) rotate(0 41.670013427734375 22.5)"><text x="0" y="0" font-family="Virgil, Segoe UI Emoji" font-size="36px" fill="#3bc9db" text-anchor="start" style="white-space: pre;" direction="ltr" dominant-baseline="text-before-edge">Jinja</text></g><g stroke-linecap="round" transform="translate(141 1030.5030337904675) rotate(0 219 50)"><path d="M0 0 C0 0, 0 0, 0 0 M0 0 C0 0, 0 0, 0 0 M-1 7.02 C1.6 4.91, 4.17 2, 4.22 0.15 M-0.38 6.21 C0.92 4.96, 2.34 4.01, 4.77 0.6 M-0.58 10.79 C2.91 8.05, 7.29 5.03, 9.52 -0.3 M0.65 12.68 C3.65 7.62, 5.99 5.01, 10.75 0.2 M-0.36 20.32 C5.8 9.5, 12.98 3.62, 14.24 -0.77 M-0.35 18.2 C4.59 12.91, 9.79 7.28, 16.33 0.54 M2.05 23.93 C7.46 14.75, 14.07 6.04, 22.92 1.71 M0.67 23.74 C5.34 18.02, 9 13.69, 20.54 -0.52 M0.49 31.66 C8.65 18.42, 18.69 7.18, 28.19 0.99 M0.78 30.01 C7.5 22.47, 15.05 13.41, 26.64 0.11 M1.58 35.41 C6.08 26.55, 15.01 17.8, 33.24 -1.16 M-0.71 37.67 C9.55 25.98, 19.93 13.46, 32.39 -0.75 M-0.41 41.95 C10.53 31.36, 20.32 17.98, 35.29 1.86 M-0.55 42.16 C10.13 29.73, 21.78 18.15, 36.38 0.09 M-0.49 50.15 C15.15 31.54, 27.06 19.02, 43.84 -1.49 M-0.05 48.56 C16.24 30.83, 32.38 10.76, 42.71 0.63 M-1.43 52.69 C19.95 33.62, 35.92 14.3, 48.42 0.08 M1.04 54.73 C15.22 38.03, 28.42 20.94, 47.29 0.2 M-1.94 61.14 C20.82 37.56, 38.62 16.09, 52.85 1.71 M0.75 61.87 C15.48 43.83, 29.54 26.74, 52.6 -0.06 M0.89 67.63 C21.67 42.35, 48.22 12.79, 58.97 -0.61 M-0.99 67.77 C19.36 45.74, 36.43 23.47, 57.88 -0.64 M-1.37 74.13 C12.88 57.74, 29.3 41.82, 64.91 -1.06 M-0.83 73.53 C15.99 54.52, 31.36 36.36, 63.95 0.75 M-1.49 77.74 C22.82 55.95, 44.68 28.01, 68.83 1.03 M-0.47 80.35 C13.26 63.9, 27.78 46.83, 69.39 -0.24 M1.09 84.36 C19.71 65.47, 34.76 43.4, 75.15 -1.82 M-0.54 84.74 C17.37 65.83, 33.5 46.81, 75.37 -0.14 M-0.09 89.78 C15.61 72.88, 36.63 50.85, 78.36 -0.24 M-0.41 91.05 C30.03 56.8, 58.14 24.5, 79.81 0.86 M-0.83 97.33 C21.16 72.96, 43.99 49.45, 85.2 0.94 M-0.04 98.69 C24.02 69.72, 48.8 40.64, 84.23 -0.64 M2.68 100.97 C27.89 72.39, 48.09 46.47, 90.46 -0.2 M1.51 100.65 C32.07 66.28, 62.05 33.27, 89.9 -0.66 M6.28 101.47 C34.92 69.52, 63.38 35.9, 95.2 -1.8 M6.95 101.26 C25.6 79.55, 43.99 57.02, 96.66 0.55 M10.86 101.51 C37.47 75.57, 61.64 45.48, 102.51 -1.1 M12.32 102.69 C44.83 63.68, 78.4 24.44, 101.14 -0.87 M17.22 101.8 C37.66 77.96, 53.4 60.72, 107.78 -1.55 M18.33 100.67 C46.5 67.28, 76.35 34.68, 105.53 0.01 M21.86 102.2 C53.4 66.85, 80.44 32.59, 110.4 0.3 M22.67 101.03 C46.7 76.32, 69.04 48.38, 111.79 -0.55 M26.58 103.34 C61.91 63.65, 89.63 28.33, 115.41 0.45 M28.07 100.89 C52.95 70.32, 79.45 42.33, 115.79 0.29 M34.18 103.78 C54.44 77.63, 75.23 54.25, 120.49 0.75 M32.54 101.25 C60.68 69.31, 88.5 38.57, 122.83 0.71 M38.75 100.84 C62.83 73.58, 88.28 43.08, 127.03 2.17 M38.16 101.37 C60.57 76.18, 84.43 49.65, 127.15 0.97 M45.43 103.74 C63.11 80.13, 82.38 61.47, 133.69 -1.51 M43.29 101.4 C74.1 67.13, 103.3 32.5, 132.02 0.63 M48.61 102.52 C81.38 65.26, 111.96 27.74, 136.14 1.36 M49.35 100.79 C77.66 67.69, 105.77 36.08, 138.05 1.11 M55.74 101.08 C90.14 60.99, 123.41 24.47, 141.36 1.25 M55.04 100.82 C81.36 70.11, 110.14 38.82, 143.86 0.13 M61.55 102.15 C86.18 74.2, 107.35 44.24, 147.35 0.51 M61.13 101.09 C86.58 70.67, 112.04 41.58, 148.37 0.27 M63.77 100.3 C99.02 63.88, 130.1 23.94, 153.4 -1.71 M64.67 102.06 C93.97 69.99, 121.87 38.8, 153.58 -0.59 M69.44 102.95 C100.42 67.99, 131.01 30.33, 159.81 -0.38 M71.76 101.47 C100.23 66.43, 130.97 32.79, 158.74 -0.72 M74.62 103.37 C98.57 74.66, 121.63 50.4, 166.18 0.34 M75.79 100.94 C106.69 67.37, 135.99 32.26, 165.18 -0.09 M82.67 101.67 C114.4 60.66, 148.48 23.28, 171.14 0.18 M82.22 100.37 C109.41 69.79, 137.95 37.63, 168.52 0.2 M87.95 101.8 C117.17 65.8, 149.08 28.95, 174.59 -0.35 M86.78 102.53 C115.8 67.34, 144.82 33.12, 175.42 0.32 M94.12 100.55 C118.26 71, 143.72 45.56, 181.48 1.17 M92.27 101.48 C111.79 79.31, 130.28 57.12, 179.83 0.34 M97.88 100.57 C124.27 68.45, 152.41 37.22, 184.01 -2.04 M96.76 101.14 C128.55 65.7, 158.76 31.28, 185.78 0.59 M103.18 99.34 C123.59 82.83, 138.32 60.84, 189.45 -0.9 M102.39 101.73 C133.7 64.36, 166.45 28.23, 191.55 0.28 M109.04 102.19 C128.63 77.75, 148.95 52.48, 194.33 -1.49 M107.59 102.34 C141.55 66.03, 172.94 28.08, 196.51 -0.1 M111.73 99.27 C145.77 63.46, 180.25 20.71, 200.2 -0.05 M113.84 101.33 C150.14 60.71, 184.32 20.6, 201.3 -0.18 M116.57 102.63 C144.91 72.73, 168.58 44.21, 207.92 -1.96 M117.91 100.94 C144.75 73.71, 169.15 44.26, 206.61 0.7 M124.14 103.1 C151.73 69.42, 185.32 35.27, 213.36 -0.78 M124.61 101.71 C148.59 71.18, 174.78 42.04, 211.44 0.04 M130.09 103.39 C158.25 69.44, 186.87 40.02, 217.68 -1.21 M129.07 101.02 C158.96 66.89, 190.84 30.28, 217.83 -1.33 M134.66 103.81 C156.52 77.56, 176.92 50.53, 223.06 1.9 M134.8 102.32 C162.76 66.36, 193.73 33.03, 223.1 -0.74 M137.75 103.47 C163.63 75.83, 183.86 51.8, 226.97 0.52 M139.21 101.89 C166.89 70.07, 195.29 39.29, 228.65 -1.23 M145.97 101.64 C176.54 62.76, 210.02 23.38, 233.92 -1.52 M145.2 101.59 C175.9 65.07, 208.23 29.03, 234.16 -0.97 M150.18 103.36 C173.48 74.18, 197.26 45.95, 237.04 1.2 M151.19 102.11 C171.79 76.71, 192.95 52.49, 237.68 -0.07 M153.29 100.58 C177.93 74.87, 201.72 46.83, 245.09 0.95 M155.41 101.47 C180.8 71.66, 206.43 41.74, 243.22 0.17 M160.5 101.05 C187.29 72.07, 211.52 42.68, 249.57 2.09 M160.63 101.51 C192.51 63.7, 225.34 27.31, 248.22 0.08 M167.02 101.38 C196.02 70.88, 223.61 36.14, 254.2 -1.19 M166.43 102.4 C183.83 80.44, 200.95 60.31, 253.66 0.76 M172.35 100.03 C191.89 77.12, 212.65 55.12, 258.79 0.16 M171.91 101.14 C187.92 79.8, 206.07 60, 260.35 0.68 M176.03 102.28 C199.16 79.84, 216.07 56.47, 265.38 -0.96 M176 102.07 C204.5 69.59, 230.63 39, 265.61 0.11 M183.87 101.29 C209.69 69.27, 238.56 36.76, 270.08 1.18 M182.15 101.33 C202.42 78.87, 221.81 58.11, 269.58 -0.34 M187.71 103.03 C216.7 63.3, 248.27 28.74, 277.26 -1.86 M186.62 101.41 C214.12 71.37, 240.02 40.58, 275.93 0.78 M191.69 103.32 C216.28 74.91, 242.18 44.6, 279.33 0.37 M193.21 101.63 C226.6 62.5, 259.67 24.95, 280.15 0.22 M195.95 100.86 C227.15 69.06, 258.33 33.96, 286.98 -1.89 M197.53 102.64 C218.86 79.07, 239.32 53.7, 286.25 0.59 M202.93 102.13 C224.15 74.49, 247.08 49.7, 292.92 -1.52 M203.72 100.88 C221.38 80.43, 239.32 58.04, 291.06 0.8 M209.11 102.51 C236.18 69.8, 261.61 41.66, 298.16 -1.57 M208.73 101.17 C233.99 73.37, 258.92 43.7, 296.94 0.6 M215.24 103.19 C238.12 72.19, 266.22 39.47, 303.74 1.75 M215.05 101.13 C242.53 68.33, 272.18 35.03, 302.05 1.09 M218.09 100.24 C255.43 62.51, 290.08 22, 308.95 0.09 M218.97 101.71 C250.37 66.7, 280.41 31.65, 307.11 -0.86 M224.74 101.51 C255.26 63.43, 285.78 29.19, 311.15 1.93 M225.32 101.7 C251.32 70.94, 276.67 41.4, 311.62 0.02 M228.27 99.77 C259.37 69.17, 287.99 35.63, 319.97 1.59 M229.74 102.2 C250.21 78.99, 270.12 57.8, 318.64 -0.23 M234.07 101.57 C252.9 81.11, 273.22 60.29, 325.06 0.26 M235.41 101.15 C253.19 79.85, 271.53 60.33, 323.01 -0.2 M239.53 100.36 C277.33 61.14, 310.32 19.84, 330.36 -1.07 M241.29 101.83 C264.24 73.31, 289.38 46.03, 328.15 -0.69 M243.7 102.13 C274.49 68.97, 305.68 32.51, 333.84 -0.53 M246.27 102.07 C266.01 78, 287.09 53.57, 334.23 -0.14 M250.26 102.74 C271.82 76.96, 292.97 52.9, 337.75 1.58 M250.62 101.03 C283.13 64.59, 315.4 28.47, 339.01 -0.18 M254.58 101.16 C280.77 72.14, 307.61 41.31, 344.37 -0.18 M255.59 101.99 C285.15 65.44, 316.57 30.24, 344.02 0.89 M261.33 101.16 C291.8 68.84, 319.55 33.94, 349.61 1.31 M261.46 101.51 C286.72 73.74, 311.73 45.08, 348.68 1.37 M268.19 100.4 C291.73 72.78, 318.74 42.07, 354.03 -0.96 M265.83 102.01 C299.62 62.71, 334.56 23.21, 355.86 0.85 M272.13 103.36 C294.35 76.59, 316.62 51.02, 361.89 1.09 M272.33 102.2 C303.83 67.51, 333.89 31.62, 359.36 1.02 M277.16 102.37 C300.5 74.87, 319.09 53.24, 366.72 0.37 M276.87 101.67 C306.04 69.62, 336.18 36.03, 366.02 0.9 M284.55 102.58 C300.66 81.93, 317.82 58.34, 371.08 -0.34 M282.45 101.3 C301.21 80.19, 321.25 58.51, 370 -0.65 M288.62 103.03 C317.68 68.98, 346.47 35.85, 376.81 0.56 M287.33 101.81 C314.08 73.17, 338.65 42.72, 375.49 -0.49 M294.96 101.57 C320.45 66.94, 350.45 34.89, 380.79 0.53 M293.83 102.24 C315.54 77.91, 337.06 52.42, 380.97 -0.59 M300.2 99.9 C332.42 63.62, 364.44 25.99, 385.18 1.86 M298.58 102.48 C324.83 73.45, 349.99 44.01, 388 0.36 M302.25 100.56 C324.5 80.12, 340.75 59.16, 393.17 0.68 M303.22 101.72 C333.79 67.45, 363.09 32.72, 391.4 -0.48 M308.04 99.95 C337.71 70.27, 367.09 39.06, 399.22 -0.01 M308.73 101 C334.66 73.03, 360.88 42.76, 398.07 0.39 M315.8 101.3 C343.7 71.58, 368 38.79, 400.84 -1.39 M314.11 101.67 C342.29 70.4, 367.92 41.14, 403.16 -0.74 M318.77 99.69 C354.2 63.46, 384.48 25.51, 408.81 0.21 M320.67 101.94 C355.11 61.4, 388.2 22.03, 408.92 -0.21 M323.5 103.03 C354.53 64.34, 385.29 31.62, 414.94 -1.69 M324.75 101.3 C349.95 72.31, 377.26 42.56, 412.87 -0.56 M329.53 101.1 C362.95 60.98, 398.32 24.16, 418.33 1.26 M330.01 101.11 C361.22 63.56, 393.97 26.39, 418.57 0 M335.72 102.5 C366.87 63.69, 399.36 29.99, 425.11 1.26 M336.13 101.03 C369.13 64.01, 401.65 24.68, 423.9 0.12 M339.94 99.68 C370.94 66.26, 398.89 35.82, 430.67 -0.63 M341.12 101.58 C372.98 64.22, 406 27, 429.76 -0.28 M345.35 101.94 C366.89 78.67, 386.15 58.59, 435.47 -1.53 M346 100.57 C375.97 67.58, 405.27 34.27, 434.36 0.61 M352.14 100.42 C370.79 79.8, 388.43 59.05, 437.9 1.8 M351.12 101.67 C373.59 75.92, 394.57 51.28, 438.66 0.4 M355.12 101.85 C381.5 75.38, 402.72 48.86, 438.75 5.22 M356.2 101.61 C382.88 71.98, 407.52 41.97, 439.24 6.29 M362.76 101.8 C389.67 70.85, 417.2 40.54, 440.02 12.86 M361.89 100.95 C391.51 66.01, 422.38 31.8, 439.66 12.28 M368.22 101.96 C384.03 86.3, 395.51 68.73, 437.4 17.98 M367.29 102.83 C390.97 74.9, 415.2 47.25, 439.45 19.46 M370.93 99.83 C392.17 79.48, 412.54 54.54, 440.61 26.71 M372.04 102.22 C393.17 77.32, 412.47 54.43, 438.93 25.24 M376.38 101.78 C394.73 81.37, 413.49 63.71, 438.99 31.73 M378.6 102.42 C400.15 76.51, 422.44 50.33, 439.31 32.64 M382.3 100 C401.77 81.58, 417.25 58.7, 440.55 37.59 M382.96 101.56 C397.07 87.5, 407.71 73.4, 440.22 36.98 M386.48 101.54 C405.03 83.1, 420.19 66.51, 438.96 41.95 M388.89 101.09 C404.84 83.73, 420.34 66.29, 439.26 44.66 M392.98 101.29 C408.08 84.82, 427.07 67.4, 439.21 49.26 M394.75 102.28 C407.54 87.41, 419.66 71.28, 440.04 48.42 M399.9 102.99 C412.56 85.46, 425 70.79, 437.29 55.87 M399.65 102.76 C415.07 83.69, 430.37 65.09, 438.49 55.83 M405.61 100.2 C415.55 87.23, 430.11 75.02, 437.83 63.7 M404.29 100.95 C418.35 87.1, 430.94 70.65, 438.95 62.53 M408.53 101.36 C417.64 89.05, 429.77 79.91, 441.11 69.51 M409.13 102.64 C419.69 90.07, 429.83 77.74, 439.65 66.97 M417.34 102.72 C420.44 93.91, 428.04 89.61, 438.11 74.15 M415.19 101.39 C423.06 92.5, 431.89 83.47, 438.28 73.22 M418.75 101.41 C424.71 94.18, 432.62 88.27, 440.06 80.34 M420.31 101.15 C426.01 96.22, 429.41 91.42, 440.1 80.15 M427.77 100.35 C429.9 97.97, 436.24 90.76, 438.26 85.61 M425.85 100.66 C428.97 97.29, 432.41 93.86, 440.12 85.96 M431.26 101.5 C432.57 100.14, 434.19 97.46, 438.11 92.33 M430.97 101.88 C433.48 98.79, 435.82 96.65, 439.12 93.12 M436.32 101.46 C437.56 100.05, 437.9 99.43, 439.34 98.6 M436.78 101.26 C437.29 100.61, 437.63 99.92, 439.4 98.37" stroke="#99e9f2" stroke-width="0.5" fill="none"></path><path d="M0.45 0.46 C92.42 -0.73, 185.72 0.23, 437.27 -0.4 M0.5 0.12 C94.46 -0.43, 189.66 -0.5, 438.41 -0.05 M438.21 1.3 C436.58 29.35, 435.93 56.94, 438.26 100.25 M437.57 0.6 C438.55 31.73, 439.04 63.16, 438.05 99.8 M438.4 99.98 C273.86 98.01, 111.26 98.19, 0.23 99.05 M437.53 100.2 C282.99 97.55, 128.85 97.83, 0.21 99.7 M-0.99 101.68 C-0.93 78.4, 1.39 60.7, 0.41 -0.83 M0.67 99.24 C0.74 76.64, 1.56 51.64, 0.41 -0.22" stroke="#000000" stroke-width="1" fill="none"></path></g><g stroke-linecap="round" transform="translate(679 1030.5030337904675) rotate(0 219 50)"><path d="M0 0 C0 0, 0 0, 0 0 M0 0 C0 0, 0 0, 0 0 M0.45 6.34 C1.53 3.91, 3.08 1.69, 5.65 1.07 M-0.1 6.26 C1.08 4.78, 1.85 3.84, 4.7 0.18 M0.52 12.98 C3.22 6.76, 7.46 2.13, 12.18 0.53 M0.75 11.67 C2.94 9.22, 5.89 5.51, 10.94 -0.18 M1.71 16.97 C1.99 12.84, 6.89 8.74, 16.97 -0.73 M-0.58 19.23 C4.42 13.5, 9.49 7.1, 16.12 -0.32 M-0.28 23.51 C6.45 17.82, 11.87 9.47, 19.67 1.54 M-0.42 23.73 C5.68 16.37, 12.88 9.92, 20.76 -0.23 M-0.37 31.71 C10.1 19.3, 16.76 12.81, 27.57 -1.06 M0.08 30.12 C9.96 19.66, 19.87 6.75, 26.43 1.06 M-1.96 35.01 C13.68 22.64, 23.91 9.92, 32.81 -0.25 M0.51 37.04 C10.21 25.74, 18.8 13.95, 31.68 -0.13 M-1.81 42.7 C15.09 25.98, 27.01 11.26, 36.58 2.14 M0.88 43.43 C10.84 30.65, 20.27 18.89, 36.33 0.37 M1.02 49.19 C15.45 31.04, 35.79 8.61, 43.36 -0.94 M-0.87 49.33 C14.36 33.13, 26.42 16.62, 42.27 -0.97 M-1.25 55.69 C9.52 43.54, 22.3 31.81, 48.64 -0.63 M-0.71 55.1 C12.04 40.83, 23.31 27.4, 47.67 1.18 M-1.36 59.3 C17.91 43.14, 34.78 20.96, 53.21 0.71 M-0.34 61.92 C10.17 49.1, 21.5 35.7, 53.77 -0.56 M0.56 66.68 C15.41 52.24, 26.53 34.67, 58.88 -1.39 M-1.07 67.06 C13.24 52.22, 25.78 37.34, 59.09 0.29 M0.04 71.34 C12.3 58.42, 29.75 40.5, 62.75 -0.57 M-0.29 72.61 C24.36 45.11, 46.72 19.42, 64.2 0.53 M-0.7 78.89 C17.03 59.37, 35.73 40.61, 68.93 1.37 M0.09 80.25 C19.38 56.75, 39.49 33.03, 67.96 -0.21 M0.84 84.79 C22.29 60.45, 38.77 38.81, 74.85 -0.53 M-0.33 84.47 C25.48 55.54, 50.8 27.89, 74.28 -0.99 M-0.81 91.33 C25.01 62.77, 50.57 32.49, 78.93 -1.37 M-0.14 91.12 C16.57 71.75, 33 51.47, 80.39 0.98 M-1.48 97.41 C24.24 72.47, 47.52 43.4, 86.9 -1.43 M-0.02 98.59 C31.24 60.98, 63.57 23.18, 85.52 -1.19 M1.6 101.48 C21.91 77.8, 37.51 60.71, 91.5 -1.12 M2.71 100.34 C30.67 67.21, 60.3 34.86, 89.25 0.44 M6.25 101.87 C37.78 66.52, 64.83 32.27, 94.78 -0.02 M7.06 100.7 C31.08 75.99, 53.42 48.05, 96.17 -0.88 M10.31 103.77 C45.87 63.81, 73.82 28.22, 99.79 0.12 M11.8 101.32 C36.87 70.52, 63.56 42.31, 100.18 -0.03 M18.56 103.45 C38.82 77.3, 59.61 53.92, 104.88 0.43 M16.92 100.92 C45.07 68.99, 72.88 38.24, 107.22 0.39 M22.48 101.27 C46.74 73.8, 72.37 43.09, 111.42 1.84 M21.89 101.8 C44.46 76.41, 68.48 49.69, 111.53 0.64 M29.81 103.42 C47.35 79.96, 66.5 61.46, 117.41 -1.08 M27.67 101.08 C58.26 67.06, 87.24 32.69, 115.75 1.06 M32.34 102.95 C65.34 65.41, 96.16 27.62, 120.52 1.03 M33.08 101.22 C61.6 67.88, 89.91 36.02, 122.43 0.78 M40.13 100.76 C74.27 60.96, 107.29 24.73, 125.09 1.68 M39.43 100.49 C65.54 70.02, 94.11 38.96, 127.58 0.56 M45.27 102.58 C70.09 74.41, 91.44 44.24, 131.73 0.19 M44.86 101.52 C70.5 70.87, 96.16 41.56, 132.76 -0.06 M48.15 99.97 C83.16 63.84, 113.99 24.18, 137.12 -1.28 M49.05 101.73 C78.14 69.9, 105.84 38.95, 137.3 -0.16 M53.16 103.38 C84.37 68.16, 115.19 30.23, 144.19 -0.71 M55.48 101.9 C84.18 66.59, 115.14 32.7, 143.12 -1.05 M59.01 103.05 C82.79 74.52, 105.68 50.46, 149.91 0.77 M60.18 100.61 C90.85 67.3, 119.92 32.45, 148.91 0.34 M66.4 102.1 C98.38 60.8, 132.71 23.13, 155.52 -0.15 M65.95 100.8 C93.34 69.98, 122.09 37.58, 152.9 -0.13 M72.33 101.47 C101.32 65.74, 132.99 29.16, 158.32 0.08 M71.16 102.2 C99.97 67.27, 128.77 33.3, 159.14 0.75 M77.85 100.98 C102.17 71.21, 127.82 45.56, 165.86 0.85 M75.99 101.91 C95.67 79.58, 114.3 57.22, 164.22 0.01 M82.26 100.25 C108.45 68.36, 136.37 37.38, 167.74 -1.61 M81.14 100.81 C112.7 65.64, 142.69 31.48, 169.5 1.02 M86.91 99.77 C107.46 83.11, 122.32 60.96, 173.84 -1.22 M86.12 102.16 C117.66 64.52, 150.65 28.12, 175.94 -0.05 M93.42 101.86 C112.86 77.6, 133.02 52.51, 178.06 -1.06 M91.98 102.01 C125.69 65.98, 156.84 28.29, 180.24 0.33 M95.45 99.7 C129.75 63.6, 164.49 20.55, 184.59 -0.37 M97.57 101.76 C134.14 60.84, 168.58 20.43, 185.68 -0.5 M100.95 102.3 C129.11 72.62, 152.59 44.31, 191.65 -1.53 M102.29 100.62 C128.94 73.59, 153.16 44.36, 190.34 1.13 M107.87 103.53 C135.68 69.6, 169.49 35.2, 197.74 -1.1 M108.34 102.14 C132.51 71.39, 158.89 42.03, 195.82 -0.28 M114.48 103.07 C142.42 69.35, 170.84 40.16, 201.4 -0.78 M113.46 100.7 C143.12 66.83, 174.77 30.48, 201.55 -0.9 M119.04 103.48 C140.9 77.23, 161.31 50.2, 207.44 1.57 M119.18 102 C147.14 66.04, 178.11 32.71, 207.49 -1.07 M122.14 103.15 C147.84 75.69, 167.92 51.84, 210.7 0.95 M123.59 101.56 C151.06 69.98, 179.26 39.43, 212.38 -0.8 M130.35 101.31 C160.92 62.44, 194.4 23.06, 218.31 -1.85 M129.58 101.27 C160.28 64.75, 192.61 28.7, 218.54 -1.3 M133.9 103.79 C157.39 74.39, 181.35 45.96, 221.42 0.88 M134.92 102.54 C155.67 76.96, 177 52.56, 222.06 -0.4 M137.68 100.25 C162.31 74.54, 186.11 46.5, 229.48 0.62 M139.79 101.15 C165.18 71.34, 190.81 41.41, 227.6 -0.15 M144.23 101.48 C171.21 72.28, 195.63 42.67, 233.95 1.76 M144.36 101.94 C176.47 63.84, 209.54 27.18, 232.6 -0.24 M151.4 101.06 C180.19 70.8, 207.58 36.29, 237.93 -0.76 M150.81 102.07 C168.08 80.28, 185.07 60.3, 237.39 1.19 M156.08 100.45 C175.78 77.37, 196.69 55.2, 243.17 -0.16 M155.64 101.57 C171.77 80.07, 190.06 60.12, 244.73 0.35 M160.42 101.96 C183.39 79.69, 200.15 56.49, 249.11 -0.53 M160.38 101.74 C188.68 69.5, 214.61 39.14, 249.34 0.54 M167.6 101.72 C193.63 69.46, 222.71 36.7, 254.46 0.85 M165.88 101.76 C186.29 79.14, 205.83 58.22, 253.96 -0.66 M172.1 102.7 C200.85 63.25, 232.19 28.95, 260.99 -1.43 M171 101.09 C198.31 71.27, 224.01 40.71, 259.66 1.21 M175.41 103.75 C200.2 75.14, 226.27 44.62, 263.72 0.04 M176.94 102.06 C210.57 62.64, 243.9 24.81, 264.53 -0.1 M180.33 100.53 C211.3 68.99, 242.27 34.14, 270.71 -1.46 M181.91 102.31 C203.09 78.92, 223.4 53.73, 269.98 1.02 M186.66 102.56 C208.04 74.74, 231.13 49.76, 277.31 -1.85 M187.45 101.31 C205.24 80.7, 223.32 58.15, 275.44 0.47 M193.49 102.19 C220.37 69.7, 245.61 41.78, 281.89 -1.14 M193.12 100.85 C218.19 73.26, 242.93 43.81, 280.66 1.03 M198.96 103.62 C222.04 72.39, 250.33 39.44, 288.12 1.43 M198.78 101.56 C226.47 68.51, 256.34 34.96, 286.43 0.76 M202.47 99.91 C239.56 62.49, 273.94 22.27, 292.68 0.52 M203.35 101.39 C234.53 66.63, 264.34 31.85, 290.83 -0.43 M208.46 101.94 C239.21 63.59, 269.96 29.09, 295.54 1.61 M209.05 102.13 C235.24 71.15, 260.79 41.37, 296 -0.3 M212.65 99.44 C243.54 69.09, 271.95 35.79, 303.7 2.02 M214.13 101.88 C234.44 78.82, 254.21 57.81, 302.36 0.2 M217.79 102 C236.77 81.38, 257.22 60.41, 309.44 -0.07 M219.13 101.58 C237.05 80.12, 255.53 60.45, 307.4 -0.53 M223.91 100.03 C261.45 61.12, 294.18 20.11, 314.09 -0.64 M225.68 101.5 C248.44 73.19, 273.41 46.11, 311.87 -0.26 M228.08 101.8 C258.87 68.65, 290.06 32.19, 318.22 -0.85 M230.65 101.74 C250.39 77.68, 271.47 53.25, 318.61 -0.47 M234.64 102.41 C256.04 76.81, 277.03 52.93, 321.47 2.01 M235 100.71 C267.27 64.54, 299.31 28.68, 322.73 0.25 M238.96 100.83 C265.16 71.81, 291.99 40.99, 328.75 -0.51 M239.97 101.67 C269.53 65.11, 300.96 29.92, 328.4 0.57 M245.06 101.59 C275.74 69.01, 303.71 33.86, 333.99 0.98 M245.19 101.94 C270.64 73.96, 295.83 45.09, 333.07 1.04 M252.57 100.08 C276.11 72.45, 303.12 41.74, 338.42 -1.29 M250.21 101.68 C284 62.38, 318.94 22.88, 340.25 0.52 M255.86 103.79 C278.24 76.83, 300.68 51.09, 346.28 0.76 M256.05 102.63 C287.78 67.68, 318.08 31.53, 343.74 0.7 M261.54 102.04 C284.72 74.73, 303.16 53.28, 350.45 0.8 M261.26 101.35 C290.21 69.54, 320.13 36.2, 349.75 1.33 M268.27 103.01 C284.52 82.2, 301.81 58.46, 355.46 -0.66 M266.18 101.73 C285.08 80.46, 305.26 58.62, 354.38 -0.98 M273 102.71 C301.85 68.9, 330.43 36.01, 360.53 0.99 M271.71 101.48 C298.27 73.06, 322.65 42.83, 359.21 -0.06 M278.69 102 C304.4 67.12, 334.61 34.81, 365.17 0.21 M277.56 102.67 C299.43 78.15, 321.11 52.48, 365.36 -0.92 M284.58 99.57 C316.56 63.57, 348.34 26.22, 368.91 2.29 M282.96 102.15 C309.02 73.34, 334 44.11, 371.73 0.79 M285.98 100.99 C308.37 80.38, 324.76 59.26, 377.55 0.36 M286.95 102.15 C317.74 67.63, 347.27 32.64, 375.79 -0.8 M292.42 99.63 C321.88 70.18, 351.06 39.21, 382.95 0.42 M293.12 100.67 C318.85 72.92, 344.88 42.87, 381.79 0.81 M299.53 101.73 C327.64 71.78, 352.14 38.76, 385.22 -1.71 M297.84 102.1 C326.22 70.6, 352.05 41.12, 387.55 -1.06 M303.16 99.37 C338.34 63.41, 368.38 25.74, 392.54 0.64 M305.05 101.61 C339.24 61.37, 372.07 22.29, 392.65 0.22 M307.22 103.46 C338.48 64.5, 369.48 31.52, 399.33 -2.02 M308.48 101.73 C333.87 72.52, 361.37 42.56, 397.25 -0.89 M313.91 100.78 C347.08 60.94, 382.2 24.41, 402.06 1.69 M314.39 100.78 C345.37 63.51, 377.88 26.62, 402.3 0.43 M319.44 102.93 C350.84 63.85, 383.55 29.88, 409.49 0.94 M319.86 101.46 C353.09 64.16, 385.86 24.55, 408.28 -0.21 M324.32 99.35 C355.11 66.18, 382.85 35.99, 414.4 -0.2 M325.5 101.26 C357.13 64.17, 389.91 27.23, 413.48 0.15 M329.08 102.37 C350.76 78.94, 370.17 58.7, 419.85 -1.85 M329.73 101 C359.91 67.76, 389.44 34.19, 418.74 0.29 M336.52 100.09 C355.31 79.32, 373.09 58.41, 422.94 0.72 M335.5 101.35 C358.13 75.4, 379.27 50.58, 423.7 -0.68 M339.5 101.52 C367.61 73.1, 390.5 44.65, 429.04 -1.9 M340.58 101.29 C369.13 69.51, 395.59 37.41, 429.52 -0.83 M347.14 101.48 C377.95 66.05, 409.31 31.32, 435.56 -0.3 M346.27 100.62 C380.19 60.56, 415.46 21.29, 435.19 -0.87 M352.6 101.64 C371.55 82.42, 386.06 61.37, 436.87 0.3 M351.67 102.5 C380.43 68.76, 409.6 35.42, 438.92 1.77 M354.66 100.26 C380.62 74.12, 405.89 43.55, 440.74 8.27 M355.77 102.65 C381.92 71.82, 406.25 43.14, 439.06 6.81 M360.76 101.45 C383.54 75.92, 406.69 53.2, 439.12 13.29 M362.99 102.1 C390.32 69.69, 418.36 36.91, 439.44 14.2 M366.02 100.43 C390.66 75.97, 411.44 46.98, 440.67 19.16 M366.68 101.99 C384.5 83.93, 398.71 65.73, 440.35 18.54 M370.86 101.21 C394.18 77.15, 414.16 55.02, 439.09 23.51 M373.28 100.76 C394.27 77.89, 414.7 54.77, 439.38 26.22 M376.71 101.72 C397.34 79.03, 421.73 55.39, 438.68 31.58 M378.47 102.71 C395.65 82.78, 412.24 61.5, 439.51 30.74 M384.28 102.66 C402.44 78.99, 420.28 58.11, 437.42 37.44 M384.03 102.44 C405.71 76.25, 427.2 50.53, 438.62 37.39 M389.34 100.63 C405.14 80.88, 425.56 61.93, 437.96 45.26 M388.01 101.38 C408.35 80.23, 427.3 56.47, 439.08 44.09 M392.91 101.04 C407.26 82.65, 424.57 67.57, 441.24 51.07 M393.51 102.31 C409.45 83.53, 425.08 64.89, 439.78 48.53 M401.06 103.15 C408.21 89.95, 419.76 81.11, 438.24 55.72 M398.92 101.82 C412.15 86.52, 426.49 71.15, 438.41 54.78 M403.13 101.08 C413.25 89, 425.27 78.35, 439.53 62.65 M404.7 100.83 C414.28 91.59, 421.42 82.5, 439.57 62.46 M411.5 100.78 C419.29 91.89, 431.26 78.21, 438.39 67.17 M409.57 101.09 C417.03 92.76, 424.74 84.43, 440.25 67.52 M415.82 101.04 C420.69 95.54, 426.16 87.89, 437.74 73.68 M415.34 101.68 C422.42 93.11, 429.32 86.1, 439.42 74.99 M418.79 102.5 C426.68 93.5, 430.08 88.42, 439.8 81.38 M421.09 101.51 C424.91 96.76, 427.9 91.85, 440.09 80.23 M426.37 100.65 C431.12 96.68, 434.36 93.37, 437.83 85.38 M425.94 101.8 C430.84 94.93, 436.25 90.93, 439.56 85.43 M431.34 102.37 C433.94 97.32, 438.02 94.1, 438.17 93.66 M431.2 102.26 C434.51 97.86, 437.29 94.34, 439.26 92.78 M436.64 101.28 C437.46 100.67, 438.29 99.68, 439.6 98.58 M436.46 101.33 C437.65 100.09, 438.55 99.25, 439.33 98.16" stroke="#99e9f2" stroke-width="0.5" fill="none"></path><path d="M-0.5 0.85 C89.64 1.19, 180.93 2.63, 438.21 -0.42 M0.34 -0.38 C104.06 2.25, 208.62 1.64, 438.21 -0.11 M437.9 1.06 C436.03 31.25, 439.37 62.44, 437.09 98.61 M437.03 0.03 C437.88 31.57, 437.64 63.56, 437.48 99.77 M437.07 100.78 C279.4 100.09, 121.69 99.17, -0.97 99.74 M437.85 99.76 C343.59 100.42, 249.47 100.87, -0.27 100.3 M-0.9 98.44 C-0.88 68.16, 0.42 37.48, -1.38 -0.33 M0.65 100.8 C-0.31 69.25, -1.29 40.67, 0.15 0.3" stroke="#000000" stroke-width="1" fill="none"></path></g><g stroke-linecap="round"><g transform="translate(420 1130.5030337904675) rotate(0 81.02332171797752 31.493949604844715)"><path d="M-0.27 0.74 C26.7 11.11, 135.46 51.22, 162.32 61.58 M1.78 0.09 C28.59 10.68, 134.64 52.73, 161.54 62.9" stroke="#000000" stroke-width="1" fill="none"></path></g><g transform="translate(420 1130.5030337904675) rotate(0 81.02332171797752 31.493949604844715)"><path d="M132.79 62.79 C141 60.69, 153.39 62.7, 163.25 64.53 M130.71 62.39 C140.62 62.22, 148.69 62.85, 161.23 63.77" stroke="#000000" stroke-width="1" fill="none"></path></g><g transform="translate(420 1130.5030337904675) rotate(0 81.02332171797752 31.493949604844715)"><path d="M140.22 43.66 C145.82 48.02, 155.7 56.5, 163.25 64.53 M138.14 43.26 C145.68 48.69, 151.57 54.95, 161.23 63.77" stroke="#000000" stroke-width="1" fill="none"></path></g></g><mask></mask><g stroke-linecap="round"><g transform="translate(879.5482224902084 1132.5030337904675) rotate(0 -104.99024455947529 31.75964108380947)"><path d="M0.36 0.97 C-34.76 11.45, -175.33 52.73, -210.34 63.09 M-0.92 0.43 C-35.69 10.59, -173.1 51.38, -208.04 61.54" stroke="#000000" stroke-width="1" fill="none"></path></g><g transform="translate(879.5482224902084 1132.5030337904675) rotate(0 -104.99024455947529 31.75964108380947)"><path d="M-182.28 42.43 C-190.06 49.49, -198.02 55.45, -209.94 62.55 M-183.82 44.66 C-190.08 47.93, -196.58 52.74, -207.99 61.95" stroke="#000000" stroke-width="1" fill="none"></path></g><g transform="translate(879.5482224902084 1132.5030337904675) rotate(0 -104.99024455947529 31.75964108380947)"><path d="M-176.49 62.12 C-186.22 62.66, -196.11 62.08, -209.94 62.55 M-178.02 64.34 C-185.63 62.56, -193.61 62.35, -207.99 61.95" stroke="#000000" stroke-width="1" fill="none"></path></g></g><mask></mask><g transform="translate(276 1040.0030337904675) rotate(0 82 22.5)"><text x="0" y="0" font-family="Virgil, Segoe UI Emoji" font-size="36px" fill="#000000" text-anchor="start" style="white-space: pre;" direction="ltr" dominant-baseline="text-before-edge">Template</text></g><g transform="translate(308.5 1087.0030337904675) rotate(0 36 17.5)"><text x="0" y="0" font-family="Virgil, Segoe UI Emoji" font-size="28px" fill="#1971c2" text-anchor="start" style="white-space: pre;" direction="ltr" dominant-baseline="text-before-edge">YAML</text></g><g transform="translate(845.5 1034.0030337904675) rotate(0 48.5 22.5)"><text x="0" y="0" font-family="Virgil, Segoe UI Emoji" font-size="36px" fill="#000000" text-anchor="start" style="white-space: pre;" direction="ltr" dominant-baseline="text-before-edge">Data</text></g><g transform="translate(840.5 1079.0030337904675) rotate(0 71 17.5)"><text x="0" y="0" font-family="Virgil, Segoe UI Emoji" font-size="28px" fill="#1971c2" text-anchor="start" style="white-space: pre;" direction="ltr" dominant-baseline="text-before-edge">template: </text></g><g stroke-linecap="round"><g transform="translate(584 968.5030337904675) rotate(0 -107.20796108841898 33.269783738139154)"><path d="M0.45 -0.94 C-35.19 10, -179.04 54.97, -214.86 65.96 M-0.78 1.17 C-35.94 12.29, -176.82 56.71, -212.6 67.48" stroke="#000000" stroke-width="1" fill="none"></path></g><g transform="translate(584 968.5030337904675) rotate(0 -107.20796108841898 33.269783738139154)"><path d="M-190.27 47.92 C-193.76 52.5, -200.4 56.51, -212.3 67.42 M-188.59 48.62 C-193.55 53.14, -199.95 57.3, -213.47 68.25" stroke="#000000" stroke-width="1" fill="none"></path></g><g transform="translate(584 968.5030337904675) rotate(0 -107.20796108841898 33.269783738139154)"><path d="M-184.21 67.52 C-189.04 67.98, -196.96 67.84, -212.3 67.42 M-182.53 68.22 C-189 68.18, -196.83 67.72, -213.47 68.25" stroke="#000000" stroke-width="1" fill="none"></path></g></g><mask></mask><g stroke-linecap="round"><g transform="translate(609.285903825768 968.3161900394598) rotate(0 155.35197847527002 27.570145402434378)"><path d="M-0.76 -0.09 C51.23 9.13, 259.36 47.1, 311.46 56.33 M1.04 -1.19 C52.96 7.59, 259.04 44.89, 310.79 54.47" stroke="#000000" stroke-width="1" fill="none"></path></g><g transform="translate(609.285903825768 968.3161900394598) rotate(0 155.35197847527002 27.570145402434378)"><path d="M281.06 60.37 C289.72 59.86, 295.63 55.66, 312 53.88 M281.52 60.26 C289.44 58.68, 297.33 56.14, 311.37 54.67" stroke="#000000" stroke-width="1" fill="none"></path></g><g transform="translate(609.285903825768 968.3161900394598) rotate(0 155.35197847527002 27.570145402434378)"><path d="M284.74 40.18 C292.61 44.91, 297.56 45.98, 312 53.88 M285.21 40.07 C292.04 44.04, 298.92 47.05, 311.37 54.67" stroke="#000000" stroke-width="1" fill="none"></path></g></g><mask></mask><g stroke-linecap="round" transform="translate(10 530.5030337904675) rotate(0 618 228.9999999999999)"><path d="M0.48 -0.7 C413.59 2.08, 827.39 3.28, 1235.38 0.28 M1235.6 0.14 C1236.89 151.97, 1235.75 304.2, 1235.58 458.13 M1235.96 457.3 C907.07 454.03, 576.38 453.42, 0.4 457.55 M-0.84 458.86 C1.48 293.63, -0.25 130.42, -0.41 0.03" stroke="#a61e4d" stroke-width="1.5" fill="none" stroke-dasharray="1.5 7"></path></g><g transform="translate(40 564.5030337904675) rotate(0 108.5 22.5)"><text x="0" y="0" font-family="Virgil, Segoe UI Emoji" font-size="36px" fill="#1971c2" text-anchor="start" style="white-space: pre;" direction="ltr" dominant-baseline="text-before-edge">Rendering #1</text></g><g stroke-linecap="round" transform="translate(10 1010.5030337904675) rotate(0 618 192)"><path d="M-0.71 -0.59 C370.03 -3.35, 741.28 -4.4, 1235.6 -0.16 M1236.25 -0.68 C1236.62 84.9, 1236.5 169.99, 1236.93 383.73 M1235.83 383.42 C923.57 383.63, 610.4 383.73, -0.57 384.4 M1.07 385.04 C-0.78 280.76, -0.68 178.46, 1.06 -0.07" stroke="#a61e4d" stroke-width="1.5" fill="none" stroke-dasharray="1.5 7"></path></g><g transform="translate(41.5 1328.0030337904675) rotate(0 116.5 22.5)"><text x="0" y="0" font-family="Virgil, Segoe UI Emoji" font-size="36px" fill="#1971c2" text-anchor="start" style="white-space: pre;" direction="ltr" dominant-baseline="text-before-edge">Rendering #2</text></g><g stroke-linecap="round"><g transform="translate(634.5131876757612 1381.434068273226) rotate(0 0.7756165385093254 43.54781108098655)"><path d="M0.73 0.77 C1.17 15.15, 1.62 71.49, 1.89 85.68 M-0.34 0.12 C0.01 14.72, 0.6 72.47, 0.98 86.97" stroke="#4c061d" stroke-width="1" fill="none"></path></g><g transform="translate(634.5131876757612 1381.434068273226) rotate(0 0.7756165385093254 43.54781108098655)"><path d="M-8.49 59.08 C-8.11 66.51, -5.15 71.59, 2.62 87.11 M-9.81 58.38 C-4.93 70.14, -1.5 80.57, 0.56 86.3" stroke="#4c061d" stroke-width="1" fill="none"></path></g><g transform="translate(634.5131876757612 1381.434068273226) rotate(0 0.7756165385093254 43.54781108098655)"><path d="M12.03 58.73 C7.51 66.37, 5.59 71.53, 2.62 87.11 M10.71 58.03 C7.65 69.8, 3.15 80.36, 0.56 86.3" stroke="#4c061d" stroke-width="1" fill="none"></path></g></g><mask></mask><g transform="translate(416.5 1481.0030337904675) rotate(0 191 17.5)"><text x="0" y="0" font-family="Virgil, Segoe UI Emoji" font-size="28px" fill="#4c061d" text-anchor="start" style="white-space: pre;" direction="ltr" dominant-baseline="text-before-edge">Resource Specification Filez</text></g><g stroke-linecap="round" transform="translate(344.2342233680704 10) rotate(0 219 45)"><path d="M-0.6 1.03 L437.97 0.54 L439.5 88.25 L-1.42 91.36" stroke="none" stroke-width="0" fill="#7950f2"></path><path d="M-0.37 -0.68 C96.5 1.53, 192.09 1.42, 437.9 0.5 M0.05 -0.46 C167.89 0.5, 336.49 0.51, 438.44 0.18 M437.66 1.4 C440.03 32.55, 439.05 65.9, 438.94 89.55 M438.01 -0.25 C439.04 18.43, 438.45 35.33, 439 89.9 M437.27 90.13 C273.4 92.6, 107.65 91.25, -0.47 90.85 M438.07 89.67 C291.23 88.51, 144.6 88.78, 0.44 89.73 M1.89 89.87 C0.06 68.91, -0.58 48.65, 0.75 0.96 M0.74 90.93 C1.26 64.21, 0.58 36.89, 0.68 -0.57" stroke="#6741d9" stroke-width="1" fill="none"></path></g><g transform="translate(531.0502100013712 32.5) rotate(0 32.18401336669922 22.5)"><text x="32.18401336669922" y="0" font-family="Virgil, Segoe UI Emoji" font-size="36px" fill="#ffff" text-anchor="middle" style="white-space: pre;" direction="ltr" dominant-baseline="text-before-edge">CLI</text></g><g stroke-linecap="round"><g transform="translate(532.2849023436029 107) rotate(0 -99.70090168587967 62.386751829325306)"><path d="M-0.02 0.32 C-33.19 20.96, -165.86 103.45, -199.38 124.45" stroke="#000000" stroke-width="1.5" fill="none" stroke-dasharray="1.5 7"></path></g><g transform="translate(532.2849023436029 107) rotate(0 -99.70090168587967 62.386751829325306)"><path d="M-180.36 102.33 C-187.52 105.79, -189.41 114.56, -198.95 125" stroke="#000000" stroke-width="1.5" fill="none" stroke-dasharray="1.5 5"></path></g><g transform="translate(532.2849023436029 107) rotate(0 -99.70090168587967 62.386751829325306)"><path d="M-169.5 119.74 C-179.69 118.5, -184.51 122.56, -198.95 125" stroke="#000000" stroke-width="1.5" fill="none" stroke-dasharray="1.5 5"></path></g></g><mask></mask><g stroke-linecap="round"><g transform="translate(571.4017731309639 100.9630481488361) rotate(0 141.52000146720718 58.2188007398411)"><path d="M0.28 -0.48 C21.03 10.7, 78.56 47.89, 125.64 67.46 C172.72 87.02, 256.33 108.81, 282.76 116.91" stroke="#000000" stroke-width="1.5" fill="none" stroke-dasharray="1.5 7"></path></g><g transform="translate(571.4017731309639 100.9630481488361) rotate(0 141.52000146720718 58.2188007398411)"><path d="M252.04 117.26 C266.01 117.42, 275.89 119.04, 280.9 117.78" stroke="#000000" stroke-width="1.5" fill="none" stroke-dasharray="1.5 5"></path></g><g transform="translate(571.4017731309639 100.9630481488361) rotate(0 141.52000146720718 58.2188007398411)"><path d="M257.72 97.54 C269.51 105.48, 277.16 114.86, 280.9 117.78" stroke="#000000" stroke-width="1.5" fill="none" stroke-dasharray="1.5 5"></path></g></g><mask></mask><g stroke-linecap="round"><g transform="translate(734.7777777777856 186.28081156824442) rotate(0 119.33333333333326 159.1111111111111)" fill-rule="evenodd"><path d="M0 0 L159.11 0 L238.67 79.56 L238.67 318.22 L0 318.22 L0 0" stroke="none" stroke-width="0" fill="#fff" fill-rule="evenodd"></path><path d="M0 0 C53.38 0, 106.76 0, 159.11 0 M0 0 C37.34 0, 74.69 0, 159.11 0 M159.11 0 C178.32 19.21, 197.53 38.42, 238.67 79.56 M159.11 0 C183.66 24.55, 208.22 49.11, 238.67 79.56 M238.67 79.56 C238.67 149.97, 238.67 220.38, 238.67 318.22 M238.67 79.56 C238.67 143.15, 238.67 206.74, 238.67 318.22 M238.67 318.22 C164.08 318.22, 89.49 318.22, 0 318.22 M238.67 318.22 C181.52 318.22, 124.37 318.22, 0 318.22 M0 318.22 C0 221.95, 0 125.68, 0 0 M0 318.22 C0 193.56, 0 68.89, 0 0 M0 0 C0 0, 0 0, 0 0 M0 0 C0 0, 0 0, 0 0" stroke="#000000" stroke-width="1" fill="none"></path></g></g><mask></mask><g stroke-linecap="round"><g transform="translate(893.888888888896 186.28081156824442) rotate(0 0 39.77777777777777)"><path d="M0 0 C0 26.26, 0 52.52, 0 79.56 M0 0 C0 22.12, 0 44.24, 0 79.56" stroke="#000000" stroke-width="1" fill="none"></path></g></g><mask></mask><g stroke-linecap="round"><g transform="translate(893.888888888896 265.83636712380155) rotate(0 39.77777777777783 0)"><path d="M0 0 C19.74 0, 39.47 0, 79.56 0 M0 0 C24.18 0, 48.36 0, 79.56 0" stroke="#000000" stroke-width="1" fill="none"></path></g></g><mask></mask><g stroke-linecap="round"><g transform="translate(714.8888888888941 166.3919226793555) rotate(0 119.33333333333326 159.1111111111111)" fill-rule="evenodd"><path d="M0 0 L159.11 0 L238.67 79.56 L238.67 318.22 L0 318.22 L0 0" stroke="none" stroke-width="0" fill="#fff" fill-rule="evenodd"></path><path d="M0 0 C55.48 0, 110.97 0, 159.11 0 M0 0 C37.53 0, 75.07 0, 159.11 0 M159.11 0 C182.68 23.57, 206.25 47.13, 238.67 79.56 M159.11 0 C180.22 21.11, 201.34 42.22, 238.67 79.56 M238.67 79.56 C238.67 134.49, 238.67 189.43, 238.67 318.22 M238.67 79.56 C238.67 134.01, 238.67 188.46, 238.67 318.22 M238.67 318.22 C146.04 318.22, 53.41 318.22, 0 318.22 M238.67 318.22 C160.75 318.22, 82.83 318.22, 0 318.22 M0 318.22 C0 241.73, 0 165.25, 0 0 M0 318.22 C0 221.2, 0 124.18, 0 0 M0 0 C0 0, 0 0, 0 0 M0 0 C0 0, 0 0, 0 0" stroke="#000000" stroke-width="1" fill="none"></path></g></g><mask></mask><g stroke-linecap="round"><g transform="translate(874 166.3919226793555) rotate(0 0 39.77777777777777)"><path d="M0 0 C0 26.31, 0 52.62, 0 79.56 M0 0 C0 31.23, 0 62.46, 0 79.56" stroke="#000000" stroke-width="1" fill="none"></path></g></g><mask></mask><g stroke-linecap="round"><g transform="translate(874 245.94747823491173) rotate(0 39.77777777777783 0)"><path d="M0 0 C27.63 0, 55.26 0, 79.56 0 M0 0 C22.6 0, 45.19 0, 79.56 0" stroke="#000000" stroke-width="1" fill="none"></path></g></g><mask></mask><g stroke-linecap="round"><g transform="translate(695 146.5030337904675) rotate(0 119.33333333333326 159.1111111111111)" fill-rule="evenodd"><path d="M0 0 L159.11 0 L238.67 79.56 L238.67 318.22 L0 318.22 L0 0" stroke="none" stroke-width="0" fill="#fff" fill-rule="evenodd"></path><path d="M0 0 C34.83 0, 69.65 0, 159.11 0 M0 0 C56 0, 111.99 0, 159.11 0 M159.11 0 C185.34 26.23, 211.58 52.47, 238.67 79.56 M159.11 0 C176.54 17.43, 193.96 34.85, 238.67 79.56 M238.67 79.56 C238.67 131.64, 238.67 183.73, 238.67 318.22 M238.67 79.56 C238.67 137.77, 238.67 195.98, 238.67 318.22 M238.67 318.22 C171.75 318.22, 104.83 318.22, 0 318.22 M238.67 318.22 C190.18 318.22, 141.7 318.22, 0 318.22 M0 318.22 C0 237.25, 0 156.29, 0 0 M0 318.22 C0 204.88, 0 91.53, 0 0 M0 0 C0 0, 0 0, 0 0 M0 0 C0 0, 0 0, 0 0" stroke="#000000" stroke-width="1" fill="none"></path></g></g><mask></mask><g stroke-linecap="round"><g transform="translate(854.111111111104 146.5030337904675) rotate(0 0 39.77777777777777)"><path d="M0 0 C0 26.9, 0 53.81, 0 79.56 M0 0 C0 16.79, 0 33.57, 0 79.56" stroke="#000000" stroke-width="1" fill="none"></path></g></g><mask></mask><g stroke-linecap="round"><g transform="translate(854.111111111104 226.05858934602304) rotate(0 39.77777777777783 0)"><path d="M0 0 C25.07 0, 50.14 0, 79.56 0 M0 0 C23.16 0, 46.32 0, 79.56 0" stroke="#000000" stroke-width="1" fill="none"></path></g></g><mask></mask><g stroke-linecap="round" transform="translate(695 146.5030337904675) rotate(0 139.22222222222217 179)"><path d="M0 0 C67.2 0, 134.4 0, 278.44 0 M0 0 C75.88 0, 151.76 0, 278.44 0 M278.44 0 C278.44 106.91, 278.44 213.83, 278.44 358 M278.44 0 C278.44 131.46, 278.44 262.92, 278.44 358 M278.44 358 C174.73 358, 71.01 358, 0 358 M278.44 358 C181.37 358, 84.29 358, 0 358 M0 358 C0 234.22, 0 110.44, 0 0 M0 358 C0 233.13, 0 108.26, 0 0" stroke="transparent" stroke-width="1" fill="none"></path></g><g transform="translate(763.5 260.5030337904675) rotate(0 48.5 22.5)"><text x="0" y="0" font-family="Virgil, Segoe UI Emoji" font-size="36px" fill="#000000" text-anchor="start" style="white-space: pre;" direction="ltr" dominant-baseline="text-before-edge">Data</text></g><g transform="translate(738 307.5030337904675) rotate(0 84 52.5)"><text x="0" y="0" font-family="Virgil, Segoe UI Emoji" font-size="28px" fill="#000000" text-anchor="start" style="white-space: pre;" direction="ltr" dominant-baseline="text-before-edge">values.yaml</text><text x="0" y="35" font-family="Virgil, Segoe UI Emoji" font-size="28px" fill="#000000" text-anchor="start" style="white-space: pre;" direction="ltr" dominant-baseline="text-before-edge">--set-values</text><text x="0" y="70" font-family="Virgil, Segoe UI Emoji" font-size="28px" fill="#000000" text-anchor="start" style="white-space: pre;" direction="ltr" dominant-baseline="text-before-edge">--set-labels</text></g><g stroke-linecap="round"><g transform="translate(190.5555555555593 167.28081156824442) rotate(0 119.33333333333326 159.1111111111111)" fill-rule="evenodd"><path d="M0 0 L159.11 0 L238.67 79.56 L238.67 318.22 L0 318.22 L0 0" stroke="none" stroke-width="0" fill="#fff" fill-rule="evenodd"></path><path d="M0 0 C49.1 0, 98.2 0, 159.11 0 M0 0 C40.26 0, 80.52 0, 159.11 0 M159.11 0 C177.74 18.63, 196.37 37.26, 238.67 79.56 M159.11 0 C182.55 23.44, 206 46.89, 238.67 79.56 M238.67 79.56 C238.67 168.65, 238.67 257.75, 238.67 318.22 M238.67 79.56 C238.67 132.77, 238.67 185.98, 238.67 318.22 M238.67 318.22 C165.89 318.22, 93.11 318.22, 0 318.22 M238.67 318.22 C189.35 318.22, 140.03 318.22, 0 318.22 M0 318.22 C0 254.55, 0 190.88, 0 0 M0 318.22 C0 239.51, 0 160.8, 0 0 M0 0 C0 0, 0 0, 0 0 M0 0 C0 0, 0 0, 0 0" stroke="#000000" stroke-width="1" fill="none"></path></g></g><mask></mask><g stroke-linecap="round"><g transform="translate(349.6666666666697 167.28081156824442) rotate(0 0 39.77777777777777)"><path d="M0 0 C0 28.37, 0 56.73, 0 79.56 M0 0 C0 24.39, 0 48.77, 0 79.56" stroke="#000000" stroke-width="1" fill="none"></path></g></g><mask></mask><g stroke-linecap="round"><g transform="translate(349.6666666666697 246.83636712380155) rotate(0 39.77777777777783 0)"><path d="M0 0 C24.14 0, 48.27 0, 79.56 0 M0 0 C26.01 0, 52.03 0, 79.56 0" stroke="#000000" stroke-width="1" fill="none"></path></g></g><mask></mask><g stroke-linecap="round"><g transform="translate(170.66666666666788 147.3919226793555) rotate(0 119.33333333333326 159.1111111111111)" fill-rule="evenodd"><path d="M0 0 L159.11 0 L238.67 79.56 L238.67 318.22 L0 318.22 L0 0" stroke="none" stroke-width="0" fill="#fff" fill-rule="evenodd"></path><path d="M0 0 C54.79 0, 109.58 0, 159.11 0 M0 0 C51.54 0, 103.09 0, 159.11 0 M159.11 0 C175.16 16.05, 191.21 32.1, 238.67 79.56 M159.11 0 C184.72 25.6, 210.32 51.21, 238.67 79.56 M238.67 79.56 C238.67 174.63, 238.67 269.7, 238.67 318.22 M238.67 79.56 C238.67 158.68, 238.67 237.81, 238.67 318.22 M238.67 318.22 C188.75 318.22, 138.84 318.22, 0 318.22 M238.67 318.22 C162.81 318.22, 86.95 318.22, 0 318.22 M0 318.22 C0 209.39, 0 100.56, 0 0 M0 318.22 C0 194.85, 0 71.48, 0 0 M0 0 C0 0, 0 0, 0 0 M0 0 C0 0, 0 0, 0 0" stroke="#000000" stroke-width="1" fill="none"></path></g></g><mask></mask><g stroke-linecap="round"><g transform="translate(329.77777777777374 147.3919226793555) rotate(0 0 39.77777777777777)"><path d="M0 0 C0 28.83, 0 57.66, 0 79.56 M0 0 C0 27.44, 0 54.88, 0 79.56" stroke="#000000" stroke-width="1" fill="none"></path></g></g><mask></mask><g stroke-linecap="round"><g transform="translate(329.77777777777374 226.94747823491173) rotate(0 39.77777777777783 0)"><path d="M0 0 C29.77 0, 59.54 0, 79.56 0 M0 0 C19.95 0, 39.9 0, 79.56 0" stroke="#000000" stroke-width="1" fill="none"></path></g></g><mask></mask><g stroke-linecap="round"><g transform="translate(150.77777777777374 127.5030337904675) rotate(0 119.33333333333326 159.1111111111111)" fill-rule="evenodd"><path d="M0 0 L159.11 0 L238.67 79.56 L238.67 318.22 L0 318.22 L0 0" stroke="none" stroke-width="0" fill="#fff" fill-rule="evenodd"></path><path d="M0 0 C49.09 0, 98.18 0, 159.11 0 M0 0 C58.98 0, 117.96 0, 159.11 0 M159.11 0 C180.64 21.53, 202.17 43.06, 238.67 79.56 M159.11 0 C190.35 31.24, 221.58 62.47, 238.67 79.56 M238.67 79.56 C238.67 160.43, 238.67 241.31, 238.67 318.22 M238.67 79.56 C238.67 154.15, 238.67 228.75, 238.67 318.22 M238.67 318.22 C173.8 318.22, 108.93 318.22, 0 318.22 M238.67 318.22 C156.43 318.22, 74.19 318.22, 0 318.22 M0 318.22 C0 200.44, 0 82.66, 0 0 M0 318.22 C0 195.5, 0 72.79, 0 0 M0 0 C0 0, 0 0, 0 0 M0 0 C0 0, 0 0, 0 0" stroke="#000000" stroke-width="1" fill="none"></path></g></g><mask></mask><g stroke-linecap="round"><g transform="translate(309.8888888888778 127.5030337904675) rotate(0 0 39.77777777777777)"><path d="M0 0 C0 21.55, 0 43.11, 0 79.56 M0 0 C0 20.93, 0 41.86, 0 79.56" stroke="#000000" stroke-width="1" fill="none"></path></g></g><mask></mask><g stroke-linecap="round"><g transform="translate(309.8888888888778 207.05858934602304) rotate(0 39.77777777777783 0)"><path d="M0 0 C26.4 0, 52.81 0, 79.56 0 M0 0 C25.93 0, 51.86 0, 79.56 0" stroke="#000000" stroke-width="1" fill="none"></path></g></g><mask></mask><g stroke-linecap="round" transform="translate(150.77777777777374 127.5030337904675) rotate(0 139.22222222222217 179)"><path d="M0 0 C102.21 0, 204.42 0, 278.44 0 M0 0 C56.82 0, 113.65 0, 278.44 0 M278.44 0 C278.44 97.16, 278.44 194.32, 278.44 358 M278.44 0 C278.44 75.65, 278.44 151.31, 278.44 358 M278.44 358 C199.79 358, 121.13 358, 0 358 M278.44 358 C209.85 358, 141.26 358, 0 358 M0 358 C0 243.18, 0 128.36, 0 0 M0 358 C0 285.12, 0 212.23, 0 0" stroke="transparent" stroke-width="1" fill="none"></path></g><g transform="translate(194.5 330.7530337904675) rotate(0 90 35)"><text x="0" y="0" font-family="Virgil, Segoe UI Emoji" font-size="28px" fill="#000000" text-anchor="start" style="white-space: pre;" direction="ltr" dominant-baseline="text-before-edge">resource.yaml</text><text x="0" y="35" font-family="Virgil, Segoe UI Emoji" font-size="28px" fill="#000000" text-anchor="start" style="white-space: pre;" direction="ltr" dominant-baseline="text-before-edge">resource.tpl</text></g><g transform="translate(194.5 273.2530337904675) rotate(0 82 22.5)"><text x="0" y="0" font-family="Virgil, Segoe UI Emoji" font-size="36px" fill="#000000" text-anchor="start" style="white-space: pre;" direction="ltr" dominant-baseline="text-before-edge">Template</text></g></svg>