<?xml version="1.0" encoding="UTF-8" standalone="no"?>
<svg
   version="1.1"
   viewBox="0 0 2345.9502 875.10553"
   id="svg2179"
   xmlns:xlink="http://www.w3.org/1999/xlink"
   xmlns="http://www.w3.org/2000/svg"
   xmlns:svg="http://www.w3.org/2000/svg">
  <defs
     id="defs2183">
    <linearGradient
       id="linearGradient10167">
      <stop
         style="stop-color:#d22352;stop-opacity:1;"
         offset="0"
         id="stop10163" />
      <stop
         style="stop-color:#6155ff;stop-opacity:1;"
         offset="1"
         id="stop10165" />
    </linearGradient>
    <linearGradient
       xlink:href="#linearGradient10167"
       id="linearGradient10169"
       x1="94.042488"
       y1="529.30396"
       x2="910.13782"
       y2="529.30396"
       gradientUnits="userSpaceOnUse" />
    <linearGradient
       xlink:href="#linearGradient10167"
       id="linearGradient11808"
       x1="185.23203"
       y1="914.66785"
       x2="814.51666"
       y2="914.66785"
       gradientUnits="userSpaceOnUse" />
  </defs>
  <g
     id="g1875"
     transform="translate(-68.7,-91.751223)">
    <path
       fill="#e62d4c"
       d="m 238.75,748.38 c -12.01,-5.02 -24.15,-9.84 -36.4,-14.45 -5.19,-1.95 -9.25,-3.89 -12.16,-5.82 -12.48,-8.28 -21.14,-21.17 -30.17,-32.88 -7.56,-9.81 -12.48,-20.83 -14.76,-33.04 -0.07,-0.37 -0.28,-0.61 -0.64,-0.72 -0.65,-0.2 -1.53,-0.4 -2.63,-0.6 -15.7,-2.85 -31.51,-4.93 -47.43,-6.24 -0.41,-0.04 -0.65,-0.49 -0.44,-0.85 24.07,-41.96 37.52,-90.27 44.29,-136.88 2.31,-15.88 4.34,-30.08 5.16,-45.26 0.01,-0.35 -0.13,-0.63 -0.42,-0.82 -13.51,-8.8 -24.25,-19.52 -30.59,-34.14 -9.47,-21.88 -9.25,-48.99 -3.39,-72.02 6.53,-25.71 21.03,-44.96 43.49,-57.75 0.82,-0.47 1.25,-1.42 1.05,-2.35 -6.39,-29.61 -10.1,-59.46 -11.13,-89.56 -0.89,-25.93 -0.87,-50.81 4.55,-74.73 4.66,-20.63 17.7,-35.81 34.88,-47.45 0.6,-0.41 1.25,-0.58 1.96,-0.52 25.67,2.29 50.9,6.84 75.69,13.65 42.92,11.79 82.68,33.82 115.83,63.27 1.34,1.19 2.27,1.28 4.01,0.62 30.63,-11.57 62.3,-18.47 95.01,-20.69 50.09,-3.39 102.98,2.92 150.7,21.04 0.88,0.33 1.87,0.15 2.56,-0.48 21.83,-19.75 45.97,-36.14 72.89,-48.13 23.7,-10.55 48.31,-18.2 73.82,-22.96 12.21,-2.27 26.72,-4.54 43.52,-6.79 1.64,-0.22 2.97,0.02 3.99,0.73 7.23,4.99 13.8,10.75 19.69,17.26 14.38,15.89 18.09,37.67 19.46,58.29 2.14,32.21 0.98,64.34 -3.49,96.37 -1.89,13.56 -4.04,27.08 -6.43,40.56 -0.16,0.88 0.26,1.77 1.05,2.21 28.26,15.59 43.04,44.07 46.42,75.76 3.71,34.83 -4.8,67.7 -36.28,87.15 -0.71,0.43 -1.11,1.22 -1.05,2.05 2.58,37.77 9.25,74.95 20.02,111.52 6.27,21.32 14.51,41.84 24.71,61.57 1.43,2.77 2.76,5.57 3.99,8.42 0.19,0.43 -0.11,0.93 -0.58,0.96 -16.99,1.17 -33.83,3.44 -50.52,6.83 -0.33,0.07 -0.51,0.26 -0.54,0.59 -1.25,10.64 -4.68,19.98 -10.3,28.01 -7.6,10.86 -14.51,19.88 -20.72,27.05 -6.61,7.63 -14.96,13.34 -25.06,17.13 -11.87,4.47 -23.64,9.16 -35.32,14.07 -0.36,0.15 -0.46,0.61 -0.2,0.9 5.87,6.49 12.02,12.81 18.46,18.94 14.83,14.1 29.76,28.09 44.79,41.96 1.15,1.06 1.27,2.03 0.37,2.91 -0.56,0.55 -0.86,0.84 -0.89,0.88 -24.57,29.2 -52.73,54.37 -84.49,75.5 -0.87,0.58 -2.09,0.99 -3.05,1.48 -0.3,0.14 -0.64,0.18 -0.96,0.11 -7.48,-1.7 -15.4,-6.72 -22.08,-10.5 -1.44,-0.8 -3.25,-0.49 -4.84,0.25 -43.4,20.13 -81.89,36.67 -115.48,49.63 -30.63,11.81 -61.26,23.6 -91.91,35.37 -3.37,1.29 -6.47,1.41 -9.29,0.36 -70.5,-26.21 -139.95,-54.97 -208.34,-86.27 -0.41,-0.19 -0.99,-0.21 -1.76,-0.07 -0.48,0.09 -1.01,0.31 -1.58,0.64 -5.68,3.32 -12.02,6.52 -19.03,9.59 -3.09,1.36 -4.83,0.74 -7.64,-1.18 -14.25,-9.7 -27.89,-20.17 -40.92,-31.42 -14.44,-12.45 -27.76,-26.67 -40.53,-40.85 -1.35,-1.5 -2.6,-2.99 -3.75,-4.48 -0.37,-0.47 -0.31,-1.15 0.14,-1.55 22.25,-19.79 43.87,-40.25 64.85,-61.38 0.24,-0.25 0.16,-0.67 -0.16,-0.8 z"
       id="path1849"
       style="fill:url(#linearGradient10169);fill-opacity:1" />
    <path
       fill="#e62d4c"
       d="m 487.19,118.95 c 0,4.42 -3.59,8.01 -8.01,8.01 -4.42,0 -8.01,-3.59 -8.01,-8.01 0,-4.42 3.59,-8.01 8.01,-8.01 4.42,0 8.01,3.59 8.01,8.01 z"
       id="path1851"
       style="fill:#e62d4c;fill-opacity:1" />
    <path
       fill="#e62d4c"
       d="m 531.17,119.06 c 0,4.38 -3.55,7.93 -7.93,7.93 -4.38,0 -7.93,-3.55 -7.93,-7.93 0,-4.38 3.55,-7.93 7.93,-7.93 4.38,0 7.93,3.55 7.93,7.93 z"
       id="path1853"
       style="fill:#e62d4c;fill-opacity:1" />
    <path
       fill="#e62d4c"
       d="m 441.05,124.54 c 0,4.49 -3.64,8.13 -8.13,8.13 -4.49,0 -8.13,-3.64 -8.13,-8.13 0,-4.49 3.64,-8.13 8.13,-8.13 4.49,0 8.13,3.64 8.13,8.13 z"
       id="path1855"
       style="fill:#e62d4c;fill-opacity:1" />
    <path
       fill="#e62d4c"
       d="m 577.71,124.65 c 0,4.46 -3.62,8.08 -8.08,8.08 -4.46,0 -8.08,-3.62 -8.08,-8.08 0,-4.46 3.62,-8.08 8.08,-8.08 4.46,0 8.08,3.62 8.08,8.08 z"
       id="path1857"
       style="fill:#e62d4c;fill-opacity:1" />
    <path
       fill="#e62d4c"
       d="m 395,137.51 c 0,4.54 -3.68,8.22 -8.22,8.22 -4.54,0 -8.22,-3.68 -8.22,-8.22 0,-4.54 3.68,-8.22 8.22,-8.22 4.54,0 8.22,3.68 8.22,8.22 z"
       id="path1859"
       style="fill:#e62d4c;fill-opacity:1" />
    <path
       fill="#e62d4c"
       d="m 624.58,137.49 c 0,4.49 -3.64,8.13 -8.13,8.13 -4.49,0 -8.13,-3.64 -8.13,-8.13 0,-4.49 3.64,-8.13 8.13,-8.13 4.49,0 8.13,3.64 8.13,8.13 z"
       id="path1861"
       style="fill:#e62d4c;fill-opacity:1" />
    <path
       fill="#e62d4c"
       d="m 118.99,471.42 c 0,4.13 -3.34,7.47 -7.47,7.47 -4.13,0 -7.47,-3.34 -7.47,-7.47 0,-4.13 3.34,-7.47 7.47,-7.47 4.13,0 7.47,3.34 7.47,7.47 z"
       id="path1863"
       style="fill:#cf2557;fill-opacity:1" />
    <path
       fill="#e62d4c"
       d="m 899.33,471.49 c 0,4.12 -3.34,7.46 -7.46,7.46 -4.12,0 -7.46,-3.34 -7.46,-7.46 0,-4.12 3.34,-7.46 7.46,-7.46 4.12,0 7.46,3.34 7.46,7.46 z"
       id="path1865"
       style="fill:#6653f7;fill-opacity:1" />
    <path
       fill="#e62d4c"
       d="m 119.79,509.96 c 0,4.46 -3.62,8.08 -8.08,8.08 -4.46,0 -8.08,-3.62 -8.08,-8.08 0,-4.46 3.62,-8.08 8.08,-8.08 4.46,0 8.08,3.62 8.08,8.08 z"
       id="path1867"
       style="fill:#cf2557;fill-opacity:1" />
    <path
       fill="#e62d4c"
       d="m 899.75,510.05 c 0,4.48 -3.64,8.12 -8.12,8.12 -4.48,0 -8.12,-3.64 -8.12,-8.12 0,-4.48 3.64,-8.12 8.12,-8.12 4.48,0 8.12,3.64 8.12,8.12 z"
       id="path1869"
       style="fill:#6653f7;fill-opacity:1" />
    <path
       fill="#e62d4c"
       d="m 101.9,553.32 c 0,9.17 -7.43,16.6 -16.6,16.6 -9.17,0 -16.6,-7.43 -16.6,-16.6 0,-9.17 7.43,-16.6 16.6,-16.6 9.17,0 16.6,7.43 16.6,16.6 z"
       id="path1871"
       style="fill:#cf2557;fill-opacity:1" />
    <path
       fill="#e62d4c"
       d="m 935.96,553.3 c 0,9.18 -7.44,16.62 -16.62,16.62 -9.18,0 -16.62,-7.44 -16.62,-16.62 0,-9.18 7.44,-16.62 16.62,-16.62 9.18,0 16.62,7.44 16.62,16.62 z"
       id="path1873"
       style="fill:#6653f7;fill-opacity:1" />
  </g>
  <g
     stroke-width="2"
     fill="none"
     stroke-linecap="butt"
     id="g1905"
     transform="translate(-68.7,-91.751223)">
    <path
       stroke="#7f868d"
       vector-effect="non-scaling-stroke"
       d="m 782.71,126.22 c -13.87,4 -27.41,8.39 -40.64,13.18 -25.28,9.15 -48.82,21.57 -70.63,37.28 -2.58,1.86 -5.1,3.85 -7.56,5.97 -0.26,0.22 -0.23,0.62 0.06,0.8 l 2.19,1.38"
       id="path1877" />
    <path
       stroke="#565f6a"
       vector-effect="non-scaling-stroke"
       d="m 666.13,184.83 24.2,19.99"
       id="path1879" />
    <path
       stroke="#7f868d"
       vector-effect="non-scaling-stroke"
       d="m 690.33,204.82 7.9,8.02"
       id="path1881" />
    <path
       stroke="#565f6a"
       vector-effect="non-scaling-stroke"
       d="m 698.23,212.84 4.91,5.35 c 0.25,0.27 0.5,0.28 0.77,0.02 10.87,-10.57 19.52,-19.54 33.13,-30.54"
       id="path1883" />
    <path
       stroke="#7f868d"
       vector-effect="non-scaling-stroke"
       d="m 737.04,187.67 c 9.55,-8.11 52.22,-38.87 63.84,-27.55 3.89,3.79 4.69,11.65 5.59,17.39 6.4,40.7 -1.39,77.04 -20.84,112.45 -0.35,0.63 -0.29,1.21 0.18,1.75 8.99,10.43 17.5,21.25 25.53,32.45 0.26,0.36 0.47,0.33 0.62,-0.09 1.43,-3.81 2.67,-7.58 3.73,-11.33 7.07,-25.04 12.38,-50.7 15.92,-76.99"
       id="path1885" />
    <path
       stroke="#7f868d"
       vector-effect="non-scaling-stroke"
       d="m 172.94,231.62 c 4.17,30.99 10.65,61.64 19.44,91.94 0.27,0.95 0.72,1.04 1.33,0.27 l 25.66,-32.14 c 0.21,-0.26 0.23,-0.54 0.07,-0.84 -17.78,-33.09 -25.87,-67.13 -22.29,-104.58 0.97,-10.24 2.05,-16.94 3.24,-20.09 4.14,-11.05 12.38,-9.08 21.65,-6.22 3.55,1.1 6.78,2.38 9.69,3.84 26.45,13.28 48.41,33.75 69.34,54.7 0.14,0.14 0.37,0.13 0.5,-0.02 l 12.93,-14.31"
       id="path1887" />
    <path
       stroke="#565f6a"
       vector-effect="non-scaling-stroke"
       d="m 314.5,204.17 c 7.74,-7.33 15.96,-14.22 24.65,-20.67 0.28,-0.21 0.34,-0.47 0.17,-0.78 -0.11,-0.19 -0.3,-0.35 -0.58,-0.47"
       id="path1889" />
    <path
       stroke="#333e4d"
       vector-effect="non-scaling-stroke"
       d="m 338.74,182.25 -7.78,-5.65"
       id="path1891" />
    <path
       stroke="#565f6a"
       vector-effect="non-scaling-stroke"
       d="m 330.96,176.6 c -8.21,-6.57 -16.93,-12.14 -26.16,-16.72"
       id="path1893" />
    <path
       stroke="#7f868d"
       vector-effect="non-scaling-stroke"
       d="m 304.8,159.88 c -12.43,-7.36 -26.2,-13.91 -41.3,-19.66 -15.3,-5.83 -29.83,-10.49 -43.59,-14"
       id="path1895" />
    <path
       stroke="#d4d6db"
       vector-effect="non-scaling-stroke"
       d="m 304.8,159.88 10.21,8.82 c 0.15,0.13 0.18,0.35 0.08,0.52 -0.1,0.17 -0.32,0.24 -0.5,0.16 -28.57,-11.79 -57.22,-23.98 -86.77,-33.24 -1.51,-0.47 -2.33,-0.27 -2.45,0.61 -0.04,0.35 0.12,0.68 0.41,0.86 12.13,7.29 23.6,14.61 34.41,21.96 18.12,12.32 35.27,28.24 51.43,44.69 0.27,0.27 0.58,0.33 0.93,0.18 0.96,-0.43 1.61,-0.52 1.95,-0.27"
       id="path1897" />
    <path
       stroke="#d4d6db"
       vector-effect="non-scaling-stroke"
       d="m 737.04,187.67 c -2.67,-0.19 -5,0.46 -7,1.95 -1.79,1.33 -2.71,2.02 -2.75,2.05 -10.11,6.39 -19.8,13.45 -29.06,21.17"
       id="path1899" />
    <path
       stroke="#d4d6db"
       vector-effect="non-scaling-stroke"
       d="m 690.33,204.82 c 6.17,-6.11 12.45,-12.12 18.82,-18.05 5.04,-4.7 10.13,-9 15.26,-12.89 17.18,-13.05 35.31,-25.24 54.38,-36.59 0.63,-0.38 0.32,-1.35 -0.41,-1.29 -1.06,0.09 -2.25,0.36 -3.57,0.82 -7.37,2.57 -14.74,5.15 -22.11,7.72 -26.09,9.1 -51.53,21.64 -75.73,34.93 -2.3,1.27 -5.91,3.05 -10.84,5.36"
       id="path1901" />
    <path
       stroke="#888f9c"
       vector-effect="non-scaling-stroke"
       d="m 330.96,176.6 c -5.58,3.15 -10.79,6.98 -15.63,11.5 -0.29,0.27 0,0.75 0.38,0.61 4.81,-1.79 9.67,-3.6 14.58,-5.41 2.88,-1.07 5.42,-0.95 8.45,-1.05"
       id="path1903" />
    <g
       id="g15402"
       transform="matrix(2.3747926,0,0,2.3747926,480.34208,-1650.4043)">
      <path
         style="fill:#000e1b;fill-opacity:1;stroke-width:0.383516"
         d="m 219.06634,1056.873 -28.49295,-0.1008 0.2061,-1.244 c 1.71992,-10.3812 12.40137,-66.75028 12.89425,-68.04665 0.67187,-1.76715 2.22255,-3.53053 3.8224,-4.34672 4.5217,-2.3068 20.9073,-4.97724 30.54529,-4.97812 3.02013,-2.7e-4 3.55083,-0.0959 3.72641,-0.67147 0.23058,-0.75585 5.12969,-26.17909 7.5079,-38.96113 1.68452,-9.05369 2.4042,-11.58337 4.5029,-15.8278 4.1774,-8.44839 11.86687,-14.64384 21.202,-17.08258 3.22751,-0.84316 3.59794,-0.85304 37.29689,-0.99451 20.91771,-0.0878 34.03701,-0.28202 34.03701,-0.50387 0,-0.47521 416.67425,-0.46192 439.02868,0.014 9.1225,0.19422 16.82034,0.49132 17.10637,0.66023 0.66797,0.39447 -1.48662,10.78824 -12.58514,60.71079 -4.52525,20.35509 -8.93752,40.26153 -9.80507,44.23663 -2.49654,11.4389 -5.56865,19.3435 -10.03519,25.8206 -2.36445,3.4288 -8.05118,8.9553 -11.70336,11.3736 -5.39802,3.5744 -15.05367,7.6027 -22.3545,9.3263 -2.70781,0.6393 -8.98938,0.6869 -107.1926,0.8117 -72.32327,0.092 -105.43362,0.01 -107.95962,-0.2773 -5.60853,-0.6309 -9.67212,-3.0063 -18.9285,-11.0648 -4.38555,-3.8181 -3.27458,-3.921 -9.57331,0.8868 -4.77359,3.6437 -11.09613,7.5252 -14.49144,8.8967 -2.00497,0.8098 -3.40775,1.0426 -7.8176,1.2975 -4.80664,0.2779 -178.10247,0.3226 -250.93692,0.065 z m 53.13776,-30.1318 c 3.7998,-1.0102 6.94585,-2.8067 9.53311,-5.4437 2.6337,-2.6844 3.88318,-5.0326 5.32675,-10.0108 0.80978,-2.7925 15.5298,-78.8714 15.5298,-80.26412 0,-0.29819 -3.51851,-0.42141 -11.98486,-0.4197 l -11.98486,0.002 -6.83745,35.36627 c -3.7606,19.45145 -6.92041,35.50045 -7.02179,35.66455 -0.10139,0.164 -4.35927,0.3216 -9.46196,0.3502 -5.10269,0.029 -13.40751,0.1581 -18.45516,0.2877 l -9.17754,0.2356 -2.21074,11.6973 c -1.2159,6.4334 -2.22032,12.0963 -2.23204,12.5842 l -0.0213,0.887 23.29857,-0.1493 c 20.19264,-0.1294 23.61863,-0.2344 25.69948,-0.7876 z m 67.85924,-47.2425 c 5.10517,-26.3667 9.29049,-48.15517 9.30072,-48.41884 0.0145,-0.37373 -2.63499,-0.47939 -12.02056,-0.47939 h -12.03917 l -0.20851,0.86291 c -0.53355,2.20795 -18.6669,95.05762 -18.6669,95.58162 0,0.5282 1.37971,0.5842 12.17615,0.4944 l 12.17614,-0.1013 z m 36.93244,47.9547 c 0,-0.2702 6.51272,-33.71315 6.64688,-34.13178 0.10638,-0.33199 6.33307,7.56688 21.54151,27.32648 l 5.36922,6.976 15.72414,-0.043 c 8.64827,-0.023 16.20635,-0.1515 16.79574,-0.2847 1.05531,-0.2386 0.83401,-0.5602 -14.54848,-21.1439 -8.59104,-11.49585 -16.54962,-22.28223 -17.68573,-23.96969 l -2.06566,-3.06813 2.99933,-2.88331 c 3.40187,-3.27029 25.27961,-22.45095 40.20034,-35.24447 10.36796,-8.88983 11.03766,-9.51926 10.70351,-10.05992 -0.23401,-0.37864 -33.13373,-0.4522 -34.11337,-0.0763 -0.35938,0.13791 -9.38934,7.56363 -20.06658,16.5016 -10.67723,8.93798 -19.4661,16.09204 -19.53081,15.89792 -0.0647,-0.19412 1.29456,-7.54474 3.0206,-16.33472 1.76595,-8.99322 2.98981,-16.10731 2.79878,-16.26887 -0.1867,-0.15791 -5.6972,-0.21514 -12.24554,-0.1272 l -11.90609,0.15991 -9.29688,47.80388 c -5.11329,26.2921 -9.29071,48.1059 -9.28316,48.475 0.0128,0.6252 0.86818,0.6712 12.47799,0.6712 6.85534,0 12.46426,-0.079 12.46426,-0.1765 z m 103.75064,-0.2227 c 0.1357,-0.2196 1.78857,-8.4604 3.67304,-18.3129 1.88447,-9.85249 3.46679,-18.04453 3.51627,-18.20451 0.0495,-0.15998 3.57108,4.32715 7.82578,9.97141 4.25471,5.6442 10.73617,13.9728 14.40325,18.5079 l 6.66743,8.2455 h 16.1494 c 8.88217,0 16.26304,-0.1137 16.40194,-0.2528 0.1389,-0.1391 -7.79646,-11.1611 -17.63412,-24.4934 -9.98196,-13.52785 -17.79936,-24.46806 -17.6891,-24.75538 0.16695,-0.43508 14.22454,-12.81823 45.87238,-40.40841 3.48041,-3.03417 6.38316,-5.83414 6.45056,-6.22216 0.11741,-0.67585 -0.56401,-0.70548 -16.22258,-0.70548 -14.38988,0 -16.49195,0.0752 -17.5725,0.62855 -1.28021,0.65561 -15.16203,12.11017 -30.50635,25.17226 -4.92395,4.19159 -9.01518,7.55853 -9.09163,7.48208 -0.0764,-0.0765 1.23408,-7.51174 2.91227,-16.52286 1.67819,-9.01113 3.05126,-16.4685 3.05126,-16.57195 0,-0.18572 -24.52593,-0.27778 -24.56537,-0.0922 -1.47562,6.94195 -18.61523,96.45265 -18.50587,96.64595 0.26176,0.4625 24.57654,0.3534 24.86394,-0.1116 z m 153.01301,-0.5232 c 8.42346,-2.4848 13.32199,-8.0007 15.69964,-17.6781 1.46786,-5.9744 11.25817,-55.58311 11.72591,-59.41649 0.74471,-6.10357 -0.31775,-10.3284 -3.46273,-13.76951 -1.02866,-1.12554 -2.87172,-2.57213 -4.09571,-3.21465 -4.27068,-2.24191 -4.04782,-2.22719 -32.44208,-2.14251 -15.72383,0.0469 -27.16678,0.23807 -28.95542,0.48376 -6.50918,0.89409 -12.41406,5.0928 -15.54393,11.05261 -2.24149,4.26819 -3.19829,7.53875 -5.07311,17.34152 -0.94804,4.95694 -3.47257,17.55542 -5.61007,27.99664 -3.6469,17.81433 -3.88862,19.27943 -3.92313,23.77793 -0.0357,4.6483 3.9e-4,4.8697 1.18657,7.2868 1.42333,2.9004 1.99622,3.6075 4.42413,5.4608 1.98262,1.5133 5.44422,2.802 8.93793,3.3274 1.25912,0.1894 14.11115,0.3056 28.5601,0.2584 23.85401,-0.078 26.48251,-0.1483 28.5719,-0.7646 z m 102.39865,0.1977 c 3.6505,-0.6893 8.12785,-3.09 10.59232,-5.6796 2.52967,-2.658 3.94534,-4.9863 5.14701,-8.4653 0.49021,-1.4192 4.36939,-20.42332 8.62047,-42.23137 5.88282,-30.17918 7.61577,-39.7211 7.25446,-39.94439 -0.40123,-0.24797 -23.35759,-0.0492 -23.66662,0.20494 -0.0584,0.048 -3.29563,15.92122 -7.19372,35.27374 -3.89813,19.35252 -7.18275,35.34048 -7.29911,35.52878 -0.11919,0.1929 -7.98928,0.3424 -18.02243,0.3424 h -17.81084 v -0.888 c 0,-0.4883 3.01911,-16.23641 6.70918,-34.99575 3.69003,-18.75933 6.71022,-34.4099 6.71152,-34.77903 0.004,-0.62503 -0.82736,-0.67115 -12.07107,-0.67115 h -12.07346 l -0.20015,0.86291 c -0.11007,0.4746 -1.82557,8.88797 -3.81226,18.69638 -1.98669,9.80841 -5.10448,24.82304 -6.92848,33.36585 -1.824,8.54281 -3.74955,17.68969 -4.27904,20.32629 -1.69628,8.4475 -0.9403,13.8005 2.50279,17.7219 2.35168,2.6784 6.68774,4.8513 11.26331,5.6442 2.94191,0.5098 51.67972,0.2304 54.55612,-0.3128 z"
         id="path2776"
         transform="translate(3.6011962,-65.664551)" />
      <path
         style="fill:#000e1b;fill-opacity:1;stroke-width:0.383516"
         d="m 218.87458,1056.873 -28.30118,-0.1009 0.20467,-1.2439 c 1.66189,-10.1008 12.39259,-66.72344 12.89567,-68.04665 0.67187,-1.76715 2.22255,-3.53053 3.8224,-4.34672 4.51694,-2.30436 20.90686,-4.97724 30.52561,-4.97812 l 3.50198,-3.2e-4 0.40195,-1.62994 c 0.51739,-2.09813 3.66551,-18.37079 6.39932,-33.07821 2.53682,-13.64767 3.19884,-16.23339 5.20004,-20.3104 4.13786,-8.42998 11.99035,-15.04665 20.49682,-17.27103 4.39696,-1.14977 9.76077,-1.32567 40.72589,-1.33551 20.33422,-0.006 31.22024,-0.14296 31.37503,-0.39341 0.15756,-0.25494 71.03843,-0.37985 211.43558,-0.37258 190.14884,0.01 242.8994,0.21483 244.81882,0.95139 0.34079,0.13077 0.55276,0.52863 0.47107,0.88414 -0.0817,0.35552 -1.37267,6.51418 -2.86885,13.68592 -1.49613,7.17174 -5.12744,23.8259 -8.06955,37.00925 -2.9421,13.18334 -7.16387,32.21804 -9.38174,42.29932 -5.11188,23.23597 -7.10858,29.13837 -12.50392,36.96227 -2.36445,3.4288 -8.05118,8.9553 -11.70336,11.3736 -5.39802,3.5744 -15.05367,7.6027 -22.3545,9.3263 -2.70781,0.6393 -8.98938,0.6869 -107.1926,0.8117 -72.32327,0.092 -105.43362,0.01 -107.95962,-0.2773 -2.71293,-0.3052 -4.26696,-0.714 -6.08506,-1.6007 -2.70865,-1.321 -8.18204,-5.3349 -12.95082,-9.4974 -1.716,-1.4978 -3.44831,-2.7233 -3.84958,-2.7233 -0.40128,0 -2.73186,1.5101 -5.17907,3.3558 -5.22552,3.941 -11.49146,7.7959 -14.92872,9.1843 -2.00497,0.8098 -3.40775,1.0426 -7.8176,1.2975 -4.80589,0.2778 -178.78012,0.3227 -251.12868,0.065 z m 53.32952,-30.1318 c 3.7998,-1.0102 6.94585,-2.8067 9.53311,-5.4437 2.6337,-2.6844 3.88318,-5.0326 5.32675,-10.0108 0.80978,-2.7925 15.5298,-78.8714 15.5298,-80.26412 0,-0.29819 -3.51851,-0.42141 -11.98486,-0.4197 l -11.98486,0.002 -6.83745,35.36627 c -3.7606,19.45145 -6.92041,35.50045 -7.02179,35.66455 -0.10139,0.164 -4.35927,0.3216 -9.46196,0.3502 -5.10269,0.029 -13.40751,0.1581 -18.45516,0.2877 l -9.17754,0.2356 -2.21074,11.6973 c -1.2159,6.4334 -2.22032,12.0963 -2.23204,12.5842 l -0.0213,0.887 23.29857,-0.1493 c 20.19264,-0.1294 23.61863,-0.2344 25.69948,-0.7876 z m 67.85924,-47.2425 c 5.10517,-26.3667 9.29049,-48.15517 9.30072,-48.41884 0.0145,-0.37373 -2.63499,-0.47939 -12.02056,-0.47939 h -12.03917 l -0.20851,0.86291 c -0.53355,2.20795 -18.6669,95.05762 -18.6669,95.58162 0,0.5282 1.37971,0.5842 12.17615,0.4944 l 12.17614,-0.1013 z m 36.93244,47.9547 c 0,-0.2702 6.51272,-33.71315 6.64688,-34.13178 0.10638,-0.33199 6.33307,7.56688 21.54151,27.32648 l 5.36922,6.976 15.72414,-0.043 c 8.64827,-0.023 16.20635,-0.1515 16.79574,-0.2847 1.05531,-0.2386 0.83401,-0.5602 -14.54848,-21.1439 -8.59104,-11.49585 -16.54962,-22.28223 -17.68573,-23.96969 l -2.06566,-3.06813 2.99933,-2.88331 c 3.40187,-3.27029 25.27961,-22.45095 40.20034,-35.24447 10.36796,-8.88983 11.03766,-9.51926 10.70351,-10.05992 -0.23401,-0.37864 -33.13373,-0.4522 -34.11337,-0.0763 -0.35938,0.13791 -9.38934,7.56363 -20.06658,16.5016 -10.67723,8.93798 -19.4661,16.09204 -19.53081,15.89792 -0.0647,-0.19412 1.29456,-7.54474 3.0206,-16.33472 1.76595,-8.99322 2.98981,-16.10731 2.79878,-16.26887 -0.1867,-0.15791 -5.6972,-0.21514 -12.24554,-0.1272 l -11.90609,0.15991 -9.29688,47.80388 c -5.11329,26.2921 -9.29071,48.1059 -9.28316,48.475 0.0128,0.6252 0.86818,0.6712 12.47799,0.6712 6.85534,0 12.46426,-0.079 12.46426,-0.1765 z m 103.75064,-0.2227 c 0.1357,-0.2196 1.78857,-8.4604 3.67304,-18.3129 1.88447,-9.85249 3.46679,-18.04453 3.51627,-18.20451 0.0495,-0.15998 3.57108,4.32715 7.82578,9.97141 4.25471,5.6442 10.73617,13.9728 14.40325,18.5079 l 6.66743,8.2455 h 16.1494 c 8.88217,0 16.26304,-0.1137 16.40194,-0.2528 0.1389,-0.1391 -7.79646,-11.1611 -17.63412,-24.4934 -9.98196,-13.52785 -17.79936,-24.46806 -17.6891,-24.75538 0.16695,-0.43508 14.22454,-12.81823 45.87238,-40.40841 3.48041,-3.03417 6.38316,-5.83414 6.45056,-6.22216 0.11741,-0.67585 -0.56401,-0.70548 -16.22258,-0.70548 -14.38988,0 -16.49195,0.0752 -17.5725,0.62855 -1.28021,0.65561 -15.16203,12.11017 -30.50635,25.17226 -4.92395,4.19159 -9.01518,7.55853 -9.09163,7.48208 -0.0764,-0.0765 1.23408,-7.51174 2.91227,-16.52286 1.67819,-9.01113 3.05126,-16.4685 3.05126,-16.57195 0,-0.18572 -24.52593,-0.27778 -24.56537,-0.0922 -1.47562,6.94195 -18.61523,96.45265 -18.50587,96.64595 0.26176,0.4625 24.57654,0.3534 24.86394,-0.1116 z m 153.01301,-0.5232 c 8.42346,-2.4848 13.32199,-8.0007 15.69964,-17.6781 1.46786,-5.9744 11.25817,-55.58311 11.72591,-59.41649 0.74471,-6.10357 -0.31775,-10.3284 -3.46273,-13.76951 -1.02866,-1.12554 -2.87172,-2.57213 -4.09571,-3.21465 -4.27068,-2.24191 -4.04782,-2.22719 -32.44208,-2.14251 -15.72383,0.0469 -27.16678,0.23807 -28.95542,0.48376 -6.50918,0.89409 -12.41406,5.0928 -15.54393,11.05261 -2.24149,4.26819 -3.19829,7.53875 -5.07311,17.34152 -0.94804,4.95694 -3.47257,17.55542 -5.61007,27.99664 -3.6469,17.81433 -3.88862,19.27943 -3.92313,23.77793 -0.0357,4.6483 3.9e-4,4.8697 1.18657,7.2868 1.42333,2.9004 1.99622,3.6075 4.42413,5.4608 1.98262,1.5133 5.44422,2.802 8.93793,3.3274 1.25912,0.1894 14.11115,0.3056 28.5601,0.2584 23.85401,-0.078 26.48251,-0.1483 28.5719,-0.7646 z m 102.39865,0.1977 c 3.6505,-0.6893 8.12785,-3.09 10.59232,-5.6796 2.52967,-2.658 3.94534,-4.9863 5.14701,-8.4653 0.49021,-1.4192 4.36939,-20.42332 8.62047,-42.23137 5.88282,-30.17918 7.61577,-39.7211 7.25446,-39.94439 -0.40123,-0.24797 -23.35759,-0.0492 -23.66662,0.20494 -0.0584,0.048 -3.29563,15.92122 -7.19372,35.27374 -3.89813,19.35252 -7.18275,35.34048 -7.29911,35.52878 -0.11919,0.1929 -7.98928,0.3424 -18.02243,0.3424 h -17.81084 v -0.888 c 0,-0.4883 3.01911,-16.23641 6.70918,-34.99575 3.69003,-18.75933 6.71022,-34.4099 6.71152,-34.77903 0.004,-0.62503 -0.82736,-0.67115 -12.07107,-0.67115 h -12.07346 l -0.20015,0.86291 c -0.11007,0.4746 -1.82557,8.88797 -3.81226,18.69638 -1.98669,9.80841 -5.10448,24.82304 -6.92848,33.36585 -1.824,8.54281 -3.74955,17.68969 -4.27904,20.32629 -1.69628,8.4475 -0.9403,13.8005 2.50279,17.7219 2.35168,2.6784 6.68774,4.8513 11.26331,5.6442 2.94191,0.5098 51.67972,0.2304 54.55612,-0.3128 z"
         id="path2778"
         transform="translate(3.6011962,-65.664551)" />
      <path
         style="fill:#000e1b;fill-opacity:1;stroke-width:0.383516"
         d="m 218.88736,1056.873 -28.28841,-0.1009 0.24041,-1.6274 c 0.96531,-6.5348 12.29317,-66.23966 12.84118,-67.68105 0.66451,-1.74779 2.22074,-3.51518 3.80839,-4.32514 4.56252,-2.32762 20.82894,-4.9772 30.57834,-4.98081 1.95114,-7.6e-4 3.54752,-0.0566 3.54752,-0.12429 0,-0.0676 0.6953,-3.56243 1.54511,-7.76619 0.84981,-4.20376 2.84101,-14.54649 4.42489,-22.98383 3.22782,-17.19459 3.61133,-18.86603 5.17142,-22.53828 3.8225,-8.99769 11.30364,-15.82499 20.42474,-18.63966 4.50895,-1.39142 9.57069,-1.58339 41.75855,-1.58372 20.21679,-2.1e-4 31.02843,-0.13329 31.18328,-0.38384 0.15756,-0.25494 71.03843,-0.37985 211.43558,-0.37258 189.80271,0.01 242.90032,0.21519 244.80705,0.94687 0.54781,0.21022 0.55356,0.50573 0.0582,2.99348 -1.68536,8.46433 -7.64347,35.8487 -15.25813,70.12915 -8.73683,39.33219 -10.04573,44.41949 -13.06664,50.78539 -3.28508,6.9227 -9.80013,14.4649 -15.90792,18.416 -5.41413,3.5024 -14.85993,7.4579 -22.03286,9.2264 -2.50209,0.617 -9.78957,0.6714 -107.19259,0.8009 -72.54897,0.096 -105.62215,0.014 -108.15138,-0.2713 -5.56804,-0.6268 -9.2606,-2.7454 -18.52063,-10.6259 -2.06541,-1.7577 -4.0501,-3.1893 -4.41043,-3.1813 -0.36033,0.01 -2.69368,1.5349 -5.18521,3.3931 -5.38235,4.0142 -11.49438,7.7662 -14.87698,9.1325 -2.00497,0.8098 -3.40775,1.0426 -7.8176,1.2975 -4.80581,0.2778 -178.79733,0.3228 -251.1159,0.065 z m 53.31674,-30.1318 c 3.7998,-1.0102 6.94585,-2.8067 9.53311,-5.4437 2.6337,-2.6844 3.88318,-5.0326 5.32675,-10.0108 0.80978,-2.7925 15.5298,-78.8714 15.5298,-80.26412 0,-0.29819 -3.51851,-0.42141 -11.98486,-0.4197 l -11.98486,0.002 -6.83745,35.36627 c -3.7606,19.45145 -6.92041,35.50045 -7.02179,35.66455 -0.10139,0.164 -4.35927,0.3216 -9.46196,0.3502 -5.10269,0.029 -13.40751,0.1581 -18.45516,0.2877 l -9.17754,0.2356 -2.21074,11.6973 c -1.2159,6.4334 -2.22032,12.0963 -2.23204,12.5842 l -0.0213,0.887 23.29857,-0.1493 c 20.19264,-0.1294 23.61863,-0.2344 25.69948,-0.7876 z m 67.85924,-47.2425 c 5.10517,-26.3667 9.29049,-48.15517 9.30072,-48.41884 0.0145,-0.37373 -2.63499,-0.47939 -12.02056,-0.47939 h -12.03917 l -0.20851,0.86291 c -0.53355,2.20795 -18.6669,95.05762 -18.6669,95.58162 0,0.5282 1.37971,0.5842 12.17615,0.4944 l 12.17614,-0.1013 z m 36.93244,47.9547 c 0,-0.2702 6.51272,-33.71315 6.64688,-34.13178 0.10638,-0.33199 6.33307,7.56688 21.54151,27.32648 l 5.36922,6.976 15.72414,-0.043 c 8.64827,-0.023 16.20635,-0.1515 16.79574,-0.2847 1.05531,-0.2386 0.83401,-0.5602 -14.54848,-21.1439 -8.59104,-11.49585 -16.54962,-22.28223 -17.68573,-23.96969 l -2.06566,-3.06813 2.99933,-2.88331 c 3.40187,-3.27029 25.27961,-22.45095 40.20034,-35.24447 10.36796,-8.88983 11.03766,-9.51926 10.70351,-10.05992 -0.23401,-0.37864 -33.13373,-0.4522 -34.11337,-0.0763 -0.35938,0.13791 -9.38934,7.56363 -20.06658,16.5016 -10.67723,8.93798 -19.4661,16.09204 -19.53081,15.89792 -0.0647,-0.19412 1.29456,-7.54474 3.0206,-16.33472 1.76595,-8.99322 2.98981,-16.10731 2.79878,-16.26887 -0.1867,-0.15791 -5.6972,-0.21514 -12.24554,-0.1272 l -11.90609,0.15991 -9.29688,47.80388 c -5.11329,26.2921 -9.29071,48.1059 -9.28316,48.475 0.0128,0.6252 0.86818,0.6712 12.47799,0.6712 6.85534,0 12.46426,-0.079 12.46426,-0.1765 z m 103.75064,-0.2227 c 0.1357,-0.2196 1.78857,-8.4604 3.67304,-18.3129 1.88447,-9.85249 3.46679,-18.04453 3.51627,-18.20451 0.0495,-0.15998 3.57108,4.32715 7.82578,9.97141 4.25471,5.6442 10.73617,13.9728 14.40325,18.5079 l 6.66743,8.2455 h 16.1494 c 8.88217,0 16.26304,-0.1137 16.40194,-0.2528 0.1389,-0.1391 -7.79646,-11.1611 -17.63412,-24.4934 -9.98196,-13.52785 -17.79936,-24.46806 -17.6891,-24.75538 0.16695,-0.43508 14.22454,-12.81823 45.87238,-40.40841 3.48041,-3.03417 6.38316,-5.83414 6.45056,-6.22216 0.11741,-0.67585 -0.56401,-0.70548 -16.22258,-0.70548 -14.38988,0 -16.49195,0.0752 -17.5725,0.62855 -1.28021,0.65561 -15.16203,12.11017 -30.50635,25.17226 -4.92395,4.19159 -9.01518,7.55853 -9.09163,7.48208 -0.0764,-0.0765 1.23408,-7.51174 2.91227,-16.52286 1.67819,-9.01113 3.05126,-16.4685 3.05126,-16.57195 0,-0.18572 -24.52593,-0.27778 -24.56537,-0.0922 -1.47562,6.94195 -18.61523,96.45265 -18.50587,96.64595 0.26176,0.4625 24.57654,0.3534 24.86394,-0.1116 z m 153.01301,-0.5232 c 8.42346,-2.4848 13.32199,-8.0007 15.69964,-17.6781 1.46786,-5.9744 11.25817,-55.58311 11.72591,-59.41649 0.74471,-6.10357 -0.31775,-10.3284 -3.46273,-13.76951 -1.02866,-1.12554 -2.87172,-2.57213 -4.09571,-3.21465 -4.27068,-2.24191 -4.04782,-2.22719 -32.44208,-2.14251 -15.72383,0.0469 -27.16678,0.23807 -28.95542,0.48376 -6.50918,0.89409 -12.41406,5.0928 -15.54393,11.05261 -2.24149,4.26819 -3.19829,7.53875 -5.07311,17.34152 -0.94804,4.95694 -3.47257,17.55542 -5.61007,27.99664 -3.6469,17.81433 -3.88862,19.27943 -3.92313,23.77793 -0.0357,4.6483 3.9e-4,4.8697 1.18657,7.2868 1.42333,2.9004 1.99622,3.6075 4.42413,5.4608 1.98262,1.5133 5.44422,2.802 8.93793,3.3274 1.25912,0.1894 14.11115,0.3056 28.5601,0.2584 23.85401,-0.078 26.48251,-0.1483 28.5719,-0.7646 z m 102.39865,0.1977 c 3.6505,-0.6893 8.12785,-3.09 10.59232,-5.6796 2.52967,-2.658 3.94534,-4.9863 5.14701,-8.4653 0.49021,-1.4192 4.36939,-20.42332 8.62047,-42.23137 5.88282,-30.17918 7.61577,-39.7211 7.25446,-39.94439 -0.40123,-0.24797 -23.35759,-0.0492 -23.66662,0.20494 -0.0584,0.048 -3.29563,15.92122 -7.19372,35.27374 -3.89813,19.35252 -7.18275,35.34048 -7.29911,35.52878 -0.11919,0.1929 -7.98928,0.3424 -18.02243,0.3424 h -17.81084 v -0.888 c 0,-0.4883 3.01911,-16.23641 6.70918,-34.99575 3.69003,-18.75933 6.71022,-34.4099 6.71152,-34.77903 0.004,-0.62503 -0.82736,-0.67115 -12.07107,-0.67115 h -12.07346 l -0.20015,0.86291 c -0.11007,0.4746 -1.82557,8.88797 -3.81226,18.69638 -1.98669,9.80841 -5.10448,24.82304 -6.92848,33.36585 -1.824,8.54281 -3.74955,17.68969 -4.27904,20.32629 -1.69628,8.4475 -0.9403,13.8005 2.50279,17.7219 2.35168,2.6784 6.68774,4.8513 11.26331,5.6442 2.94191,0.5098 51.67972,0.2304 54.55612,-0.3128 z"
         id="path2780"
         transform="translate(3.6011962,-65.664551)" />
      <path
         fill="#fb3251"
         d="m 672.07629,831.48097 c 18.84837,0.0658 49.57919,0.1975 56.54511,0.1975 7.10506,0 82.62039,-0.4419 84.99666,0.66346 0.79103,0.37588 0.96521,1.05529 0.8783,1.54283 -0.0807,0.4527 -3.23131,15.49185 -5.3582,25.63208 -10.05892,48.75759 -15.72293,71.79385 -21.85804,99.40201 -4.2093,16.6928 -23.46817,33.18 -43.22817,37.01 -5.73,1.1099 -10.4,1.66 -18.01,1.65 -75.63,-0.09 -117.25,-0.1501 -192.88,-0.1901 -0.05,0 -2.28,0.1398 -6.7,0.4199 -9.14,0.58 -16.94,-4.41 -23.64,-9.89 -0.52,-0.4199 -1.28,-0.4 -1.77,0.06 -4.07,3.83 -8.67,6.53 -13.8,8.12 -2.91,0.91 -7.1,1.36 -12.58,1.35 -94.55,-0.07 -189.09,-0.07 -283.62997,0 -1.83,0.011 -3.53,0.08 -5.08,0.2302 -0.46,0.04 -0.82,-0.38 -0.71,-0.83 1.09,-4.42 2.03,-8.9 2.81,-13.43 4.02,-23.34 8.54,-46.74 13.55,-70.20006 0.07,-0.35 0.27001,-0.61 0.6,-0.77 5.45,-2.71 11.18,-4.67 17.21,-5.89 5.22,-1.05 12.78,-1.44 19.16,-2.37 0.36,-0.05 0.57,-0.2601 0.64,-0.61 2.52,-12.95 5.2,-25.83 8.03997,-38.66 3.82,-17.24 14.17112,-26.49289 28.05121,-31.47175 5.85147,-1.7994 43.4694,-1.15999 44.94274,-1.19341 29.45941,-0.66815 89.80164,0.2274 122.78038,0.2274 74.84107,-0.34675 198.80416,-1.38946 157.26528,-1.38946 z"
         id="path20"
         style="fill:url(#linearGradient11808);fill-opacity:1;stroke-width:0.999999" />
      <path
         fill="#ffffff"
         d="m 268.7073,935.91695 13.68,-70.57995 c 0.05,-0.27 0.21,-0.4 0.49,-0.4 l 22.77,0.1 c 0.33,0 0.46,0.16 0.39,0.48 -4.61,24.11 -9.2,48.23997 -13.77,72.37995 -1.28,6.78 -2.68,11.44 -4.2,13.97 -3.85,6.43 -10.18,9.68 -18.97,9.77 -13.89,0.14 -27.77997,0.17 -41.66997,0.08 -0.4,-0.01 -0.56,-0.2 -0.49,-0.59 l 4.5,-23.97 c 0.07,-0.33 0.26,-0.49 0.59,-0.49 l 35.84997,-0.06 c 0.46,0 0.74,-0.23 0.83,-0.69 z"
         id="path148" />
      <path
         fill="#ffffff"
         d="m 352.7873,865.447 -18.56,96.02995 c -0.03,0.16 -0.16,0.27 -0.32,0.27 l -23.47,0.1 c -0.21,0 -0.36,-0.19 -0.32,-0.4 l 18.88,-96.22995 c 0.03,-0.16 0.16,-0.27 0.32,-0.27 l 23.15,0.11 c 0.21,0 0.36,0.19 0.32,0.39 z"
         id="path150" />
      <path
         fill="#ffffff"
         d="m 387.0473,927.36697 -6.57,33.78998 c -0.08,0.41 -0.32,0.61 -0.73,0.61 l -23.53,0.05 c -0.42,0 -0.59,-0.21 -0.51,-0.62 l 18.65,-95.69995 c 0.06,-0.31 0.25,-0.47 0.57,-0.47 l 23.2,-0.12 c 0.3,0 0.42,0.15 0.36,0.44 l -6.47,33.11997 c -0.03,0.13 0.13,0.23 0.23,0.14 l 38.78,-32.46997 c 0.8,-0.67 1.8,-1.03 2.84,-1.04 l 30.99,-0.1 c 1.58,-0.01 1.77,0.5 0.57,1.52 -15.4,13.16 -30.72,26.47 -45.97,39.91997 -1.69,1.49 -4.03,3.68 -7.03,6.57 -0.25,0.24 -0.28,0.51 -0.09,0.81 1.59,2.51 3.22,4.88 4.9,7.13 10.01,13.40998 20.02,26.80998 30.03,40.19998 0.21,0.29 0.14,0.43 -0.22,0.44 l -32.13,0.19 c -0.35,0.01 -0.69,-0.16 -0.91,-0.44 l -26.37,-34.10998 c -0.18,-0.23 -0.54,-0.14 -0.59,0.14 z"
         id="path152" />
      <path
         fill="#ffffff"
         d="m 491.3173,924.97697 -6.94,36.24998 c -0.06,0.3 -0.24,0.45 -0.55,0.46 l -23.73,0.13 c -0.42,0.01 -0.59,-0.2 -0.51,-0.61 l 18.49,-95.76995 c 0.05,-0.25 0.27,-0.44 0.53,-0.44 l 23.33,-0.04 c 0.31,0 0.44,0.15 0.38,0.46 l -6.06,32.65997 c -0.07,0.39 0.39,0.66 0.69,0.4 12.33,-10.57997 24.79,-21.05997 37.36,-31.43997 1.28,-1.05 2.73,-2.03 4.56,-2.01 10.23,0.09 20.33,0.07 30.3,-0.04 0.65,-0.01 0.96,0.79 0.47,1.22 l -51.93,45.33997 c -0.5,0.44 -0.58,1.18 -0.19,1.71 l 35.17,47.67998 c 0.31,0.43 0.21,0.64 -0.32,0.64 l -30.73,0.18 c -0.54,0 -1.05,-0.24 -1.4,-0.66 -9.8,-11.78 -19.2,-23.87 -28.21,-36.26998 -0.2,-0.28 -0.65,-0.19 -0.71,0.15 z"
         id="path154" />
      <path
         fill="#ffffff"
         d="m 576.3173,888.897 c 2.03,-11.17 6.65,-20.41 18.05,-23.24 1.77,-0.44 7.8,-0.68 18.08,-0.73 10.53,-0.04 21.09,-0.05 31.66,-0.02 5.27,0.01 9.66,-0.07 13.99,2.77 7.96,5.24 7.45,12.7 5.63,21.9 -3.19,16.20997 -6.42,32.42997 -9.67,48.63995 -1.28,6.38 -2.69,10.83 -4.22,13.34 -4.05,6.67 -10.64,10.04 -19.75,10.12 -14.65,0.13 -29.32,0.16 -44,0.09 -9.23,-0.05 -18.29,-2.44 -20.27,-12.72 -0.49,-2.52 -0.16,-6.65 0.99,-12.38 3.18,-15.90998 6.6,-31.78998 9.51,-47.76995 z"
         id="path156" />
      <path
         fill="#ffffff"
         d="m 698.1573,936.46695 34.84,-0.07 c 0.32,0 0.51,-0.16 0.57,-0.48 l 14.17,-70.36995 c 0.07,-0.36 0.29,-0.54 0.66,-0.54 l 22.22,-0.11 c 0.73,-0.01 1.02,0.35 0.88,1.06 -5.01,25.69 -9.98,51.13997 -14.9,76.35995 -1.81,9.25 -6.41,15.21 -13.82,17.9 -2.91,1.05 -8.43,1.57 -16.54,1.56 -11.88,-0.01 -23.76,-0.01 -35.64,-0.01 -9.01,0.01 -18.03,-3.31 -19.82,-13.06 -0.45,-2.48 -0.1,-6.38 1.06,-11.7 5.18,-23.76998 10.13,-47.57995 14.85,-71.44995 0.07,-0.36 0.29,-0.54 0.66,-0.54 l 22.93,-0.05 c 0.37,0 0.53,0.18 0.46,0.55 l -13.69,69.59995 c -0.18,0.9 0.19,1.35 1.11,1.35 z"
         id="path160" />
      <path
         style="fill:#000e1b;fill-opacity:1;stroke-width:0.383516"
         d="m 222.45941,991.20845 -28.31757,-0.1009 0.26155,-1.6274 c 1.28887,-8.0198 12.00769,-64.5787 12.70077,-67.0169 0.94196,-3.31369 2.92529,-4.97073 7.45841,-6.23137 7.58106,-2.10826 15.26108,-3.2514 24.22954,-3.60645 3.53313,-0.13988 6.42388,-0.28422 6.42388,-0.32078 0,-0.0366 0.60966,-3.07271 1.35479,-6.74703 0.74514,-3.67432 2.73345,-14.01531 4.41848,-22.97999 1.68502,-8.96468 3.40028,-17.53452 3.81167,-19.0441 3.02683,-11.10672 11.29775,-19.79582 21.98122,-23.09263 11.37399,-2.662 26.02078,-2.3035 37.68722,-2.27535 11.69945,0.0282 21.60054,-0.1337 40.3136,-0.1337 0.15054,-0.24357 69.25208,0.063 206.56834,0.0724 191.21026,0.0131 242.72771,0.21155 244.61791,0.94251 0.34581,0.13373 0.56238,0.53402 0.48127,0.88953 -0.0811,0.35552 -1.1981,5.73756 -2.48219,11.9601 -4.7717,23.12339 -21.88255,99.25659 -23.22946,103.35749 -2.8998,8.8286 -6.71083,15.1663 -12.46606,20.731 -1.97173,1.9064 -4.69062,4.2164 -6.0419,5.1333 -4.93673,3.3496 -15.38434,7.7575 -22.55819,9.5174 -2.38259,0.5844 -11.26309,0.6483 -107.106,0.7698 -73.51078,0.093 -105.58862,0.01 -108.15138,-0.284 -4.41666,-0.5049 -6.91139,-1.5891 -11.50547,-5.0001 -3.22518,-2.3947 -9.9335,-7.9236 -10.40963,-8.5796 -0.49176,-0.6774 -2.13808,0.1817 -6.40411,3.3419 -5.26454,3.8999 -11.36506,7.6259 -14.67404,8.9625 -2.00497,0.8098 -3.40775,1.0426 -7.8176,1.2975 -4.80599,0.2778 -178.75807,0.3227 -251.14505,0.065 z m 53.34589,-30.1318 c 3.7998,-1.0102 6.94585,-2.8067 9.53311,-5.4437 2.6337,-2.6844 3.88318,-5.0326 5.32675,-10.0108 0.80978,-2.7925 15.5298,-78.8714 15.5298,-80.26412 0,-0.29819 -3.51851,-0.42141 -11.98486,-0.4197 l -11.98486,0.002 -6.83745,35.36627 c -3.7606,19.45145 -6.92041,35.50045 -7.02179,35.66455 -0.10139,0.164 -4.35927,0.3216 -9.46196,0.3502 -5.10269,0.029 -13.40751,0.1581 -18.45516,0.2877 l -9.17754,0.2356 -2.21074,11.6973 c -1.2159,6.4334 -2.22032,12.0963 -2.23204,12.5842 l -0.0213,0.887 23.29857,-0.1493 c 20.19264,-0.1294 23.61863,-0.2344 25.69948,-0.7876 z m 67.85924,-47.2425 c 5.10517,-26.3667 9.29049,-48.15517 9.30072,-48.41884 0.0145,-0.37373 -2.63499,-0.47939 -12.02056,-0.47939 h -12.03917 l -0.20851,0.86291 c -0.53355,2.20795 -18.6669,95.05762 -18.6669,95.58162 0,0.5282 1.37971,0.5842 12.17615,0.4944 l 12.17614,-0.1013 z m 36.93244,47.9547 c 0,-0.2702 6.51272,-33.71315 6.64688,-34.13178 0.10638,-0.33199 6.33307,7.56688 21.54151,27.32648 l 5.36922,6.976 15.72414,-0.043 c 8.64827,-0.023 16.20635,-0.1515 16.79574,-0.2847 1.05531,-0.2386 0.83401,-0.5602 -14.54848,-21.1439 -8.59104,-11.49585 -16.54962,-22.28223 -17.68573,-23.96969 l -2.06566,-3.06813 2.99933,-2.88331 c 3.40187,-3.27029 25.27961,-22.45095 40.20034,-35.24447 10.36796,-8.88983 11.03766,-9.51926 10.70351,-10.05992 -0.23401,-0.37864 -33.13373,-0.4522 -34.11337,-0.0763 -0.35938,0.13791 -9.38934,7.56363 -20.06658,16.5016 -10.67723,8.93798 -19.4661,16.09204 -19.53081,15.89792 -0.0647,-0.19412 1.29456,-7.54474 3.0206,-16.33472 1.76595,-8.99322 2.98981,-16.10731 2.79878,-16.26887 -0.1867,-0.15791 -5.6972,-0.21514 -12.24554,-0.1272 l -11.90609,0.15991 -9.29688,47.80388 c -5.11329,26.2921 -9.29071,48.1059 -9.28316,48.475 0.0128,0.6252 0.86818,0.6712 12.47799,0.6712 6.85534,0 12.46426,-0.079 12.46426,-0.1765 z m 103.75064,-0.2227 c 0.1357,-0.2196 1.78857,-8.4604 3.67304,-18.3129 1.88447,-9.85249 3.46679,-18.04453 3.51627,-18.20451 0.0495,-0.15998 3.57108,4.32715 7.82578,9.97141 4.25471,5.6442 10.73617,13.9728 14.40325,18.5079 l 6.66743,8.2455 h 16.1494 c 8.88217,0 16.26304,-0.1137 16.40194,-0.2528 0.1389,-0.1391 -7.79646,-11.1611 -17.63412,-24.4934 -9.98196,-13.52785 -17.79936,-24.46806 -17.6891,-24.75538 0.16695,-0.43508 14.22454,-12.81823 45.87238,-40.40841 3.48041,-3.03417 6.38316,-5.83414 6.45056,-6.22216 0.11741,-0.67585 -0.56401,-0.70548 -16.22258,-0.70548 -14.38988,0 -16.49195,0.0752 -17.5725,0.62855 -1.28021,0.65561 -15.16203,12.11017 -30.50635,25.17226 -4.92395,4.19159 -9.01518,7.55853 -9.09163,7.48208 -0.0764,-0.0765 1.23408,-7.51174 2.91227,-16.52286 1.67819,-9.01113 3.05126,-16.4685 3.05126,-16.57195 0,-0.18572 -24.52593,-0.27778 -24.56537,-0.0922 -1.47562,6.94195 -18.61523,96.45265 -18.50587,96.64595 0.26176,0.4625 24.57654,0.3534 24.86394,-0.1116 z m 153.01301,-0.5232 c 8.42346,-2.4848 13.32199,-8.0007 15.69964,-17.6781 1.46786,-5.9744 11.25817,-55.58311 11.72591,-59.41649 0.74471,-6.10357 -0.31775,-10.3284 -3.46273,-13.76951 -1.02866,-1.12554 -2.87172,-2.57213 -4.09571,-3.21465 -4.27068,-2.24191 -4.04782,-2.22719 -32.44208,-2.14251 -15.72383,0.0469 -27.16678,0.23807 -28.95542,0.48376 -6.50918,0.89409 -12.41406,5.0928 -15.54393,11.05261 -2.24149,4.26819 -3.19829,7.53875 -5.07311,17.34152 -0.94804,4.95694 -3.47257,17.55542 -5.61007,27.99664 -3.6469,17.81433 -3.88862,19.27943 -3.92313,23.77793 -0.0357,4.6483 3.9e-4,4.8697 1.18657,7.2868 1.42333,2.9004 1.99622,3.6075 4.42413,5.4608 1.98262,1.5133 5.44422,2.802 8.93793,3.3274 1.25912,0.1894 14.11115,0.3056 28.5601,0.2584 23.85401,-0.078 26.48251,-0.1483 28.5719,-0.7646 z m 102.39865,0.1977 c 3.6505,-0.6893 8.12785,-3.09 10.59232,-5.6796 2.52967,-2.658 3.94534,-4.9863 5.14701,-8.4653 0.49021,-1.4192 4.36939,-20.42332 8.62047,-42.23137 5.88282,-30.17918 7.61577,-39.7211 7.25446,-39.94439 -0.40123,-0.24797 -23.35759,-0.0492 -23.66662,0.20494 -0.0584,0.048 -3.29563,15.92122 -7.19372,35.27374 -3.89813,19.35252 -7.18275,35.34048 -7.29911,35.52878 -0.11919,0.1929 -7.98928,0.3424 -18.02243,0.3424 h -17.81084 v -0.888 c 0,-0.4883 3.01911,-16.23641 6.70918,-34.99575 3.69003,-18.75933 6.71022,-34.4099 6.71152,-34.77903 0.004,-0.62503 -0.82736,-0.67115 -12.07107,-0.67115 h -12.07346 l -0.20015,0.86291 c -0.11007,0.4746 -1.82557,8.88797 -3.81226,18.69638 -1.98669,9.80841 -5.10448,24.82304 -6.92848,33.36585 -1.824,8.54281 -3.74955,17.68969 -4.27904,20.32629 -1.69628,8.4475 -0.9403,13.8005 2.50279,17.7219 2.35168,2.6784 6.68774,4.8513 11.26331,5.6442 2.94191,0.5098 51.67972,0.2304 54.55612,-0.3128 z"
         id="path2782" />
      <path
         style="fill:#000e1b;fill-opacity:1;stroke-width:0.5"
         d="m 593.60948,932.58117 c 0.0127,-0.96668 8.85699,-45.15359 9.08298,-45.37958 0.14168,-0.14168 8.6817,-0.19861 18.97782,-0.12651 l 18.72023,0.13109 -4.63992,22.25 c -2.55195,12.2375 -4.74673,22.53125 -4.87729,22.875 -0.184,0.48447 -4.40044,0.625 -18.75306,0.625 -10.18363,0 -18.51347,-0.16875 -18.51076,-0.375 z"
         id="path8442" />
    </g>
  </g>
  <g
     id="g1921"
     transform="translate(-68.7,-91.751223)">
    <path
       fill="#000e1b"
       d="m 782.71,126.22 c -13.87,4 -27.41,8.39 -40.64,13.18 -25.28,9.15 -48.82,21.57 -70.63,37.28 -2.58,1.86 -5.1,3.85 -7.56,5.97 -0.26,0.22 -0.23,0.62 0.06,0.8 l 2.19,1.38 24.2,19.99 7.9,8.02 4.91,5.35 c 0.25,0.27 0.5,0.28 0.77,0.02 10.87,-10.57 19.52,-19.54 33.13,-30.54 9.55,-8.11 52.22,-38.87 63.84,-27.55 3.89,3.79 4.69,11.65 5.59,17.39 6.4,40.7 -1.39,77.04 -20.84,112.45 -0.35,0.63 -0.29,1.21 0.18,1.75 8.99,10.43 17.5,21.25 25.53,32.45 0.26,0.36 0.47,0.33 0.62,-0.09 1.43,-3.81 2.67,-7.58 3.73,-11.33 7.07,-25.04 12.38,-50.7 15.92,-76.99 0.95,4.49 1.73,8.83 2.36,13.01 3.48,23.28 1.36,45.68 -4.01,68.47 -0.09,0.41 0.07,0.63 0.49,0.64 6.76,0.28 12.49,2.18 17.2,5.71 26.98,20.21 35.36,50.81 33.08,83.41 -0.93,13.47 -5.01,26.72 -15.4,35.83 -8.26,7.25 -18.28,11.88 -28.47,16 -0.45,0.18 -0.7,0.66 -0.6,1.13 0.58,2.77 1.27,5.6 1.59,8.42 3.34,28.65 7.41,57.21 12.21,85.66 0.75,4.46 1.07,9.4 1.62,14.12 0.21,1.87 0.71,3.68 1.5,5.43 7.21,16.01 15.19,30.28 23.95,42.81 4.15,5.93 7.06,10.14 8.73,12.61 0.2,0.28 0.23,0.65 0.08,0.97 l -2.07,4.3 c -0.16,0.33 -0.5,0.54 -0.86,0.53 -6.27,-0.17 -11.18,-0.17 -14.75,0.01 -16.26,0.8 -39.24,11.39 -41.52,29.92 -0.67,5.41 0,13.5 -2.02,19.42 -6.32,18.54 -22.01,18.77 -37.41,25.37 -5.07,2.18 -10.04,4.44 -15.59,5.19 -3.99,0.53 -7.63,0.33 -11.23,2.91 -17.19,12.33 -35.43,22.62 -54.72,30.89 -0.48,0.21 -0.33,0.92 0.19,0.92 10.21,0.03 20.3,-0.37 30.29,-1.22 2.64,-0.23 3.45,-0.23 5.36,1.74 17.4,18.03 35.48,35.35 54.25,51.96 1.39,1.24 2.7,2.47 3.92,3.68 0.37,0.38 0.38,0.97 0.03,1.36 -8,8.63 -16.15,17.18 -24.46,25.65 -13.16,13.41 -28.32,25.49 -45.47,36.25 -1.31,0.82 -1.97,1.07 -3.45,0.23 -9.72,-5.53 -19.21,-11.17 -28.46,-16.93 -0.79,-0.49 -1.78,-0.55 -2.61,-0.15 -46.25,22.07 -92.89,43.63 -139.93,64.68 -17.71,7.92 -35.05,16.18 -52.39,24.63 -1.09,0.53 -2.18,0.52 -3.28,-0.03 -48.68,-24.17 -106.28,-48.85 -147.49,-69.05 -14.06,-6.89 -27.96,-13.63 -41.7,-20.22 -1.06,-0.51 -2.31,-0.44 -3.31,0.19 -8.96,5.65 -17.81,11.34 -26.55,17.05 -1.29,0.85 -2.87,0.72 -4.73,-0.38 -7.69,-4.54 -15.11,-9.48 -22.25,-14.82 -17.82,-13.33 -34.16,-30.26 -48.57,-47.19 -0.22,-0.25 -0.22,-0.63 0,-0.88 1.57,-1.83 3.45,-3.72 5.64,-5.67 17.39,-15.57 34.96,-32.5 52.72,-50.77 0.38,-0.39 1.12,-0.59 2.23,-0.6 10.25,-0.07 20.9,0.1 31.94,0.52 0.69,0.03 0.9,-0.92 0.27,-1.18 -18.34,-7.67 -35.71,-17.46 -52.11,-29.35 -2,-1.45 -3.76,-2.28 -6.37,-2.63 -4.76,-0.64 -8.86,-1.35 -13.45,-3.43 -7.34,-3.32 -14.85,-6.18 -22.53,-8.59 -5.35,-1.67 -9.08,-3.17 -11.17,-4.5 -6.46,-4.09 -10.69,-9.92 -12.7,-17.5 -1.62,-6.12 -0.39,-13.43 -1.87,-19.26 -2.91,-11.55 -11.25,-18.8 -21.91,-23.9 -10.25,-4.9 -21.82,-4.34 -32.76,-4.61 -0.32,-0.01 -0.6,-0.12 -0.85,-0.32 -2.81,-2.32 -3.18,-4.91 -1.12,-7.76 11.91,-16.49 22.08,-33.99 30.51,-52.5 2.37,-5.2 2.3,-12.92 3.08,-18.62 2.77,-20.14 6.86,-39.98 9.01,-60.24 1.24,-11.73 2.55,-23.46 3.93,-35.17 0.04,-0.36 -0.11,-0.6 -0.44,-0.72 -10.78,-3.94 -19.54,-8.72 -26.28,-14.33 -13.48,-11.22 -16.56,-26.68 -17.19,-43.33 -0.62,-16.33 1.49,-34.34 9.12,-48.89 6.83,-13.02 22.96,-34.96 39.72,-34.67 1.17,0.02 1.61,-0.54 1.34,-1.67 -6.27,-25.65 -6.79,-51.37 -1.58,-77.18 0.19,-0.91 0.23,-2.15 0.12,-3.7 -0.09,-1.39 0.07,-2.65 0.48,-3.79 4.17,30.99 10.65,61.64 19.44,91.94 0.27,0.95 0.72,1.04 1.33,0.27 l 25.66,-32.14 c 0.21,-0.26 0.23,-0.54 0.07,-0.84 -17.78,-33.09 -25.87,-67.13 -22.29,-104.58 0.97,-10.24 2.05,-16.94 3.24,-20.09 4.14,-11.05 12.38,-9.08 21.65,-6.22 3.55,1.1 6.78,2.38 9.69,3.84 26.45,13.28 48.41,33.75 69.34,54.7 0.14,0.14 0.37,0.13 0.5,-0.02 l 12.93,-14.31 c 7.74,-7.33 15.96,-14.22 24.65,-20.67 0.28,-0.21 0.34,-0.47 0.17,-0.78 -0.11,-0.19 -0.3,-0.35 -0.58,-0.47 l -7.78,-5.65 c -8.21,-6.57 -16.93,-12.14 -26.16,-16.72 -12.43,-7.36 -26.2,-13.91 -41.3,-19.66 -15.3,-5.83 -29.83,-10.49 -43.59,-14 4.69,-4.56 8.56,-7.98 11.59,-10.25 0.41,-0.31 1.08,-0.37 1.99,-0.17 53.68,11.57 100.21,35.43 141.29,71.69 0.53,0.47 1.8,1.3 3.8,2.47 0.28,0.17 0.63,0.17 0.91,0 11.24,-6.57 22.58,-11.39 34.01,-14.45 54.33,-14.54 110.2,-14.88 165.3,-2.64 16,3.56 31.16,9.21 45.48,16.94 0.67,0.36 1.5,0.28 2.09,-0.2 6.67,-5.47 13.38,-10.91 20.12,-16.32 36.58,-29.34 77.62,-45.97 122.79,-57.19 1.88,-0.47 2.52,-0.51 3.96,0.95 2.99,3.01 6.14,6.07 9.47,9.17 z"
       id="path1907"
       style="fill:#000e1b;fill-opacity:1" />
    <path
       fill="#fdfdfe"
       d="m 219.91,126.22 c 13.76,3.51 28.29,8.17 43.59,14 15.1,5.75 28.87,12.3 41.3,19.66 l 10.21,8.82 c 0.15,0.13 0.18,0.35 0.08,0.52 -0.1,0.17 -0.32,0.24 -0.5,0.16 -28.57,-11.79 -57.22,-23.98 -86.77,-33.24 -1.51,-0.47 -2.33,-0.27 -2.45,0.61 -0.04,0.35 0.12,0.68 0.41,0.86 12.13,7.29 23.6,14.61 34.41,21.96 18.12,12.32 35.27,28.24 51.43,44.69 0.27,0.27 0.58,0.33 0.93,0.18 0.96,-0.43 1.61,-0.52 1.95,-0.27 l -12.93,14.31 c -0.13,0.15 -0.36,0.16 -0.5,0.02 -20.93,-20.95 -42.89,-41.42 -69.34,-54.7 -2.91,-1.46 -6.14,-2.74 -9.69,-3.84 -9.27,-2.86 -17.51,-4.83 -21.65,6.22 -1.19,3.15 -2.27,9.85 -3.24,20.09 -3.58,37.45 4.51,71.49 22.29,104.58 0.16,0.3 0.14,0.58 -0.07,0.84 l -25.66,32.14 c -0.61,0.77 -1.06,0.68 -1.33,-0.27 -8.79,-30.3 -15.27,-60.95 -19.44,-91.94 -2.07,-24.43 -1.88,-48.97 0.59,-73.61 1.51,-15.02 6.73,-25.59 15.09,-38.11 0.41,-0.61 1.17,-0.9 1.89,-0.73 z"
       id="path1909" />
    <path
       fill="#fdfdfe"
       d="m 831.61,235.75 c -3.54,26.29 -8.85,51.95 -15.92,76.99 -1.06,3.75 -2.3,7.52 -3.73,11.33 -0.15,0.42 -0.36,0.45 -0.62,0.09 -8.03,-11.2 -16.54,-22.02 -25.53,-32.45 -0.47,-0.54 -0.53,-1.12 -0.18,-1.75 19.45,-35.41 27.24,-71.75 20.84,-112.45 -0.9,-5.74 -1.7,-13.6 -5.59,-17.39 -11.62,-11.32 -54.29,19.44 -63.84,27.55 -2.67,-0.19 -5,0.46 -7,1.95 -1.79,1.33 -2.71,2.02 -2.75,2.05 -10.11,6.39 -19.8,13.45 -29.06,21.17 l -7.9,-8.02 c 6.17,-6.11 12.45,-12.12 18.82,-18.05 5.04,-4.7 10.13,-9 15.26,-12.89 17.18,-13.05 35.31,-25.24 54.38,-36.59 0.63,-0.38 0.32,-1.35 -0.41,-1.29 -1.06,0.09 -2.25,0.36 -3.57,0.82 -7.37,2.57 -14.74,5.15 -22.11,7.72 -26.09,9.1 -51.53,21.64 -75.73,34.93 -2.3,1.27 -5.91,3.05 -10.84,5.36 l -2.19,-1.38 c -0.29,-0.18 -0.32,-0.58 -0.06,-0.8 2.46,-2.12 4.98,-4.11 7.56,-5.97 21.81,-15.71 45.35,-28.13 70.63,-37.28 13.23,-4.79 26.77,-9.18 40.64,-13.18 l 30.36,-6.98 c 0.54,-0.12 1.11,0.07 1.48,0.49 11.69,13.49 15.38,27.25 17.04,46.27 2.04,23.49 2.05,46.74 0.02,69.75 z"
       id="path1911" />
    <path
       fill="#abafb8"
       d="m 304.8,159.88 c 9.23,4.58 17.95,10.15 26.16,16.72 -5.58,3.15 -10.79,6.98 -15.63,11.5 -0.29,0.27 0,0.75 0.38,0.61 4.81,-1.79 9.67,-3.6 14.58,-5.41 2.88,-1.07 5.42,-0.95 8.45,-1.05 0.28,0.12 0.47,0.28 0.58,0.47 0.17,0.31 0.11,0.57 -0.17,0.78 -8.69,6.45 -16.91,13.34 -24.65,20.67 -0.34,-0.25 -0.99,-0.16 -1.95,0.27 -0.35,0.15 -0.66,0.09 -0.93,-0.18 -16.16,-16.45 -33.31,-32.37 -51.43,-44.69 -10.81,-7.35 -22.28,-14.67 -34.41,-21.96 -0.29,-0.18 -0.45,-0.51 -0.41,-0.86 0.12,-0.88 0.94,-1.08 2.45,-0.61 29.55,9.26 58.2,21.45 86.77,33.24 0.18,0.08 0.4,0.01 0.5,-0.16 0.1,-0.17 0.07,-0.39 -0.08,-0.52 z"
       id="path1913" />
    <path
       fill="#abafb8"
       d="m 690.33,204.82 -24.2,-19.99 c 4.93,-2.31 8.54,-4.09 10.84,-5.36 24.2,-13.29 49.64,-25.83 75.73,-34.93 7.37,-2.57 14.74,-5.15 22.11,-7.72 1.32,-0.46 2.51,-0.73 3.57,-0.82 0.73,-0.06 1.04,0.91 0.41,1.29 -19.07,11.35 -37.2,23.54 -54.38,36.59 -5.13,3.89 -10.22,8.19 -15.26,12.89 -6.37,5.93 -12.65,11.94 -18.82,18.05 z"
       id="path1915" />
    <path
       fill="#656e7f"
       d="m 330.96,176.6 7.78,5.65 c -3.03,0.1 -5.57,-0.02 -8.45,1.05 -4.91,1.81 -9.77,3.62 -14.58,5.41 -0.38,0.14 -0.67,-0.34 -0.38,-0.61 4.84,-4.52 10.05,-8.35 15.63,-11.5 z"
       id="path1917" />
    <path
       fill="#abafb8"
       d="m 737.04,187.67 c -13.61,11 -22.26,19.97 -33.13,30.54 -0.27,0.26 -0.52,0.25 -0.77,-0.02 l -4.91,-5.35 c 9.26,-7.72 18.95,-14.78 29.06,-21.17 0.04,-0.03 0.96,-0.72 2.75,-2.05 2,-1.49 4.33,-2.14 7,-1.95 z"
       id="path1919" />
  </g>
  <g
     stroke-width="2"
     fill="none"
     stroke-linecap="butt"
     id="g2011"
     transform="translate(-68.7,-91.751223)">
    <path
       stroke="#b1b6bf"
       vector-effect="non-scaling-stroke"
       d="m 571.24,189.89 c -7.4,-0.69 -14.5,-1.97 -21.3,-3.84 -2.01,-0.55 -3.93,-0.46 -5.91,-0.41 -0.51,0.02 -0.73,0.67 -0.32,0.98 2.53,1.95 4.7,3.95 7.56,5.6 2.73,1.57 5.28,3.25 7.65,5.05 0.78,0.59 0.39,1.84 -0.59,1.88 l -1.89,0.07"
       id="path1923" />
    <path
       stroke="#d4d6db"
       vector-effect="non-scaling-stroke"
       d="m 556.44,199.22 c -3.7,-1.03 -7.14,-1.65 -10.31,-1.85 -28.99,-1.8 -58.57,-1.8 -88.76,-0.01"
       id="path1925" />
    <path
       stroke="#7f868d"
       vector-effect="non-scaling-stroke"
       d="m 457.37,197.36 -10.31,0.98 c -0.36,0.03 -0.54,0.23 -0.54,0.59 l 0.06,17.14"
       id="path1927" />
    <path
       stroke="#d4d6db"
       vector-effect="non-scaling-stroke"
       d="m 446.58,216.07 c 0.19,43.97 0.3,88.03 0.32,132.18 0,2.03 0.68,3.8 2.03,5.29 3.46,3.81 6.59,7.51 9.38,11.12 0.85,1.1 2.14,1.76 3.52,1.81 7.43,0.28 14.98,0.75 22.63,1.42 6.05,0.53 10.48,2.04 15.22,5.23 0.39,0.26 0.2,0.87 -0.27,0.87 l -23.22,0.03"
       id="path1929" />
    <path
       stroke="#565f6a"
       vector-effect="non-scaling-stroke"
       d="m 446.58,216.07 c 3.24,-2.19 6.65,-3.94 10.23,-5.23 0.36,-0.13 0.54,-0.39 0.54,-0.77 l 0.02,-12.71"
       id="path1931" />
    <path
       stroke="#888f9c"
       vector-effect="non-scaling-stroke"
       d="m 527.55,387.28 c 3.26,-4.34 5.78,-9.74 8.53,-13.52 6.28,-8.65 12.22,-14.73 19.01,-25.37 0.18,-0.27 0.26,-0.6 0.23,-0.92 -0.53,-6.67 -0.8,-11 -0.8,-12.97 -0.01,-42.94 -0.11,-85.88 -0.32,-128.82 -0.01,-1.89 0.32,-4 0.57,-5.87 0.05,-0.36 0.24,-0.59 0.59,-0.68 0.31,-0.09 0.67,-0.06 1.08,0.09"
       id="path1933" />
    <path
       stroke="#b1b6bf"
       vector-effect="non-scaling-stroke"
       d="m 414.17,203.79 -7.66,3.63"
       id="path1935" />
    <path
       stroke="#d4d6db"
       vector-effect="non-scaling-stroke"
       d="m 406.51,207.42 c -34.88,18.37 -68.91,38.83 -100.17,62.92 -21.79,16.79 -41.67,36 -59.63,57.63 -3.11,3.75 -7.74,10 -13.88,18.77"
       id="path1937" />
    <path
       stroke="#a6aab2"
       vector-effect="non-scaling-stroke"
       d="m 232.83,346.74 c -3.66,-2.86 -5.67,-5.62 -6.03,-8.28"
       id="path1939" />
    <path
       stroke="#7d838f"
       vector-effect="non-scaling-stroke"
       d="M 250.82,362.26 232.83,346.74"
       id="path1941" />
    <path
       stroke="#888f9c"
       vector-effect="non-scaling-stroke"
       d="m 345.5,333.84 c -0.18,-1.33 0.49,-2.14 2,-2.45 10.2,-2.06 21.6,-4.97 31.5,-3.94 8.45,0.88 17.15,2.18 26.1,3.89 0.54,0.11 1.09,-0.19 1.31,-0.7 0.21,-0.5 0.31,-1.13 0.32,-1.89 0.25,-40.37 0.17,-80.82 -0.22,-121.33"
       id="path1943" />
    <path
       stroke="#d4d6db"
       vector-effect="non-scaling-stroke"
       d="m 674.28,242.18 0.08,0.5 c 0.1,0.63 -0.61,1.08 -1.14,0.72 -3.58,-2.43 -6.47,-0.37 -9.93,-1.94 -21.73,-9.87 -42.27,-21.88 -65.21,-33.07"
       id="path1945" />
    <path
       stroke="#b1b6bf"
       vector-effect="non-scaling-stroke"
       d="m 598.08,208.39 c -1.81,-0.87 -4.12,-1.88 -6.94,-3.03 -0.36,-0.14 -0.65,-0.61 -0.86,-1.4"
       id="path1947" />
    <path
       stroke="#888f9c"
       vector-effect="non-scaling-stroke"
       d="m 598.08,208.39 0.04,121.95 c 0,0.53 0.26,0.83 0.78,0.9 0.35,0.05 0.88,0.01 1.59,-0.14 12.3,-2.57 25.22,-4.67 37.63,-3.41 8.87,0.89 17.6,2.61 26.2,5.14 0.33,0.1 0.58,0.29 0.77,0.58 0.67,1.02 1.62,1.42 2.87,1.19 0.24,-0.05 0.49,-0.02 0.72,0.08 0.39,0.17 0.6,0.41 0.65,0.72"
       id="path1949" />
    <path
       stroke="#888f9c"
       vector-effect="non-scaling-stroke"
       d="m 745.61,300.67 -0.25,1.94 c -0.03,0.31 0.03,0.59 0.18,0.86 1.31,2.33 1.91,4.93 2.95,7.24 2.57,5.73 3.48,11.82 2.75,18.26 -0.04,0.34 -0.17,0.64 -0.38,0.9 l -5.89,7.18"
       id="path1951" />
    <path
       stroke="#d4d6db"
       vector-effect="non-scaling-stroke"
       d="m 178.6,422.67 c 0.03,-1.69 0.33,-3.39 0.92,-5.09 1.74,-5.06 -1.38,-14.22 -3.42,-19.22"
       id="path1953" />
    <path
       stroke="#b1b6bf"
       vector-effect="non-scaling-stroke"
       d="m 830.15,388.9 c -4.2,7.64 -6.05,15.84 -5.56,24.61"
       id="path1955" />
    <path
       stroke="#d4d6db"
       vector-effect="non-scaling-stroke"
       d="m 160.18,388.47 c -6.38,5.65 -14.64,6.46 -20.9,0.22"
       id="path1957" />
    <path
       stroke="#d4d6db"
       vector-effect="non-scaling-stroke"
       d="m 865.14,385.09 c -2.63,4.89 -6.58,7.51 -11.84,7.84 -2.37,0.15 -4.6,-0.78 -7,-1.31"
       id="path1959" />
    <path
       stroke="#7d838f"
       vector-effect="non-scaling-stroke"
       d="M 863.46,416.96 848.75,406.94"
       id="path1961" />
    <path
       stroke="#7d838f"
       vector-effect="non-scaling-stroke"
       d="m 484.92,437.26 c -2.07,-5.53 -5.23,-10.25 -9.48,-14.17 -0.27,-0.25 -0.71,-0.01 -0.64,0.35 0.21,1.17 0.83,2.49 1.86,3.97 2.3,3.28 4.79,6.59 7.47,9.93"
       id="path1963" />
    <path
       stroke="#d4d6db"
       vector-effect="non-scaling-stroke"
       d="m 469.97,435.26 c -0.79,-3.13 -0.81,-5.23 -0.08,-6.31 3.79,-5.58 6.49,-11.7 8.11,-18.37"
       id="path1965" />
    <path
       stroke="#f295a5"
       vector-effect="non-scaling-stroke"
       d="m 425.79,411.63 c 3.73,3.74 6.23,7.44 7.48,11.1 0.34,0.96 0.09,2.04 -0.64,2.75 -4.67,4.62 -9.5,9.26 -14.47,13.93 -23.39,21.94 -46.78,43.89 -70.16,65.86 -5.31,4.99 -10.81,9.9 -16.48,14.73 -0.25,0.21 -0.55,0.33 -0.87,0.34 -19.49,0.75 -36.43,0.27 -50.81,-1.42 -5.63,-0.67 -11.8,-2.95 -18.5,-6.84"
       id="path1967" />
    <path
       stroke="#b2213f"
       vector-effect="non-scaling-stroke"
       d="m 444.17,416.5 c -1.37,0.79 -2.49,1.61 -3.36,2.46 -0.9,0.87 -1.81,1.89 -2.73,3.06 -3.32,4.23 -0.55,7.22 0.4,11.17 2.37,9.82 2.35,19.69 -0.06,29.6 -2.73,11.27 -8.4,27.3 -17.18,36.67 -2.77,2.95 -3.12,6.17 -6.52,9.19 -2.29,2.04 -4.4,4.34 -6.33,6.91"
       id="path1969" />
    <path
       stroke="#f295a5"
       vector-effect="non-scaling-stroke"
       d="M 721.86,429.75 619.81,523.16"
       id="path1971" />
    <path
       stroke="#f295a5"
       vector-effect="non-scaling-stroke"
       d="m 585.53,507.36 c -2.85,-3.81 -5.01,-7.65 -6.48,-11.5 -0.3,-0.79 -0.14,-1.48 0.49,-2.06 l 74.55,-68.69 c 0.43,-0.39 0.4,-1.13 -0.07,-1.65 -0.15,-0.16 -0.46,-0.27 -0.94,-0.34 -24.45,-3.22 -48.9,-3.19 -73.35,0.09 -2.79,0.37 -5.54,1.03 -8.23,1.96 -0.32,0.11 -0.6,0.33 -0.77,0.62 -2.55,4.24 -10.2,16.24 -8.95,20.93 3.87,14.49 6.3,23.75 7.27,27.76 0.35,1.43 0.48,3.2 0.39,5.33 -0.01,0.32 -0.11,0.61 -0.29,0.87 l -3.22,4.63"
       id="path1973" />
    <path
       stroke="#b2213f"
       vector-effect="non-scaling-stroke"
       d="m 750.84,439.01 c -6.79,5.18 -11.14,8.59 -13.06,10.24 -26.31,22.54 -53.4,44.12 -79.2,67.23 -0.3,0.27 -0.13,0.76 0.26,0.79 17.59,1.63 35.27,1.83 53.04,0.61 5.65,-0.39 11.12,-2.04 16.41,-4.97 2.64,-1.46 4.73,-1.09 7.55,-1.01 0.07,0 0.13,0.03 0.16,0.1 0.05,0.1 0.1,0.2 0.16,0.3 0.07,0.14 0.18,0.24 0.33,0.29 l 6.03,2.35"
       id="path1975" />
    <path
       stroke="#d4d6db"
       vector-effect="non-scaling-stroke"
       d="m 756.05,651.63 c -9.15,8.01 -17.92,15.05 -26.31,21.1 -26.94,19.47 -55.63,37.5 -86.08,54.09 -10.97,5.98 -22.18,11.46 -33.62,16.45 -46.6,20.32 -97.81,31.03 -148.39,20.62 -32.85,-6.77 -64.22,-18.18 -94.11,-34.25 -33.68,-18.11 -65.68,-38.2 -96.01,-60.29 -3.68,-2.68 -7.42,-5.54 -11.23,-8.58 -3.61,-2.89 -7.28,-5.85 -11,-8.89"
       id="path1977" />
    <path
       stroke="#d4d6db"
       vector-effect="non-scaling-stroke"
       d="m 789.85,618 c 0.41,0.21 0.91,-0.23 1.5,-1.34 0.36,-0.67 0.71,-1.21 1.06,-1.62 2.72,-3.2 5.38,-6.25 7.98,-9.16 0.51,-0.57 0.66,-1.38 0.39,-2.09 -4.85,-12.93 -9.08,-25.99 -15.36,-38.04 -0.34,-0.65 -0.18,-1.45 0.39,-1.91 3.17,-2.55 6.66,-4.61 10.45,-6.18 0.83,-0.34 1.19,-1.33 0.77,-2.12 l -12.97,-24.66 c -0.23,-0.44 -0.82,-0.54 -1.19,-0.21 -7.75,7.01 -16.12,13.3 -25.09,18.88 -1.62,1.01 -3.47,1.93 -5.56,2.77"
       id="path1979" />
    <path
       stroke="#d4d6db"
       vector-effect="non-scaling-stroke"
       d="m 213.62,640.02 c -9.05,-9.51 -16.9,-16.96 -23.55,-22.34 -5.27,-4.27 -12.4,-8.77 -21.39,-13.5"
       id="path1981" />
    <path
       stroke="#888f9c"
       vector-effect="non-scaling-stroke"
       d="m 315.54,771.53 c 0.69,0.33 0.86,0.77 0.53,1.31 -8.5,13.77 -16.36,27.89 -23.59,42.36 -1.73,3.47 -5.7,9.69 -11.89,18.68 -1.66,2.42 -3.82,3.93 -6.11,5.74 -0.29,0.23 -0.32,0.5 -0.09,0.79 1.79,2.28 4.28,4 7.47,5.16"
       id="path1983" />
    <path
       stroke="#d4d6db"
       vector-effect="non-scaling-stroke"
       d="m 259.43,836.05 c 6.18,-3.58 10.39,-10.25 14.31,-15.95 0.35,-0.51 -0.12,-1.18 -0.72,-1.04 -5.56,1.35 -10.82,3.43 -15.78,6.22 -0.39,0.22 -0.73,0.17 -1.04,-0.15 l -12.34,-12.68 c -0.34,-0.35 -0.32,-0.67 0.05,-0.98 9.73,-8.11 17.93,-15.76 24.58,-22.96 1.41,-1.52 2.76,-1.83 4.03,-0.92"
       id="path1985" />
    <path
       stroke="#565f6a"
       vector-effect="non-scaling-stroke"
       d="m 272.52,787.59 -8.54,8.89 c -0.37,0.39 -0.36,1.01 0.02,1.39 l 7.86,7.78"
       id="path1987" />
    <path
       stroke="#d4d6db"
       vector-effect="non-scaling-stroke"
       d="m 271.86,805.65 c 4.29,0.6 8.83,-0.05 13.63,-1.96 3.55,-1.41 5.41,-2.89 6.81,-6.66 2.29,-6.17 4.08,-12.44 5.37,-18.81 0.09,-0.47 -0.16,-0.93 -0.6,-1.12 -4.87,-2.06 -9.69,-4.19 -14.44,-6.39 -1.66,-0.77 -3.23,-1.37 -4.72,-1.82 -1.69,-0.51 -3.32,-0.97 -4.88,-1.38"
       id="path1989" />
    <path
       stroke="#7f868d"
       vector-effect="non-scaling-stroke"
       d="m 271.86,805.65 c 8.89,-7.66 16.49,-13.01 20.45,-24.76 0.11,-0.31 0,-0.49 -0.32,-0.52 l -12.04,-1.41 c -0.32,-0.04 -0.64,0.1 -0.84,0.35 l -6.59,8.28"
       id="path1991" />
    <path
       stroke="#b1b6bf"
       vector-effect="non-scaling-stroke"
       d="m 730.19,848.22 c 0.21,-0.25 0.07,-0.67 -0.41,-1.24"
       id="path1993" />
    <path
       stroke="#888f9c"
       vector-effect="non-scaling-stroke"
       d="m 729.78,846.98 c -0.37,-0.36 -0.31,-0.68 0.17,-0.97 0.26,-0.15 0.29,-0.34 0.09,-0.57 -1.2,-1.32 -1.7,-3.17 -2.56,-4.41 -6.72,-9.65 -13.03,-19.55 -18.94,-29.7 -0.03,-0.05 -0.85,-1.31 -2.48,-3.8 -1.36,-2.08 -2.08,-5.71 -4.1,-7.1"
       id="path1995" />
    <path
       stroke="#b1b6bf"
       vector-effect="non-scaling-stroke"
       d="m 701.96,800.43 -9.4,-17.67 c -0.02,-0.03 -0.06,-0.05 -0.1,-0.03 -0.03,0.01 -0.05,0.05 -0.04,0.09 2.49,7.99 2.99,15.46 1.51,22.4"
       id="path1997" />
    <path
       stroke="#d4d6db"
       vector-effect="non-scaling-stroke"
       d="m 701.96,800.43 c 1.78,4.33 3.55,8.64 5.3,12.95 2.33,5.73 4.27,9.96 5.82,12.7 4.39,7.72 9.95,14.69 16.7,20.9"
       id="path1999" />
    <path
       stroke="#a6aab2"
       vector-effect="non-scaling-stroke"
       d="m 372.27,794.32 27.26,14.95 c 0.37,0.2 0.35,0.74 -0.03,0.92 l -12.8,5.84"
       id="path2001" />
    <path
       stroke="#d4d6db"
       vector-effect="non-scaling-stroke"
       d="m 528.66,832.1 c 0.31,0.09 0.53,0.23 0.66,0.43 0.13,0.19 0.09,0.35 -0.12,0.47 -3.17,1.83 -7.08,2.41 -9.88,3.72 -6.18,2.9 -15.1,9.79 -22.6,9.43 -4.45,-0.22 -8.93,0.01 -13.42,0.68 -0.34,0.05 -0.67,0.01 -0.98,-0.12 -17.32,-7.31 -34.69,-14.5 -52.12,-21.57 -5.74,-2.32 -9.11,-2.31 -14.66,-0.38 -0.77,0.27 -1.03,1.23 -0.5,1.86 4.92,5.78 9.96,11.69 15.12,17.72 0.63,0.73 1.76,1.37 3.41,1.91 0.27,0.09 0.44,0.2 0.52,0.34 0.14,0.24 0.08,0.48 -0.19,0.73"
       id="path2003" />
    <path
       stroke="#d4d6db"
       vector-effect="non-scaling-stroke"
       d="m 408.8,835.53 c 0.65,-6.46 0.71,-13.73 6.89,-17.61 0.56,-0.35 0.25,-1.22 -0.41,-1.14 -6.63,0.79 -12.78,2.88 -18.44,6.28 -0.68,0.41 -0.73,1.37 -0.09,1.84 3.13,2.31 5.89,4.92 8.28,7.85"
       id="path2005" />
    <path
       stroke="#888f9c"
       vector-effect="non-scaling-stroke"
       d="m 631.58,800.6 c -3.41,2.33 -7,4.32 -10.77,5.98 -6.35,2.79 -12.64,5.73 -18.85,8.83 -7.18,3.58 -4.52,9.9 -10.66,13.37 -2.25,1.27 -5.23,2.78 -8.96,4.55 -9.93,4.69 -25.58,13.55 -46.96,26.56 -0.31,0.19 -0.47,0.46 -0.48,0.81 l -1.06,19.85 c -0.01,0.23 0.09,0.31 0.31,0.23 5.85,-2.12 11.43,-4.89 16.75,-8.3"
       id="path2007" />
    <path
       stroke="#d4d6db"
       vector-effect="non-scaling-stroke"
       d="m 505.87,897.55 c -2.43,-0.07 -4.3,-0.41 -5.61,-1.01 -13.03,-5.93 -25.89,-12.23 -38.56,-18.9 -0.06,-0.03 -2.44,-1.12 -7.13,-3.27 -3.25,-1.48 -6.08,-3.41 -8.51,-5.78"
       id="path2009" />
  </g>
  <g
     id="g2125"
     transform="translate(-68.7,-91.751223)">
    <path
       fill="#fdfdfe"
       d="m 571.24,189.89 c -7.4,-0.69 -14.5,-1.97 -21.3,-3.84 -2.01,-0.55 -3.93,-0.46 -5.91,-0.41 -0.51,0.02 -0.73,0.67 -0.32,0.98 2.53,1.95 4.7,3.95 7.56,5.6 2.73,1.57 5.28,3.25 7.65,5.05 0.78,0.59 0.39,1.84 -0.59,1.88 l -1.89,0.07 c -3.7,-1.03 -7.14,-1.65 -10.31,-1.85 -28.99,-1.8 -58.57,-1.8 -88.76,-0.01 l -10.31,0.98 c -0.36,0.03 -0.54,0.23 -0.54,0.59 l 0.06,17.14 c 0.19,43.97 0.3,88.03 0.32,132.18 0,2.03 0.68,3.8 2.03,5.29 3.46,3.81 6.59,7.51 9.38,11.12 0.85,1.1 2.14,1.76 3.52,1.81 7.43,0.28 14.98,0.75 22.63,1.42 6.05,0.53 10.48,2.04 15.22,5.23 0.39,0.26 0.2,0.87 -0.27,0.87 l -23.22,0.03 -10.5,-0.2 c -0.42,-0.01 -0.51,0.16 -0.28,0.51 l 8.35,12.65 c 0.27,0.4 0.16,0.63 -0.31,0.69 -1.49,0.21 -2.91,0.2 -4.26,-0.03 -1.2,-0.2 -2.33,-0.9 -3.39,-2.1 -10.09,-11.43 -20.5,-22.56 -31.23,-33.39 -0.65,-0.66 -1.24,-1.95 -1.25,-2.85 -0.18,-53.75 -0.2,-107.5 -0.05,-161.25 0,-0.33 0.16,-0.52 0.49,-0.58 45.53,-8.16 91.01,-7.9 136.46,0.78 0.31,0.06 0.52,0.24 0.63,0.54 z"
       id="path2013" />
    <path
       fill="#656e7f"
       d="m 571.24,189.89 c -0.01,50.09 0.09,100.21 0.28,150.36 0.01,3.45 -0.17,6.9 -0.54,10.33 -0.04,0.35 -0.19,0.64 -0.44,0.88 -12.24,11.49 -23.98,23.48 -35.22,35.95 -0.39,0.43 -0.97,0.65 -1.55,0.58 l -6.22,-0.71 c 3.26,-4.34 5.78,-9.74 8.53,-13.52 6.28,-8.65 12.22,-14.73 19.01,-25.37 0.18,-0.27 0.26,-0.6 0.23,-0.92 -0.53,-6.67 -0.8,-11 -0.8,-12.97 -0.01,-42.94 -0.11,-85.88 -0.32,-128.82 -0.01,-1.89 0.32,-4 0.57,-5.87 0.05,-0.36 0.24,-0.59 0.59,-0.68 0.31,-0.09 0.67,-0.06 1.08,0.09 l 1.89,-0.07 c 0.98,-0.04 1.37,-1.29 0.59,-1.88 -2.37,-1.8 -4.92,-3.48 -7.65,-5.05 -2.86,-1.65 -5.03,-3.65 -7.56,-5.6 -0.41,-0.31 -0.19,-0.96 0.32,-0.98 1.98,-0.05 3.9,-0.14 5.91,0.41 6.8,1.87 13.9,3.15 21.3,3.84 z"
       id="path2015" />
    <path
       fill="#abafb8"
       d="m 556.44,199.22 c -0.41,-0.15 -0.77,-0.18 -1.08,-0.09 -0.35,0.09 -0.54,0.32 -0.59,0.68 -0.25,1.87 -0.58,3.98 -0.57,5.87 0.21,42.94 0.31,85.88 0.32,128.82 0,1.97 0.27,6.3 0.8,12.97 0.03,0.32 -0.05,0.65 -0.23,0.92 -6.79,10.64 -12.73,16.72 -19.01,25.37 -2.75,3.78 -5.27,9.18 -8.53,13.52 l -32.98,-0.39 c -0.46,-0.01 -0.84,-0.37 -0.86,-0.83 l -0.47,-10.95 c -0.02,-0.55 -0.47,-0.98 -1.02,-0.99 l -16.03,-0.1 23.22,-0.03 c 0.47,0 0.66,-0.61 0.27,-0.87 -4.74,-3.19 -9.17,-4.7 -15.22,-5.23 -7.65,-0.67 -15.2,-1.14 -22.63,-1.42 -1.38,-0.05 -2.67,-0.71 -3.52,-1.81 -2.79,-3.61 -5.92,-7.31 -9.38,-11.12 -1.35,-1.49 -2.03,-3.26 -2.03,-5.29 -0.02,-44.15 -0.13,-88.21 -0.32,-132.18 3.24,-2.19 6.65,-3.94 10.23,-5.23 0.36,-0.13 0.54,-0.39 0.54,-0.77 l 0.02,-12.71 c 30.19,-1.79 59.77,-1.79 88.76,0.01 3.17,0.2 6.61,0.82 10.31,1.85 z"
       id="path2017" />
    <path
       fill="#fdfdfe"
       d="m 414.17,203.79 -7.66,3.63 c -34.88,18.37 -68.91,38.83 -100.17,62.92 -21.79,16.79 -41.67,36 -59.63,57.63 -3.11,3.75 -7.74,10 -13.88,18.77 -3.66,-2.86 -5.67,-5.62 -6.03,-8.28 4.33,-5.8 7.91,-10.35 10.75,-13.66 47.51,-55.39 108.88,-100.29 176,-128.6 0.2,-0.09 0.43,0.06 0.43,0.28 z"
       id="path2019" />
    <path
       fill="#fdfdfe"
       d="m 674.28,242.18 0.08,0.5 c 0.1,0.63 -0.61,1.08 -1.14,0.72 -3.58,-2.43 -6.47,-0.37 -9.93,-1.94 -21.73,-9.87 -42.27,-21.88 -65.21,-33.07 -1.81,-0.87 -4.12,-1.88 -6.94,-3.03 -0.36,-0.14 -0.65,-0.61 -0.86,-1.4 l 0.27,-6.9 c 0.01,-0.36 0.19,-0.47 0.52,-0.33 25.01,10.22 46.73,21.49 65.18,33.82 8.23,5.49 14.24,9.37 18.03,11.63 z"
       id="path2021" />
    <path
       fill="#000e1b"
       d="m 457.37,197.36 -0.02,12.71 c 0,0.38 -0.18,0.64 -0.54,0.77 -3.58,1.29 -6.99,3.04 -10.23,5.23 l -0.06,-17.14 c 0,-0.36 0.18,-0.56 0.54,-0.59 z"
       id="path2023" />
    <path
       fill="#656e7f"
       d="m 414.17,203.79 0.09,132.45 c 0,0.17 -0.16,0.29 -0.32,0.24 -18.59,-4.95 -37.49,-6.26 -56.69,-3.93 -3.92,0.48 -7.84,0.91 -11.75,1.29 -0.18,-1.33 0.49,-2.14 2,-2.45 10.2,-2.06 21.6,-4.97 31.5,-3.94 8.45,0.88 17.15,2.18 26.1,3.89 0.54,0.11 1.09,-0.19 1.31,-0.7 0.21,-0.5 0.31,-1.13 0.32,-1.89 0.25,-40.37 0.17,-80.82 -0.22,-121.33 z"
       id="path2025" />
    <path
       fill="#656e7f"
       d="m 590.28,203.96 c 0.21,0.79 0.5,1.26 0.86,1.4 2.82,1.15 5.13,2.16 6.94,3.03 l 0.04,121.95 c 0,0.53 0.26,0.83 0.78,0.9 0.35,0.05 0.88,0.01 1.59,-0.14 12.3,-2.57 25.22,-4.67 37.63,-3.41 8.87,0.89 17.6,2.61 26.2,5.14 0.33,0.1 0.58,0.29 0.77,0.58 0.67,1.02 1.62,1.42 2.87,1.19 0.24,-0.05 0.49,-0.02 0.72,0.08 0.39,0.17 0.6,0.41 0.65,0.72 -17.01,-3.16 -34.08,-4.37 -51.22,-3.62 -9.45,0.41 -18.16,2.33 -26.96,5.13 -0.42,0.13 -0.85,-0.18 -0.85,-0.62 z"
       id="path2027" />
    <path
       fill="#abafb8"
       d="m 406.51,207.42 c 0.39,40.51 0.47,80.96 0.22,121.33 -0.01,0.76 -0.11,1.39 -0.32,1.89 -0.22,0.51 -0.77,0.81 -1.31,0.7 -8.95,-1.71 -17.65,-3.01 -26.1,-3.89 -9.9,-1.03 -21.3,1.88 -31.5,3.94 -1.51,0.31 -2.18,1.12 -2,2.45 -24.84,4.42 -49.1,11.07 -72.78,19.94 -0.34,0.13 -0.62,0.04 -0.83,-0.25 -6.57,-9.14 -11.09,-14.61 -15.86,-18.83 -0.2,-0.17 -0.5,0.03 -0.42,0.28 l 0.57,1.79 c 0.15,0.45 0.06,0.84 -0.26,1.19 l -4.4,4.72 c -0.26,0.27 -0.26,0.7 0,0.97 l 12.07,12.86 c 0.17,0.18 0.11,0.47 -0.12,0.56 l -12.65,5.19 -17.99,-15.52 c 6.14,-8.77 10.77,-15.02 13.88,-18.77 17.96,-21.63 37.84,-40.84 59.63,-57.63 31.26,-24.09 65.29,-44.55 100.17,-62.92 z"
       id="path2029" />
    <path
       fill="#abafb8"
       d="m 598.08,208.39 c 22.94,11.19 43.48,23.2 65.21,33.07 3.46,1.57 6.35,-0.49 9.93,1.94 0.53,0.36 1.24,-0.09 1.14,-0.72 l -0.08,-0.5 c 25.35,17.58 49.12,37.08 71.33,58.49 l -0.25,1.94 c -0.03,0.31 0.03,0.59 0.18,0.86 1.31,2.33 1.91,4.93 2.95,7.24 2.57,5.73 3.48,11.82 2.75,18.26 -0.04,0.34 -0.17,0.64 -0.38,0.9 l -5.89,7.18 -12.19,16.2 c -0.22,0.29 -0.5,0.38 -0.84,0.25 -20.5,-7.43 -41.37,-13.47 -62.61,-18.1 -0.05,-0.31 -0.26,-0.55 -0.65,-0.72 -0.23,-0.1 -0.48,-0.13 -0.72,-0.08 -1.25,0.23 -2.2,-0.17 -2.87,-1.19 -0.19,-0.29 -0.44,-0.48 -0.77,-0.58 -8.6,-2.53 -17.33,-4.25 -26.2,-5.14 -12.41,-1.26 -25.33,0.84 -37.63,3.41 -0.71,0.15 -1.24,0.19 -1.59,0.14 -0.52,-0.07 -0.78,-0.37 -0.78,-0.9 z"
       id="path2031" />
    <path
       fill="#656e7f"
       d="m 745.61,300.67 c 14.68,14.29 28.19,29.62 40.54,45.99 0.19,0.26 0.18,0.51 -0.04,0.76 l -17.26,19.38 c -0.75,0.85 -1.64,1.05 -2.69,0.61 L 741.4,357.09 c -0.76,-0.32 -0.93,-1.33 -0.3,-1.87 3.94,-3.41 7.33,-7.31 10.17,-11.7 0.21,-0.32 0.19,-0.73 -0.03,-1.04 -1.55,-2.2 -3.64,-4.01 -6.27,-5.43 l 5.89,-7.18 c 0.21,-0.26 0.34,-0.56 0.38,-0.9 0.73,-6.44 -0.18,-12.53 -2.75,-18.26 -1.04,-2.31 -1.64,-4.91 -2.95,-7.24 -0.15,-0.27 -0.21,-0.55 -0.18,-0.86 z"
       id="path2033" />
    <path
       fill="#fdfdfe"
       d="m 178.6,422.67 c 0.03,-1.69 0.33,-3.39 0.92,-5.09 1.74,-5.06 -1.38,-14.22 -3.42,-19.22 0.31,-15.34 -2.55,-43.9 -18.95,-51.73 -0.35,-0.17 -0.42,-0.43 -0.2,-0.76 3.45,-5.12 8.18,-8.28 14.21,-9.48 10.07,-2.02 14.45,5.11 16.17,13.9 4.83,24.64 0.59,48.96 -8.73,72.38 z"
       id="path2035" />
    <path
       fill="#fdfdfe"
       d="m 830.15,388.9 c -4.2,7.64 -6.05,15.84 -5.56,24.61 -7.25,-21.08 -12,-44.51 -6.21,-66.59 4.53,-17.24 22.22,-10.93 29.67,-0.74 0.22,0.3 0.09,0.73 -0.26,0.86 -13.99,5.23 -17.67,29.2 -17.64,41.86 z"
       id="path2037" />
    <path
       fill="#4e5666"
       d="m 226.8,338.46 c 0.36,2.66 2.37,5.42 6.03,8.28 l 17.99,15.52 -12.83,5.24 c -0.61,0.25 -1.32,0.1 -1.77,-0.38 -3.43,-3.59 -6.81,-7.41 -10.15,-11.46 -1.71,-2.08 -4.69,-3.49 -5.84,-6.56 -0.09,-0.23 0.02,-0.5 0.24,-0.61 0.22,-0.11 0.49,-0.04 0.63,0.17 0.82,1.27 1.89,2.33 3.22,3.19 2.52,1.64 4.69,3.67 6.51,6.09 0.13,0.17 0.31,0.23 0.52,0.18 l 0.3,-0.08 c 0.5,-0.12 0.68,-0.75 0.32,-1.12 l -9.47,-9.64 c -0.64,-0.65 -0.73,-1.68 -0.2,-2.43 z"
       id="path2039" />
    <path
       fill="#4e5666"
       d="m 181.11,463.62 c 14.46,-20.99 23.11,-46.01 23.72,-71.61 0.39,-16.59 -1.49,-32.84 -5.64,-48.77 -0.02,-0.07 0.02,-0.15 0.09,-0.18 0.07,-0.03 0.15,0 0.19,0.06 5.2,8.37 9.86,16.92 13.98,25.65 6.33,13.42 7.02,28.43 5.44,43.72 -1.91,18.45 -7.54,35.79 -16.9,52.01 -2.18,3.79 -1.93,5.45 -6.73,4.17 -4.66,-1.24 -9.2,-2.44 -13.61,-3.59 -0.64,-0.16 -0.92,-0.92 -0.54,-1.46 z"
       id="path2041" />
    <path
       fill="#4e5666"
       d="m 804.23,344.51 c 0.24,-0.36 0.8,-0.13 0.72,0.29 -0.79,4.14 -1.58,8.22 -1.87,12.48 -0.81,11.61 -2.12,24.08 -1.67,34.98 1.08,26.05 7.8,50.4 22.05,71.9 0.28,0.43 0.07,1.01 -0.43,1.14 l -15.55,4.01 c -0.35,0.09 -0.72,-0.05 -0.92,-0.36 -14.8,-22.68 -22.05,-50.34 -20.47,-77.04 1,-16.99 8.72,-33.28 18.14,-47.4 z"
       id="path2043" />
    <path
       fill="#fdfdfe"
       d="m 373.76,365.03 c 15.35,2.39 27.05,9.21 36.91,21.15 0.2,0.24 0.14,0.34 -0.17,0.31 -8.15,-0.81 -16.31,-0.91 -24.48,-0.29 -51.24,3.88 -100.94,14.7 -149.09,32.46 -0.47,0.18 -0.6,0.04 -0.38,-0.42 10.58,-21.42 34.42,-34.85 55.61,-43.57 26.24,-10.8 53.44,-14.01 81.6,-9.64 z"
       id="path2045" />
    <path
       fill="#fdfdfe"
       d="m 633.63,364.88 c 16.4,-2.19 31.52,-2.13 45.37,0.17 20.81,3.45 44.07,12.36 62.12,24.23 11.21,7.37 20.25,17.03 27.14,28.97 0.17,0.3 -0.13,0.66 -0.46,0.53 -47.54,-18.21 -96.81,-29.04 -147.8,-32.51 -8.51,-0.58 -17.02,-0.47 -25.51,0.33 -0.35,0.03 -0.42,-0.09 -0.19,-0.37 9.73,-12.04 22.84,-19.16 39.33,-21.35 z"
       id="path2047" />
    <path
       fill="#fdfdfe"
       d="m 160.18,388.47 c -6.38,5.65 -14.64,6.46 -20.9,0.22 0.38,-7.79 1.89,-14.73 4.53,-20.8 1.51,-3.48 4.15,-4.53 7.92,-3.14 6.33,2.31 8.51,18.2 8.45,23.72 z"
       id="path2049" />
    <path
       fill="#fdfdfe"
       d="m 865.14,385.09 c -2.63,4.89 -6.58,7.51 -11.84,7.84 -2.37,0.15 -4.6,-0.78 -7,-1.31 -0.39,-5.81 0.08,-11.6 1.42,-17.37 1.17,-5.05 5.54,-14.03 12.03,-8.04 3.6,3.32 5,14.09 5.39,18.88 z"
       id="path2051" />
    <path
       fill="#4e5666"
       d="m 808.02,418.54 c -4.52,-14.09 -5.81,-30.49 -4.44,-45.14 0.01,-0.05 0.05,-0.1 0.1,-0.1 0.06,0 0.1,0.04 0.11,0.09 l 4.52,45.09 c 0.01,0.08 -0.04,0.14 -0.12,0.16 -0.07,0.02 -0.15,-0.03 -0.17,-0.1 z"
       id="path2053" />
    <path
       fill="#4e5666"
       d="m 201.11,410.18 c -0.08,0 -0.15,-0.08 -0.15,-0.17 l 0.33,-11.13 c 0.41,-13.69 1.01,-24.78 1.35,-24.77 v 0 c 0.33,0.01 0.28,11.11 -0.13,24.81 l -0.33,11.13 c 0,0.09 -0.08,0.16 -0.17,0.16 z"
       id="path2055" />
    <path
       fill="#abafb8"
       d="m 865.14,385.09 c 2.02,11.3 1.46,21.92 -1.68,31.87 l -14.71,-10.02 c -1.79,-4.77 -2.6,-9.88 -2.45,-15.32 2.4,0.53 4.63,1.46 7,1.31 5.26,-0.33 9.21,-2.95 11.84,-7.84 z"
       id="path2057" />
    <path
       fill="#abafb8"
       d="m 160.18,388.47 c 1.24,10.42 -0.94,23.51 -8.94,30.84 -2.13,1.95 -4.45,3.65 -6.96,5.1 -0.28,0.16 -0.48,0.09 -0.59,-0.2 -4.53,-11.43 -6,-23.27 -4.41,-35.52 6.26,6.24 14.52,5.43 20.9,-0.22 z"
       id="path2059" />
    <path
       fill="#656e7f"
       d="m 830.15,388.9 c -0.27,6.07 0.45,13.1 2.15,21.09 2.01,9.44 5.86,18.18 11.54,26.23 0.18,0.25 0.12,0.59 -0.13,0.76 l -6.1,4.32 c -0.25,0.18 -0.59,0.12 -0.77,-0.13 -6.04,-8.39 -10.12,-17.61 -12.25,-27.66 -0.49,-8.77 1.36,-16.97 5.56,-24.61 z"
       id="path2061" />
    <path
       fill="#abafb8"
       d="m 176.1,398.36 c 2.04,5 5.16,14.16 3.42,19.22 -0.59,1.7 -0.89,3.4 -0.92,5.09 -2.03,6.55 -5.35,12.75 -9.97,18.59 -0.18,0.23 -0.51,0.29 -0.77,0.14 l -7.14,-4.13 c -0.11,-0.06 -0.14,-0.21 -0.06,-0.31 8.93,-11.33 14.07,-24.2 15.44,-38.6 z"
       id="path2063" />
    <path
       fill="#4e5666"
       d="m 848.75,406.94 14.71,10.02 -3.56,7.9 c -0.19,0.41 -0.72,0.51 -1.04,0.21 -5.25,-4.94 -8.62,-10.98 -10.11,-18.13 z"
       id="path2065" />
    <path
       fill="#abafb8"
       d="m 484.92,437.26 c -2.07,-5.53 -5.23,-10.25 -9.48,-14.17 -0.27,-0.25 -0.71,-0.01 -0.64,0.35 0.21,1.17 0.83,2.49 1.86,3.97 2.3,3.28 4.79,6.59 7.47,9.93 l -12.04,2.19 c -0.36,0.06 -0.63,-0.06 -0.82,-0.37 -0.78,-1.31 -1.21,-2.61 -1.3,-3.9 -0.79,-3.13 -0.81,-5.23 -0.08,-6.31 3.79,-5.58 6.49,-11.7 8.11,-18.37 22.07,-2.38 44.59,-1.58 67.58,2.4 0.3,0.05 0.53,0.21 0.69,0.46 l 3.95,6.17 c 0.29,0.46 0.33,1.04 0.09,1.52 l -8.94,18.14 c -0.4,0.81 -1.29,1.26 -2.18,1.09 -18.31,-3.47 -36.4,-4.5 -54.27,-3.1 z"
       id="path2067" />
    <path
       fill="#fdfdfe"
       d="m 425.79,411.63 c 3.73,3.74 6.23,7.44 7.48,11.1 0.34,0.96 0.09,2.04 -0.64,2.75 -4.67,4.62 -9.5,9.26 -14.47,13.93 -23.39,21.94 -46.78,43.89 -70.16,65.86 -5.31,4.99 -10.81,9.9 -16.48,14.73 -0.25,0.21 -0.55,0.33 -0.87,0.34 -19.49,0.75 -36.43,0.27 -50.81,-1.42 -5.63,-0.67 -11.8,-2.95 -18.5,-6.84 -12.52,-8.05 -18.08,-17.71 -22.05,-32.52 -2.82,-10.55 -5.26,-21.1 -7.31,-31.64 -0.09,-0.47 0.09,-0.8 0.53,-0.98 55.67,-22.53 113.42,-34.71 173.24,-36.52 6.17,-0.19 11.94,0 17.3,0.57 0.42,0.04 0.87,0.15 1.36,0.32 0.66,0.23 1.12,0.33 1.38,0.32 z"
       id="path2069" />
    <path
       fill="#fdfdfe"
       d="m 478,410.58 c -1.62,6.67 -4.32,12.79 -8.11,18.37 -0.73,1.08 -0.71,3.18 0.08,6.31 -3.88,-6.89 -6.6,-13.14 -8.16,-18.73 -0.42,-1.49 0.21,-2.46 1.88,-2.92 4.12,-1.13 8.89,-2.14 14.31,-3.03 z"
       id="path2071" />
    <path
       fill="#fdfdfe"
       d="m 721.86,429.75 -102.05,93.41 c -11.76,-2.16 -26.53,-6.76 -34.28,-15.8 -2.85,-3.81 -5.01,-7.65 -6.48,-11.5 -0.3,-0.79 -0.14,-1.48 0.49,-2.06 l 74.55,-68.69 c 0.43,-0.39 0.4,-1.13 -0.07,-1.65 -0.15,-0.16 -0.46,-0.27 -0.94,-0.34 -24.45,-3.22 -48.9,-3.19 -73.35,0.09 -2.79,0.37 -5.54,1.03 -8.23,1.96 -0.32,0.11 -0.6,0.33 -0.77,0.62 -2.55,4.24 -10.2,16.24 -8.95,20.93 3.87,14.49 6.3,23.75 7.27,27.76 0.35,1.43 0.48,3.2 0.39,5.33 -0.01,0.32 -0.11,0.61 -0.29,0.87 l -3.22,4.63 c -2.91,-7.35 -6.39,-17.62 -10.44,-30.82 -1.59,-5.21 -1.43,-9.99 0.5,-14.35 2.29,-5.19 4.57,-10.38 6.82,-15.58 1.05,-2.43 1.21,-5.12 1.83,-7.76 0.07,-0.33 0.27,-0.54 0.59,-0.65 10.37,-3.48 19.71,-5.22 28.02,-5.21 42.17,0.02 85.04,6.29 128.61,18.81 z"
       id="path2073" />
    <path
       fill="#e62d4c"
       d="m 425.79,411.63 18.38,4.87 c -1.37,0.79 -2.49,1.61 -3.36,2.46 -0.9,0.87 -1.81,1.89 -2.73,3.06 -3.32,4.23 -0.55,7.22 0.4,11.17 2.37,9.82 2.35,19.69 -0.06,29.6 -2.73,11.27 -8.4,27.3 -17.18,36.67 -2.77,2.95 -3.12,6.17 -6.52,9.19 -2.29,2.04 -4.4,4.34 -6.33,6.91 -8.76,4.8 -19.34,8.21 -31.74,10.23 -18.76,3.05 -36.32,4.72 -52.67,5 -17.2,0.29 -30,-0.4 -44.66,-7.12 -6.61,-3.03 -12.61,-6.89 -17.98,-11.59 6.7,3.89 12.87,6.17 18.5,6.84 14.38,1.69 31.32,2.17 50.81,1.42 0.32,-0.01 0.62,-0.13 0.87,-0.34 5.67,-4.83 11.17,-9.74 16.48,-14.73 23.38,-21.97 46.77,-43.92 70.16,-65.86 4.97,-4.67 9.8,-9.31 14.47,-13.93 0.73,-0.71 0.98,-1.79 0.64,-2.75 -1.25,-3.66 -3.75,-7.36 -7.48,-11.1 z"
       id="path2075" />
    <path
       fill="#7e1532"
       d="m 444.17,416.5 c 4.59,9.08 7.72,16.74 9.39,22.98 2.06,7.73 -0.55,12.95 -4.07,22.37 -4.31,11.53 -8.97,21.99 -13.98,31.37 -5.35,10.04 -16.33,17.26 -27.12,22.34 1.93,-2.57 4.04,-4.87 6.33,-6.91 3.4,-3.02 3.75,-6.24 6.52,-9.19 8.78,-9.37 14.45,-25.4 17.18,-36.67 2.41,-9.91 2.43,-19.78 0.06,-29.6 -0.95,-3.95 -3.72,-6.94 -0.4,-11.17 0.92,-1.17 1.83,-2.19 2.73,-3.06 0.87,-0.85 1.99,-1.67 3.36,-2.46 z"
       id="path2077" />
    <path
       fill="#e62d4c"
       d="m 585.53,507.36 c -5.07,-1.79 -8.72,-4.03 -10.93,-6.71 -2.69,-3.26 -5.58,-8.37 -8.67,-15.34 l 3.22,-4.63 c 0.18,-0.26 0.28,-0.55 0.29,-0.87 0.09,-2.13 -0.04,-3.9 -0.39,-5.33 -0.97,-4.01 -3.4,-13.27 -7.27,-27.76 -1.25,-4.69 6.4,-16.69 8.95,-20.93 0.17,-0.29 0.45,-0.51 0.77,-0.62 2.69,-0.93 5.44,-1.59 8.23,-1.96 24.45,-3.28 48.9,-3.31 73.35,-0.09 0.48,0.07 0.79,0.18 0.94,0.34 0.47,0.52 0.5,1.26 0.07,1.65 l -74.55,68.69 c -0.63,0.58 -0.79,1.27 -0.49,2.06 1.47,3.85 3.63,7.69 6.48,11.5 z"
       id="path2079" />
    <path
       fill="#4e5666"
       d="m 484.92,437.26 c -0.65,-0.24 -0.92,-0.21 -0.79,0.08 -2.68,-3.34 -5.17,-6.65 -7.47,-9.93 -1.03,-1.48 -1.65,-2.8 -1.86,-3.97 -0.07,-0.36 0.37,-0.6 0.64,-0.35 4.25,3.92 7.41,8.64 9.48,14.17 z"
       id="path2081" />
    <path
       fill="#e62d4c"
       d="m 721.86,429.75 28.98,9.26 c -6.79,5.18 -11.14,8.59 -13.06,10.24 -26.31,22.54 -53.4,44.12 -79.2,67.23 -0.3,0.27 -0.13,0.76 0.26,0.79 17.59,1.63 35.27,1.83 53.04,0.61 5.65,-0.39 11.12,-2.04 16.41,-4.97 2.64,-1.46 4.73,-1.09 7.55,-1.01 0.07,0 0.13,0.03 0.16,0.1 0.05,0.1 0.1,0.2 0.16,0.3 0.07,0.14 0.18,0.24 0.33,0.29 l 6.03,2.35 c -11.85,9.35 -25.11,14.62 -39.78,15.8 -3.54,0.28 -10.2,0.31 -19.99,0.1 -19.69,-0.44 -39.52,-2.55 -59.5,-6.34 -1.28,-0.24 -2.43,-0.69 -3.44,-1.34 z"
       id="path2083" />
    <path
       fill="#7e1532"
       d="m 750.84,439.01 c 7.64,2.22 15.11,4.88 22.4,7.99 0.5,0.21 0.77,0.75 0.65,1.28 -3.74,16.08 -6.24,32.2 -13.93,47.48 -3.66,7.27 -9.47,13.67 -17.44,19.18 l -6.03,-2.35 c -0.15,-0.05 -0.26,-0.15 -0.33,-0.29 -0.06,-0.1 -0.11,-0.2 -0.16,-0.3 -0.03,-0.07 -0.09,-0.1 -0.16,-0.1 -2.82,-0.08 -4.91,-0.45 -7.55,1.01 -5.29,2.93 -10.76,4.58 -16.41,4.97 -17.77,1.22 -35.45,1.02 -53.04,-0.61 -0.39,-0.03 -0.56,-0.52 -0.26,-0.79 25.8,-23.11 52.89,-44.69 79.2,-67.23 1.92,-1.65 6.27,-5.06 13.06,-10.24 z"
       id="path2085" />
    <path
       fill="#fdfdfe"
       d="m 756.05,651.63 c -9.15,8.01 -17.92,15.05 -26.31,21.1 -26.94,19.47 -55.63,37.5 -86.08,54.09 -10.97,5.98 -22.18,11.46 -33.62,16.45 -46.6,20.32 -97.81,31.03 -148.39,20.62 -32.85,-6.77 -64.22,-18.18 -94.11,-34.25 -33.68,-18.11 -65.68,-38.2 -96.01,-60.29 -3.68,-2.68 -7.42,-5.54 -11.23,-8.58 -3.61,-2.89 -7.28,-5.85 -11,-8.89 8.79,-15.97 20.19,-30.85 34.19,-44.66 27.81,-27.44 62.72,-47.06 99.56,-59.11 11.91,-3.9 20.21,-6.63 24.88,-8.18 19.13,-6.36 33.4,-15.96 43.41,-33.56 7.38,-12.97 12.92,-26.69 16.62,-41.16 0.13,-0.51 0.52,-0.9 1.03,-1.03 12.08,-3.12 26.32,-6.99 38.52,-5.82 7.13,0.69 16.75,2.67 28.86,5.96 0.33,0.09 0.54,0.29 0.64,0.61 5.41,18.11 11.88,35.18 22.36,50.12 8.06,11.5 21.55,18.85 34.57,23.25 11.04,3.73 22.09,7.43 33.16,11.09 53.36,17.67 101.17,53.06 128.95,102.24 z"
       id="path2087" />
    <path
       fill="#abafb8"
       d="m 789.85,618 c 0.41,0.21 0.91,-0.23 1.5,-1.34 0.36,-0.67 0.71,-1.21 1.06,-1.62 2.72,-3.2 5.38,-6.25 7.98,-9.16 0.51,-0.57 0.66,-1.38 0.39,-2.09 -4.85,-12.93 -9.08,-25.99 -15.36,-38.04 -0.34,-0.65 -0.18,-1.45 0.39,-1.91 3.17,-2.55 6.66,-4.61 10.45,-6.18 0.83,-0.34 1.19,-1.33 0.77,-2.12 l -12.97,-24.66 c -0.23,-0.44 -0.82,-0.54 -1.19,-0.21 -7.75,7.01 -16.12,13.3 -25.09,18.88 -1.62,1.01 -3.47,1.93 -5.56,2.77 l -14.03,-11.64 c -0.38,-0.31 -0.32,-0.91 0.12,-1.14 18.28,-9.51 31.86,-20.99 39.74,-40.49 0.13,-0.32 0.36,-0.44 0.69,-0.35 20.12,5.05 36.87,24.14 44.91,42.39 0.2,0.45 0.06,0.63 -0.43,0.53 -2.4,-0.52 -4.64,-1.32 -7.02,-1.48 -3.93,-0.27 -7.77,-0.8 -11.52,-1.58 -0.31,-0.06 -0.52,0.31 -0.31,0.54 8.44,9.43 14.37,20.27 17.78,32.5 0.05,0.16 -0.07,0.32 -0.24,0.33 l -12.65,0.39 c -0.37,0.01 -0.43,0.15 -0.18,0.42 7.01,7.54 13.55,15.5 19.62,23.88 4.4,6.07 9.89,9.91 16.11,13.61 0.34,0.2 0.27,0.7 -0.11,0.8 -25.5,6.63 -42.81,25.32 -51.61,49.59 -0.06,0.15 -0.21,0.24 -0.37,0.21 -0.16,-0.03 -0.28,-0.17 -0.28,-0.33 0.04,-14.45 -0.01,-28.23 -2.59,-42.5 z"
       id="path2089" />
    <path
       fill="#fdfdfe"
       d="m 213.62,640.02 c -9.05,-9.51 -16.9,-16.96 -23.55,-22.34 -5.27,-4.27 -12.4,-8.77 -21.39,-13.5 6.69,-3.39 12.25,-7.91 16.68,-13.56 4.77,-6.07 10.02,-11.71 15.75,-16.91 0.29,-0.26 0.12,-0.73 -0.26,-0.76 l -17.63,-1.35 c -0.19,-0.01 -0.25,-0.11 -0.19,-0.29 3.76,-11.69 9.78,-22.03 18.05,-31.04 0.28,-0.31 0.04,-0.8 -0.37,-0.77 l -20.06,1.46 c -0.29,0.02 -0.37,-0.1 -0.24,-0.37 10,-19.61 25.31,-33.33 45.93,-41.14 0.47,-0.18 1,0.05 1.2,0.51 4.67,10.87 11.5,20.04 20.47,27.51 5.66,4.71 13.26,8.7 20.16,12.49 0.4,0.22 0.42,0.47 0.06,0.76 -10.56,8.48 -20.45,17.18 -29.28,28.2 -16.57,20.68 -25.01,44.38 -25.33,71.1 z"
       id="path2091" />
    <path
       fill="#fdfdfe"
       d="m 789.85,618 c -4.65,-21.29 -14.26,-40.04 -28.84,-56.26 -2.85,-3.17 -5.78,-6.31 -8.79,-9.42 2.09,-0.84 3.94,-1.76 5.56,-2.77 8.97,-5.58 17.34,-11.87 25.09,-18.88 0.37,-0.33 0.96,-0.23 1.19,0.21 l 12.97,24.66 c 0.42,0.79 0.06,1.78 -0.77,2.12 -3.79,1.57 -7.28,3.63 -10.45,6.18 -0.57,0.46 -0.73,1.26 -0.39,1.91 6.28,12.05 10.51,25.11 15.36,38.04 0.27,0.71 0.12,1.52 -0.39,2.09 -2.6,2.91 -5.26,5.96 -7.98,9.16 -0.35,0.41 -0.7,0.95 -1.06,1.62 -0.59,1.11 -1.09,1.55 -1.5,1.34 z"
       id="path2093" />
    <path
       fill="#abafb8"
       d="m 168.68,604.18 c 8.99,4.73 16.12,9.23 21.39,13.5 6.65,5.38 14.5,12.83 23.55,22.34 l 0.12,18.47 c 0.01,0.09 -0.04,0.13 -0.13,0.14 -3.19,0.05 -3.25,0 -0.2,-0.13 0.05,0 0.06,-0.02 0.04,-0.06 -4.15,-10.96 -9.57,-20.83 -16.28,-29.61 -8.24,-10.78 -25.61,-17.1 -38.49,-19.28 -0.33,-0.05 -0.34,-0.15 -0.05,-0.3 z"
       id="path2095" />
    <path
       fill="#abafb8"
       d="m 756.05,651.63 5.06,10.78 c 0.15,0.31 0.1,0.59 -0.14,0.84 -16,16.47 -31.6,30.45 -46.8,41.92 -47.67,35.97 -107.01,60.07 -166.09,68.38 -29.09,4.09 -56.96,4.41 -83.59,0.96 -34.85,-4.52 -68.32,-13.73 -100.42,-27.64 -27.05,-11.71 -52.8,-25.76 -75.45,-43.49 -15.62,-12.23 -30.32,-25.55 -44.11,-39.97 -0.34,-0.35 -0.42,-0.88 -0.2,-1.32 l 4.99,-10.21 c 3.72,3.04 7.39,6 11,8.89 3.81,3.04 7.55,5.9 11.23,8.58 30.33,22.09 62.33,42.18 96.01,60.29 29.89,16.07 61.26,27.48 94.11,34.25 50.58,10.41 101.79,-0.3 148.39,-20.62 11.44,-4.99 22.65,-10.47 33.62,-16.45 30.45,-16.59 59.14,-34.62 86.08,-54.09 8.39,-6.05 17.16,-13.09 26.31,-21.1 z"
       id="path2097" />
    <path
       fill="#abafb8"
       d="m 315.54,771.53 c 0.69,0.33 0.86,0.77 0.53,1.31 -8.5,13.77 -16.36,27.89 -23.59,42.36 -1.73,3.47 -5.7,9.69 -11.89,18.68 -1.66,2.42 -3.82,3.93 -6.11,5.74 -0.29,0.23 -0.32,0.5 -0.09,0.79 1.79,2.28 4.28,4 7.47,5.16 l -4.59,3.51 c -0.37,0.28 -0.89,0.28 -1.25,-0.01 l -16.59,-13.02 c 6.18,-3.58 10.39,-10.25 14.31,-15.95 0.35,-0.51 -0.12,-1.18 -0.72,-1.04 -5.56,1.35 -10.82,3.43 -15.78,6.22 -0.39,0.22 -0.73,0.17 -1.04,-0.15 l -12.34,-12.68 c -0.34,-0.35 -0.32,-0.67 0.05,-0.98 9.73,-8.11 17.93,-15.76 24.58,-22.96 1.41,-1.52 2.76,-1.83 4.03,-0.92 l -8.54,8.89 c -0.37,0.39 -0.36,1.01 0.02,1.39 l 7.86,7.78 c 4.29,0.6 8.83,-0.05 13.63,-1.96 3.55,-1.41 5.41,-2.89 6.81,-6.66 2.29,-6.17 4.08,-12.44 5.37,-18.81 0.09,-0.47 -0.16,-0.93 -0.6,-1.12 -4.87,-2.06 -9.69,-4.19 -14.44,-6.39 -1.66,-0.77 -3.23,-1.37 -4.72,-1.82 -1.69,-0.51 -3.32,-0.97 -4.88,-1.38 14.01,0.83 28.18,2.17 42.51,4.02 z"
       id="path2099" />
    <path
       fill="#656e7f"
       d="m 730.19,848.22 c 0.21,-0.25 0.07,-0.67 -0.41,-1.24 -0.37,-0.36 -0.31,-0.68 0.17,-0.97 0.26,-0.15 0.29,-0.34 0.09,-0.57 -1.2,-1.32 -1.7,-3.17 -2.56,-4.41 -6.72,-9.65 -13.03,-19.55 -18.94,-29.7 -0.03,-0.05 -0.85,-1.31 -2.48,-3.8 -1.36,-2.08 -2.08,-5.71 -4.1,-7.1 l -9.4,-17.67 c -0.02,-0.03 -0.06,-0.05 -0.1,-0.03 -0.03,0.01 -0.05,0.05 -0.04,0.09 2.49,7.99 2.99,15.46 1.51,22.4 l -8.83,-32.53 c -0.15,-0.55 0.23,-1.1 0.8,-1.16 12.93,-1.29 25.97,-2.55 39.1,-3.76 2.47,-0.23 4.53,-0.32 6.16,-0.25 0.34,0.01 0.65,0.16 0.87,0.42 13.4,15.74 29.11,28.34 44.66,41.09 0.24,0.2 0.27,0.56 0.05,0.79 -13.89,14.77 -29.41,27.57 -46.55,38.4 z"
       id="path2101" />
    <path
       fill="#fdfdfe"
       d="m 273.03,767.51 c 1.56,0.41 3.19,0.87 4.88,1.38 1.49,0.45 3.06,1.05 4.72,1.82 4.75,2.2 9.57,4.33 14.44,6.39 0.44,0.19 0.69,0.65 0.6,1.12 -1.29,6.37 -3.08,12.64 -5.37,18.81 -1.4,3.77 -3.26,5.25 -6.81,6.66 -4.8,1.91 -9.34,2.56 -13.63,1.96 8.89,-7.66 16.49,-13.01 20.45,-24.76 0.11,-0.31 0,-0.49 -0.32,-0.52 l -12.04,-1.41 c -0.32,-0.04 -0.64,0.1 -0.84,0.35 l -6.59,8.28 c -1.27,-0.91 -2.62,-0.6 -4.03,0.92 -6.65,7.2 -14.85,14.85 -24.58,22.96 -0.37,0.31 -0.39,0.63 -0.05,0.98 l 12.34,12.68 c 0.31,0.32 0.65,0.37 1.04,0.15 4.96,-2.79 10.22,-4.87 15.78,-6.22 0.6,-0.14 1.07,0.53 0.72,1.04 -3.92,5.7 -8.13,12.37 -14.31,15.95 -10.93,-8.17 -21.1,-17.01 -30.49,-26.52 -0.41,-0.42 -0.37,-1.1 0.08,-1.46 2.41,-1.93 4.71,-4.17 7.05,-6.03 13,-10.41 25.32,-21.92 36.96,-34.53 z"
       id="path2103" />
    <path
       fill="#656e7f"
       d="m 315.54,771.53 5.11,0.33 c 0.68,0.04 1.12,0.72 0.89,1.35 -5.7,15.63 -8.95,32.19 -12.71,48.29 -0.31,1.35 -1.03,2.58 -2.05,3.52 -5.29,4.9 -11.02,9.84 -17.19,14.81 -3.75,3.03 -6.32,4.95 -7.73,5.74 -3.19,-1.16 -5.68,-2.88 -7.47,-5.16 -0.23,-0.29 -0.2,-0.56 0.09,-0.79 2.29,-1.81 4.45,-3.32 6.11,-5.74 6.19,-8.99 10.16,-15.21 11.89,-18.68 7.23,-14.47 15.09,-28.59 23.59,-42.36 0.33,-0.54 0.16,-0.98 -0.53,-1.31 z"
       id="path2105" />
    <path
       fill="#000e1b"
       d="M 271.86,805.65 264,797.87 c -0.38,-0.38 -0.39,-1 -0.02,-1.39 l 8.54,-8.89 6.59,-8.28 c 0.2,-0.25 0.52,-0.39 0.84,-0.35 l 12.04,1.41 c 0.32,0.03 0.43,0.21 0.32,0.52 -3.96,11.75 -11.56,17.1 -20.45,24.76 z"
       id="path2107" />
    <path
       fill="#fdfdfe"
       d="m 701.96,800.43 c 1.78,4.33 3.55,8.64 5.3,12.95 2.33,5.73 4.27,9.96 5.82,12.7 4.39,7.72 9.95,14.69 16.7,20.9 0.48,0.57 0.62,0.99 0.41,1.24 -0.49,0.87 -1.47,0.79 -2.96,-0.25 -11.53,-8.12 -21.14,-16.16 -28.84,-24.13 -0.31,-0.33 -0.67,-1.28 -1.06,-2.87 -1.39,-5.66 -2.53,-10.91 -3.4,-15.75 1.48,-6.94 0.98,-14.41 -1.51,-22.4 -0.01,-0.04 0.01,-0.08 0.04,-0.09 0.04,-0.02 0.08,0 0.1,0.03 z"
       id="path2109" />
    <path
       fill="#4e5666"
       d="m 372.27,794.32 27.26,14.95 c 0.37,0.2 0.35,0.74 -0.03,0.92 l -12.8,5.84 c -2.81,-0.73 -5.9,-1.16 -9.25,-1.29 -2.61,-0.1 -4.62,-0.48 -6.02,-1.13 -9.71,-4.5 -16.45,-16.8 -20.23,-26.7 -0.28,-0.73 -0.06,-0.95 0.67,-0.66 z"
       id="path2111" />
    <path
       fill="#fdfdfe"
       d="m 372.27,794.32 c 42.3,15.91 84.61,31.56 127.44,45.47 1.35,0.44 2.81,0.44 4.16,0.02 l 24.79,-7.71 c 0.31,0.09 0.53,0.23 0.66,0.43 0.13,0.19 0.09,0.35 -0.12,0.47 -3.17,1.83 -7.08,2.41 -9.88,3.72 -6.18,2.9 -15.1,9.79 -22.6,9.43 -4.45,-0.22 -8.93,0.01 -13.42,0.68 -0.34,0.05 -0.67,0.01 -0.98,-0.12 -17.32,-7.31 -34.69,-14.5 -52.12,-21.57 -5.74,-2.32 -9.11,-2.31 -14.66,-0.38 -0.77,0.27 -1.03,1.23 -0.5,1.86 4.92,5.78 9.96,11.69 15.12,17.72 0.63,0.73 1.76,1.37 3.41,1.91 0.27,0.09 0.44,0.2 0.52,0.34 0.14,0.24 0.08,0.48 -0.19,0.73 l -25.1,-11.79 c 0.65,-6.46 0.71,-13.73 6.89,-17.61 0.56,-0.35 0.25,-1.22 -0.41,-1.14 -6.63,0.79 -12.78,2.88 -18.44,6.28 -0.68,0.41 -0.73,1.37 -0.09,1.84 3.13,2.31 5.89,4.92 8.28,7.85 -6.8,-4.87 -12.91,-10.45 -18.33,-16.72 l 12.8,-5.84 c 0.38,-0.18 0.4,-0.72 0.03,-0.92 z"
       id="path2113" />
    <path
       fill="#abafb8"
       d="m 631.58,800.6 c -3.41,2.33 -7,4.32 -10.77,5.98 -6.35,2.79 -12.64,5.73 -18.85,8.83 -7.18,3.58 -4.52,9.9 -10.66,13.37 -2.25,1.27 -5.23,2.78 -8.96,4.55 -9.93,4.69 -25.58,13.55 -46.96,26.56 -0.31,0.19 -0.47,0.46 -0.48,0.81 l -1.06,19.85 c -0.01,0.23 0.09,0.31 0.31,0.23 5.85,-2.12 11.43,-4.89 16.75,-8.3 l 49.61,-19.84 c 0.13,-0.05 0.27,0 0.34,0.12 0.06,0.12 0.02,0.27 -0.09,0.35 -4.67,3.16 -9.29,5.97 -13.86,8.44 -26.18,14.13 -53.19,26.13 -81.03,36 -2.43,-0.07 -4.3,-0.41 -5.61,-1.01 -13.03,-5.93 -25.89,-12.23 -38.56,-18.9 -0.06,-0.03 -2.44,-1.12 -7.13,-3.27 -3.25,-1.48 -6.08,-3.41 -8.51,-5.78 l 18.05,6.86 c 0.37,0.14 0.55,0.01 0.53,-0.38 l -0.59,-13.93 c -0.01,-0.41 -0.21,-0.7 -0.58,-0.86 L 433.9,847.32 c 0.27,-0.25 0.33,-0.49 0.19,-0.73 -0.08,-0.14 -0.25,-0.25 -0.52,-0.34 -1.65,-0.54 -2.78,-1.18 -3.41,-1.91 -5.16,-6.03 -10.2,-11.94 -15.12,-17.72 -0.53,-0.63 -0.27,-1.59 0.5,-1.86 5.55,-1.93 8.92,-1.94 14.66,0.38 17.43,7.07 34.8,14.26 52.12,21.57 0.31,0.13 0.64,0.17 0.98,0.12 4.49,-0.67 8.97,-0.9 13.42,-0.68 7.5,0.36 16.42,-6.53 22.6,-9.43 2.8,-1.31 6.71,-1.89 9.88,-3.72 0.21,-0.12 0.25,-0.28 0.12,-0.47 -0.13,-0.2 -0.35,-0.34 -0.66,-0.43 l 106.01,-37.19 c 0.68,-0.23 0.82,-0.05 0.41,0.54 z"
       id="path2115" />
    <path
       fill="#656e7f"
       d="m 631.58,800.6 c -5.26,8.71 -10.05,15.84 -14.36,21.38 -3.44,4.42 -7.93,7.98 -13.34,10.72 -20.95,10.61 -42.47,20.11 -64.56,28.51 -0.59,0.23 -1,0.77 -1.04,1.4 l -0.83,12.44 c -0.03,0.54 0.47,0.95 0.98,0.81 l 12.47,-3.38 c -5.32,3.41 -10.9,6.18 -16.75,8.3 -0.22,0.08 -0.32,0 -0.31,-0.23 l 1.06,-19.85 c 0.01,-0.35 0.17,-0.62 0.48,-0.81 21.38,-13.01 37.03,-21.87 46.96,-26.56 3.73,-1.77 6.71,-3.28 8.96,-4.55 6.14,-3.47 3.48,-9.79 10.66,-13.37 6.21,-3.1 12.5,-6.04 18.85,-8.83 3.77,-1.66 7.36,-3.65 10.77,-5.98 z"
       id="path2117" />
    <path
       fill="#abafb8"
       d="m 701.96,800.43 c 2.02,1.39 2.74,5.02 4.1,7.1 1.63,2.49 2.45,3.75 2.48,3.8 5.91,10.15 12.22,20.05 18.94,29.7 0.86,1.24 1.36,3.09 2.56,4.41 0.2,0.23 0.17,0.42 -0.09,0.57 -0.48,0.29 -0.54,0.61 -0.17,0.97 -6.75,-6.21 -12.31,-13.18 -16.7,-20.9 -1.55,-2.74 -3.49,-6.97 -5.82,-12.7 -1.75,-4.31 -3.52,-8.62 -5.3,-12.95 z"
       id="path2119" />
    <path
       fill="#abafb8"
       d="m 408.8,835.53 c -1.87,-0.83 -3.12,-1.76 -3.77,-2.78 -2.39,-2.93 -5.15,-5.54 -8.28,-7.85 -0.64,-0.47 -0.59,-1.43 0.09,-1.84 5.66,-3.4 11.81,-5.49 18.44,-6.28 0.66,-0.08 0.97,0.79 0.41,1.14 -6.18,3.88 -6.24,11.15 -6.89,17.61 z"
       id="path2121" />
    <path
       fill="#fdfdfe"
       d="m 446.06,868.59 c 2.43,2.37 5.26,4.3 8.51,5.78 4.69,2.15 7.07,3.24 7.13,3.27 12.67,6.67 25.53,12.97 38.56,18.9 1.31,0.6 3.18,0.94 5.61,1.01 -2.22,0.93 -4.18,1.08 -5.87,0.43 -47.29,-17.95 -93.73,-38.84 -139.32,-62.66 -5.28,-2.76 -7.87,-7.22 -11.37,-12.01 -0.05,-0.07 -0.04,-0.16 0.02,-0.22 0.06,-0.06 0.16,-0.07 0.23,-0.02 3.45,2.44 7.46,4.05 10.77,5.67 28.43,13.82 57,27.1 85.73,39.85 z"
       id="path2123" />
  </g>
  <g
     id="g2135"
     transform="translate(-68.7,-91.751223)">
    <path
       fill="#000e1b"
       d="m 539.07,260.78 c 0,3.69 -2.99,6.68 -6.68,6.68 h -59.32 c -3.69,0 -6.68,-2.99 -6.68,-6.68 v -0.3 c 0,-3.69 2.99,-6.68 6.68,-6.68 h 59.32 c 3.69,0 6.68,2.99 6.68,6.68 z"
       id="path2127" />
    <path
       fill="#000e1b"
       d="m 538.7,283.64 c 0,3.65 -2.96,6.61 -6.61,6.61 h -58.7 c -3.65,0 -6.61,-2.96 -6.61,-6.61 v -0.28 c 0,-3.65 2.96,-6.61 6.61,-6.61 h 58.7 c 3.65,0 6.61,2.96 6.61,6.61 z"
       id="path2129" />
    <path
       fill="#000e1b"
       d="m 538.9302,306.4267 c 0.01,3.6533 -2.9502,6.6133 -6.5984,6.6216 l -59.26,0.1034 C 469.42,313.16 466.46,310.2 466.4503,306.5533 l -5e-4,-0.3 c -0.01,-3.6533 2.9502,-6.6133 6.5984,-6.6216 l 59.26,-0.1034 c 3.6518,-0.008 6.6118,2.9517 6.6215,6.5984 z"
       id="path2131" />
    <path
       fill="#000e1b"
       d="m 535.1,339.16 c -1.23,6.04 -4.46,10.55 -9.69,13.52 -1.31,0.74 -2.87,1.11 -4.7,1.11 -11.54,-0.03 -23.12,0.05 -34.74,0.22 -7.68,0.12 -13.48,-8.32 -15.07,-15.01 -0.09,-0.39 -0.34,-0.6 -0.73,-0.61 L 459.68,338 c -0.37,-0.01 -0.56,-0.21 -0.57,-0.58 L 459,327 c -0.01,-0.35 0.27,-0.63 0.62,-0.63 l 23.28,0.22 c 0.73,0.01 1.34,0.58 1.39,1.31 l 0.69,9.95 c 0.07,0.98 0.88,1.75 1.86,1.76 l 31.6,0.23 c 0.86,0.01 1.57,-0.66 1.63,-1.51 l 0.66,-9.66 c 0.1,-1.46 0.88,-2.19 2.35,-2.19 l 21.21,0.1 c 0.8,0.01 1.44,0.65 1.45,1.45 v 9.15 c 0,0.45 -0.22,0.69 -0.67,0.72 l -9.32,0.69 c -0.36,0.03 -0.58,0.22 -0.65,0.57 z"
       id="path2133" />
  </g>
  <g
     id="g2149"
     transform="translate(-68.7,-91.751223)">
    <path
       fill="#000e1b"
       d="m 371.09,242.71 c 3.68,0.13 9.22,4.12 12.07,6.28 0.39,0.29 0.51,0.82 0.29,1.25 -1.74,3.39 -3.85,6.52 -6.32,9.39 -2.19,2.53 -11.12,-2.43 -13.49,-3.87 -0.36,-0.22 -0.52,-0.66 -0.39,-1.07 1.48,-4.39 3.82,-8.27 7.02,-11.64 0.22,-0.22 0.51,-0.35 0.82,-0.34 z"
       id="path2137" />
    <path
       fill="#000e1b"
       d="m 382.46,289.74 c -0.59,0.2 -0.74,0.02 -0.45,-0.53 3.91,-7.39 0.88,-13.57 -1.16,-20.89 -0.08,-0.31 0.05,-0.65 0.33,-0.82 l 6.17,-3.66 c 0.32,-0.18 0.72,-0.08 0.91,0.23 2.55,4.18 7.9,13.27 7.3,17.93 -0.46,3.58 -9.76,6.63 -13.1,7.74 z"
       id="path2139" />
    <path
       fill="#000e1b"
       d="m 310.8,294.97 c 5.91,-9.26 8.4,-16.15 11.15,-27.34 0.08,-0.33 0.41,-0.53 0.74,-0.45 l 11.56,2.93 c 0.39,0.1 0.59,0.35 0.62,0.74 0.33,4.7 0.28,9.82 -2.78,13.73 -4.29,5.48 -9.37,10.13 -15.23,13.94 -0.33,0.21 -0.74,0.22 -1.08,0.04 l -4.71,-2.55 c -0.37,-0.2 -0.5,-0.68 -0.27,-1.04 z"
       id="path2141" />
    <path
       fill="#000e1b"
       d="M 309.4868,316.1102 C 309.66,325.37 302.12,333.02 292.6319,333.2069 283.15,333.39 275.31,326.03 275.1332,316.7698 274.96,307.51 282.5,299.86 291.9881,299.6731 301.47,299.49 309.31,306.85 309.4868,316.1102 Z"
       id="path2143" />
    <path
       fill="#000e1b"
       d="m 385.11,311.63 c 0,6.15 -4.98,11.13 -11.13,11.13 -6.15,0 -11.13,-4.98 -11.13,-11.13 0,-6.15 4.98,-11.13 11.13,-11.13 6.15,0 11.13,4.98 11.13,11.13 z"
       id="path2145" />
    <path
       fill="#000e1b"
       d="M 331.4631,326.1032 C 325.93,324.05 323.15,317.78 325.2605,312.1138 327.37,306.45 333.56,303.52 339.0969,305.5768 344.63,307.63 347.41,313.9 345.2995,319.5662 343.19,325.23 337,328.16 331.4631,326.1032 Z"
       id="path2147" />
  </g>
  <g
     id="g2163"
     transform="translate(-68.7,-91.751223)">
    <path
       fill="#000e1b"
       d="m 641.63,256.26 -11.93,4.64 c -0.45,0.18 -0.82,0.07 -1.11,-0.32 l -7.12,-9.74 c -0.57,-0.77 -0.31,-1.86 0.54,-2.3 l 10.96,-5.62 c 1.03,-0.53 1.91,-0.35 2.64,0.56 2.71,3.41 4.95,7.09 6.72,11.06 0.3,0.67 -0.02,1.45 -0.7,1.72 z"
       id="path2151" />
    <path
       fill="#000e1b"
       d="m 609.73,283.21 c -2.1,-3.96 4.35,-15.04 6.44,-18.65 0.36,-0.61 1.15,-0.82 1.76,-0.46 l 4.99,2.93 c 0.36,0.21 0.53,0.64 0.41,1.04 -2.37,8 -5.15,13.17 -0.38,21.13 0.19,0.32 -0.13,0.71 -0.48,0.57 -3.21,-1.25 -11.19,-3.64 -12.74,-6.56 z"
       id="path2153" />
    <path
       fill="#000e1b"
       d="m 683.1,269.12 c 2.33,9.71 5.03,16.85 11.47,25.96 0.22,0.31 0.16,0.55 -0.19,0.72 l -6,2.89 c -0.35,0.17 -0.77,0.13 -1.08,-0.1 -4.88,-3.59 -14.62,-11.62 -16.48,-18.35 -0.57,-2.07 -0.8,-5.21 -0.71,-9.42 0.01,-0.26 0.14,-0.42 0.39,-0.47 l 10.58,-2.48 c 0.9,-0.21 1.8,0.35 2.02,1.25 z"
       id="path2155" />
    <path
       fill="#000e1b"
       d="m 730.58,316.46 c 0,9.29 -7.54,16.83 -16.83,16.83 -9.29,0 -16.83,-7.54 -16.83,-16.83 0,-9.29 7.54,-16.83 16.83,-16.83 9.29,0 16.83,7.54 16.83,16.83 z"
       id="path2157" />
    <path
       fill="#000e1b"
       d="M 642.4284,306.7663 C 645.01,312.25 642.45,318.88 636.7208,321.576 630.99,324.27 624.25,322.02 621.6716,316.5337 619.09,311.05 621.65,304.42 627.3792,301.724 c 5.7308,-2.694 12.4708,-0.444 15.0492,5.0423 z"
       id="path2159" />
    <path
       fill="#000e1b"
       d="m 681.52,315.88 c 0,5.94 -4.82,10.76 -10.76,10.76 -5.94,0 -10.76,-4.82 -10.76,-10.76 0,-5.94 4.82,-10.76 10.76,-10.76 5.94,0 10.76,4.82 10.76,10.76 z"
       id="path2161" />
  </g>
  <path
     fill="#000e1b"
     d="m 461.19,323.41878 9.75,2.9 c 0.36,0.11 0.47,0.34 0.32,0.69 -2,4.88 -7.86,9.04 -12.29,11.61 -0.45,0.26 -0.63,0.14 -0.56,-0.37 l 2.05,-14.36 c 0.06,-0.44 0.3,-0.6 0.73,-0.47 z"
     id="path2165" />
  <g
     id="g2171"
     transform="translate(-68.7,-91.751223)">
    <path
       fill="#e62d4c"
       d="m 333.51,485.45 c -0.92,-1.04 -0.85,-2.62 0.16,-3.58 l 64.57,-61.58 c 0.28,-0.27 0.66,-0.42 1.06,-0.43 l 11.88,-0.18 c 0.66,-0.01 1.01,0.78 0.54,1.25 -23.51,23.62 -48.18,46.07 -72.17,69.26 -0.55,0.54 -1.45,0.5 -1.96,-0.08 z"
       id="path2167" />
    <path
       fill="#e62d4c"
       d="m 369.06,422.58 c -18.51,18.38 -37.44,35.6 -55.88,53.49 -12.17,11.79 -24.57,23.27 -37.21,34.43 -0.34,0.3 -0.84,0.34 -1.23,0.1 -15.09,-9.37 -22.44,-19.01 -26.18,-36.62 -2.04,-9.61 -3.37,-16.65 -3.98,-21.13 -0.05,-0.41 0.11,-0.7 0.5,-0.86 37.91,-15.52 81.45,-27.63 123.45,-30.59 1.23,-0.09 1.41,0.31 0.53,1.18 z"
       id="path2169" />
  </g>
  <path
     fill="#000e1b"
     d="m 423.9,489.27878 c -14.51,-5.96 -37.32,-13.57 -38.37,-32.58 -0.44,-7.94 3.55,-14.37 10.81,-17.46 15.82,-6.72 32.72,-9.04 50.71,-6.96 14.02,1.62 39.09,6.98 34.9,26.66 -2.51,11.83 -10.56,18.3 -21.12,23.07 -5.56,2.51 -11.16,4.93 -16.8,7.27 -0.29,0.11 -0.45,0.32 -0.5,0.63 -2.26,13.25 -0.33,25.09 5.8,35.54 7.98,13.62 21.9,27.18 37.98,27.8 9,0.35 14.94,-5.18 19.8,-12.29 0.19,-0.27 0.46,-0.48 0.78,-0.6 5.92,-2.17 10.04,1.66 10.19,7.45 0.22,9.02 -9.66,17.04 -17.3,19.85 -27.92,10.24 -53.36,-9.24 -66.79,-31.8 -0.21,-0.35 -0.71,-0.34 -0.91,0.01 -9.22,16.35 -24.48,30.43 -43.52,33.88 -14.12,2.56 -30.22,-1.58 -37.3,-15.18 -2.16,-4.16 -2.19,-7.95 -0.1,-11.36 1.62,-2.65 3.86,-3.76 6.71,-3.35 4.17,0.6 5.73,5.36 8.59,8 13.94,12.91 34.04,-0.31 43.97,-12.29 10.89,-13.15 15.22,-28.35 12.99,-45.62 -0.04,-0.33 -0.21,-0.55 -0.52,-0.67 z"
     id="path2173" />
  <path
     fill="#000e1b"
     d="m 663.5,712.87878 c -7.53,-3.23 -16.41,-15.08 -19.09,-22.66 -0.18,-0.49 0.15,-1.02 0.67,-1.1 l 11.07,-1.62 c 0.61,-0.09 1.21,0.15 1.58,0.63 4.46,5.78 9.31,11.2 14.55,16.26 0.6,0.59 0.59,1.56 -0.02,2.13 l -6.39,5.95 c -0.64,0.6 -1.57,0.76 -2.37,0.41 z"
     id="path2175" />
  <path
     fill="#fdfdfe"
     d="m 445.35,447.10878 c 0,1.63 -1.33,2.96 -2.96,2.96 h -15.48 c -1.63,0 -2.96,-1.33 -2.96,-2.96 v -0.24 c 0,-1.63 1.33,-2.96 2.96,-2.96 h 15.48 c 1.63,0 2.96,1.33 2.96,2.96 z"
     id="path2177" />
</svg>
